<svg id="Layer_1" data-name="Layer 1" xmlns="http://www.w3.org/2000/svg" viewBox="0 0 34.37 29.17">
    <defs>
        <style>
            .cls-1 {
            fill: #f25c69;
            }
        </style>
    </defs>
    <title>Untitled-1</title>
    <g>
        <path class="cls-1"
              d="M17.18,29.17a1.42,1.42,0,0,1-.5-.08L1.1,23.9a1.6,1.6,0,1,1,1-3l15.07,5,14-4.66V9L17.69,13.51a1.59,1.59,0,0,1-1,0L8.93,10.93a1.6,1.6,0,1,1,1-3l7.24,2.41,15.08-5A1.61,1.61,0,0,1,34.37,6.8V22.38a1.6,1.6,0,0,1-1.1,1.52L17.69,29.09A1.44,1.44,0,0,1,17.18,29.17Z"/>
        <path class="cls-1"
              d="M17.18,21.74a1.43,1.43,0,0,1-.5-.09L1.1,16.46A1.6,1.6,0,0,1,0,14.94V6.8A1.59,1.59,0,0,1,1.1,5.28L16.68.08a1.6,1.6,0,0,1,1,3L3.21,8v5.83l14,4.66L24.57,16a1.6,1.6,0,1,1,1,3l-7.9,2.63A1.44,1.44,0,0,1,17.18,21.74Z"/>
    </g>
</svg>
