<svg id="Layer_1" data-name="Layer 1" xmlns="http://www.w3.org/2000/svg" viewBox="0 0 426.9 65.87">
  <defs>
    <style>
      .cls-1 {
        fill: #08aeea;
      }

      .cls-2 {
        fill: #2af598;
      }
    </style>
  </defs>
  <title>logo</title>
  <g>
    <g>
      <path class="cls-1" d="M87,43.58,83,54.73H77.3L91,15.88h7.14l14.3,38.85h-6.12l-4.1-11.15Zm13.85-4.88c-3.53-9.83-5.51-15.22-6.37-18.28H94.4c-1,3.4-3.16,9.87-6,18.28Z"/>
      <path class="cls-1" d="M117.56,54.73v-41h5.49v41Z"/>
      <path class="cls-1" d="M154.1,45.92c-1.16,4.87-4.48,9.48-12,9.48-8,0-12.83-5.73-12.83-14.75,0-8.12,4.66-15.07,13.19-15.07s11.29,6.05,11.61,9.64h-5.42c-.66-2.79-2.38-5.13-6.29-5.13-4.76,0-7.46,4.1-7.46,10.38s2.65,10.45,7.3,10.45c3.4,0,5.35-1.84,6.43-5Z"/>
      <path class="cls-1" d="M181.63,48.3a49,49,0,0,0,.39,6.43h-5.25a15,15,0,0,1-.45-3.54c-1,1.84-3.21,4.21-8.64,4.21-6.75,0-9.62-4.4-9.62-8.75,0-6.38,5-9.3,13.48-9.3h4.7V35.06c0-2.42-.79-5.28-5.79-5.28-4.48,0-5.27,2.18-5.76,4.37H159.4c.39-4.14,2.95-8.59,11.23-8.57,7.09,0,11,2.89,11,9.42ZM176.27,41h-4.34c-5.49,0-8.29,1.54-8.29,5.31,0,2.79,1.89,4.86,5.27,4.86,6.5,0,7.36-4.4,7.36-9.29Z"/>
      <path class="cls-1" d="M189.85,33.43c0-2.46,0-5-.06-7.18h5.34a44.22,44.22,0,0,1,.21,4.48c1.11-2.32,3.43-5.15,8.83-5.15s9.5,3.38,9.5,10.87V54.73h-5.49V37.13c0-4.09-1.56-6.88-5.74-6.88-5,0-7.1,3.66-7.1,9.25V54.73h-5.49Z"/>
      <path class="cls-1" d="M261.57,36.83H242.39v13h21.08l-.72,4.88h-26V15.88h25.73v4.88H242.39V32h19.18Z"/>
      <path class="cls-1" d="M273.55,26.25C277.35,32.4,279,35,280,36.57H280c1.16-1.83,3.43-5.43,6.59-10.32h6.14l-9.56,13.67,9.62,14.81h-6.3c-3.29-5.43-5.54-9.12-6.63-10.92h-.05c-.91,1.57-3.15,5.35-6.6,10.92h-6.09l9.42-14.16-9.17-14.32Z"/>
      <path class="cls-1" d="M302.41,51.4V65.87h-5.47V33.18c0-2.31,0-4.7-.05-6.93h5.33a42.49,42.49,0,0,1,.19,4.3c1.48-2.72,4.3-5,9.11-5,6.55,0,11.36,5.49,11.36,14.18,0,10.15-5.49,15.64-12.39,15.64C306,55.4,303.66,53.55,302.41,51.4ZM317.25,40c0-5.88-2.63-9.78-7.27-9.78-5.63,0-7.81,3.56-7.81,10.26,0,6.48,1.82,10.38,7.44,10.38C314.61,50.84,317.25,46.76,317.25,40Z"/>
      <path class="cls-1" d="M329.11,34c0-3.76,0-6.05-.06-7.74h5.38c.09.77.17,3.12.17,5.66,1.44-3.74,4.77-6.21,9.5-6.33V31c-5.82.11-9.5,2.87-9.5,10.19V54.73h-5.49Z"/>
      <path class="cls-1" d="M352.39,41.54c0,5.36,2.72,9.35,7.38,9.35,4.27,0,5.62-2.12,6.5-4.14h5.53c-1.1,3.62-4.17,8.65-12.19,8.65-9,0-12.77-7.22-12.77-14.58,0-8.56,4.33-15.24,13.08-15.24,9.3,0,12.37,7.31,12.37,13.59a22.49,22.49,0,0,1-.08,2.37Zm14.35-3.73c-.06-4.42-2.22-8-6.88-8s-6.84,3.32-7.31,8Z"/>
      <path class="cls-1" d="M381.83,46.5c.77,3,3,4.68,6.67,4.68,3.94,0,5.47-1.66,5.47-4.08s-1.29-3.64-6.47-4.89c-8.36-2-10-4.61-10-8.5,0-4.07,3-8.13,10.53-8.13s10.59,4.34,10.93,8.29h-5.29c-.37-1.69-1.63-4.14-5.88-4.14-3.72,0-4.84,1.77-4.84,3.52,0,2,1.11,3,6.22,4.19,8.8,2.08,10.45,5,10.45,9.26,0,4.93-3.88,8.7-11.28,8.7-7.62,0-11.23-3.81-11.94-8.9Z"/>
      <path class="cls-1" d="M409.13,46.5c.77,3,3,4.68,6.67,4.68,3.93,0,5.47-1.66,5.47-4.08s-1.3-3.64-6.47-4.89c-8.36-2-10-4.61-10-8.5,0-4.07,3-8.13,10.53-8.13s10.58,4.34,10.93,8.29H421c-.38-1.69-1.64-4.14-5.88-4.14-3.73,0-4.85,1.77-4.85,3.52,0,2,1.12,3,6.22,4.19,8.81,2.08,10.46,5,10.46,9.26,0,4.93-3.89,8.7-11.29,8.7-7.62,0-11.22-3.81-11.93-8.9Z"/>
    </g>
    <g>
      <polygon class="cls-1" points="10.23 54.71 0 54.71 28.26 0 47.46 38.31 31.87 38.33 25.34 26.36 10.23 54.71"/>
      <g>
        <polygon class="cls-2" points="56.82 43.81 54.9 40 32.57 40 34.56 43.81 56.82 43.81"/>
        <polygon class="cls-2" points="57.67 45.5 35.45 45.5 37.4 49.23 59.56 49.23 57.67 45.5"/>
        <polygon class="cls-2" points="38.28 50.92 40.27 54.73 62.33 54.71 60.41 50.92 38.28 50.92"/>
      </g>
    </g>
  </g>
</svg>
