<svg id="Layer_1" data-name="Layer 1" xmlns="http://www.w3.org/2000/svg" viewBox="0 0 349.6 114.02">
  <defs>
    <style>
      .cls-1 {
        fill: #fff;
      }
    </style>
  </defs>
  <title>Untitled-1</title>
  <g>
    <g>
      <path class="cls-1" d="M9.68,91.74l-4,11.15H0L13.71,64h7.14l14.31,38.85H29l-4.1-11.15Zm13.84-4.88C20,77,18,71.64,17.16,68.58H17.1c-1,3.39-3.16,9.87-6,18.28Z"/>
      <path class="cls-1" d="M40.25,102.89v-41h5.5v41Z"/>
      <path class="cls-1" d="M76.8,94.08c-1.16,4.87-4.48,9.48-12,9.48-8,0-12.83-5.74-12.83-14.75,0-8.12,4.66-15.07,13.19-15.07s11.29,6.05,11.61,9.64H71.38c-.66-2.79-2.38-5.13-6.3-5.13-4.76,0-7.45,4.09-7.45,10.37s2.65,10.45,7.3,10.45c3.4,0,5.35-1.84,6.42-5Z"/>
      <path class="cls-1" d="M104.33,96.46a47.42,47.42,0,0,0,.39,6.43H99.47A15.06,15.06,0,0,1,99,99.34c-1,1.84-3.21,4.22-8.64,4.22-6.75,0-9.62-4.4-9.62-8.75,0-6.38,5-9.3,13.48-9.3h4.7v-2.3c0-2.41-.79-5.27-5.79-5.27-4.48,0-5.27,2.18-5.76,4.37H82.1c.39-4.15,3-8.6,11.23-8.57,7.09,0,11,2.89,11,9.42ZM99,89.18H94.63c-5.49,0-8.29,1.55-8.29,5.32,0,2.78,1.89,4.86,5.27,4.86,6.5,0,7.36-4.4,7.36-9.3Z"/>
      <path class="cls-1" d="M112.55,81.59c0-2.47,0-5-.06-7.18h5.34c.13.82.22,3.62.21,4.48,1.1-2.32,3.42-5.15,8.83-5.15s9.5,3.38,9.5,10.87v18.28h-5.49V85.29c0-4.09-1.56-6.88-5.74-6.88-5,0-7.1,3.66-7.1,9.25v15.23h-5.49Z"/>
      <path class="cls-1" d="M184.27,85H165.09V98h21.08l-.72,4.88h-26V64h25.73v4.88H165.09V80.11h19.18Z"/>
      <path class="cls-1" d="M196.25,74.41c3.8,6.14,5.41,8.74,6.4,10.31h.06c1.16-1.82,3.43-5.42,6.59-10.31h6.14l-9.56,13.66,9.62,14.82h-6.3c-3.29-5.43-5.54-9.12-6.63-10.93h-.06c-.91,1.58-3.14,5.35-6.59,10.93h-6.09l9.42-14.16-9.17-14.32Z"/>
      <path class="cls-1" d="M225.11,99.56V114h-5.47V81.34c0-2.32,0-4.7,0-6.93h5.33a42.49,42.49,0,0,1,.19,4.3c1.48-2.72,4.3-5,9.11-5,6.55,0,11.36,5.49,11.36,14.18,0,10.15-5.5,15.64-12.39,15.64C228.7,103.56,226.35,101.71,225.11,99.56ZM240,88.14c0-5.88-2.63-9.78-7.27-9.78-5.63,0-7.82,3.56-7.82,10.25,0,6.48,1.83,10.39,7.45,10.39C237.31,99,240,94.91,240,88.14Z"/>
      <path class="cls-1" d="M251.8,82.14c0-3.75,0-6-.05-7.73h5.38c.09.77.17,3.12.17,5.66,1.44-3.74,4.77-6.21,9.5-6.33v5.41c-5.82.11-9.5,2.87-9.5,10.19v13.55h-5.5Z"/>
      <path class="cls-1" d="M275.08,89.7c0,5.36,2.73,9.35,7.39,9.35,4.27,0,5.62-2.13,6.5-4.14h5.53c-1.1,3.61-4.17,8.65-12.19,8.65-9,0-12.77-7.23-12.77-14.59,0-8.55,4.32-15.23,13.08-15.23,9.3,0,12.37,7.31,12.37,13.59a22.49,22.49,0,0,1-.08,2.37ZM289.44,86c-.06-4.42-2.22-8-6.89-8s-6.84,3.32-7.3,8Z"/>
      <path class="cls-1" d="M304.53,94.66c.77,3,3,4.67,6.67,4.67,3.94,0,5.47-1.65,5.47-4.08s-1.29-3.63-6.47-4.89c-8.36-2-10-4.6-10-8.5,0-4.06,3-8.12,10.53-8.12s10.58,4.34,10.93,8.29h-5.29c-.37-1.69-1.64-4.14-5.88-4.14-3.72,0-4.84,1.77-4.84,3.52,0,2,1.11,3,6.22,4.19,8.8,2.08,10.45,5,10.45,9.25,0,4.94-3.88,8.71-11.28,8.71-7.63,0-11.23-3.81-11.94-8.9Z"/>
      <path class="cls-1" d="M331.82,94.66c.78,3,3,4.67,6.68,4.67,3.93,0,5.46-1.65,5.46-4.08s-1.29-3.63-6.46-4.89c-8.36-2-10-4.6-10-8.5,0-4.06,3-8.12,10.52-8.12s10.59,4.34,10.94,8.29h-5.29c-.38-1.69-1.64-4.14-5.89-4.14-3.72,0-4.84,1.77-4.84,3.52,0,2,1.12,3,6.22,4.19,8.81,2.08,10.46,5,10.46,9.25,0,4.94-3.89,8.71-11.29,8.71-7.62,0-11.23-3.81-11.93-8.9Z"/>
    </g>
    <g>
      <polygon class="cls-1" points="130.6 54.71 120.37 54.71 148.63 0 167.83 38.31 152.24 38.33 145.71 26.36 130.6 54.71"/>
      <g>
        <polygon class="cls-1" points="177.19 43.81 175.27 40 152.94 40 154.94 43.81 177.19 43.81"/>
        <polygon class="cls-1" points="178.04 45.5 155.82 45.5 157.77 49.23 179.93 49.23 178.04 45.5"/>
        <polygon class="cls-1" points="158.65 50.92 160.64 54.73 182.69 54.71 180.78 50.92 158.65 50.92"/>
      </g>
    </g>
  </g>
</svg>
