<svg id="_005-azerbaijan" data-name="005-azerbaijan" xmlns="http://www.w3.org/2000/svg" width="38.686" height="38.686" viewBox="0 0 38.686 38.686">
  <path id="Path_683" data-name="Path 683" d="M38.686,163.4a19.3,19.3,0,0,0-1.2-6.728l-18.14-.841-18.14.841a19.414,19.414,0,0,0,0,13.456l18.14.841,18.14-.841A19.3,19.3,0,0,0,38.686,163.4Z" transform="translate(0 -144.052)" fill="#d80027"/>
  <path id="Path_684" data-name="Path 684" d="M34.063,357.658A19.35,19.35,0,0,0,52.2,345.043H15.923A19.35,19.35,0,0,0,34.063,357.658Z" transform="translate(-14.72 -318.972)" fill="#6da544"/>
  <path id="Path_685" data-name="Path 685" d="M15.923,12.615H52.2a19.35,19.35,0,0,0-36.28,0Z" transform="translate(-14.72)" fill="#338af3"/>
  <g id="Group_82" data-name="Group 82" transform="translate(10.933 12.615)">
    <path id="Path_686" data-name="Path 686" d="M153.526,179.151a5.467,5.467,0,1,1,2.6-10.276,6.728,6.728,0,1,0,0,9.619A5.44,5.44,0,0,1,153.526,179.151Z" transform="translate(-144.696 -166.956)" fill="#f0f0f0"/>
    <path id="Path_687" data-name="Path 687" d="M270.915,205.913l.724,2.036,1.952-.928-.928,1.952,2.036.724-2.036.724.928,1.952-1.952-.928-.724,2.036-.724-2.036-1.952.928.928-1.952-2.036-.724,2.036-.724-.928-1.952,1.952.928Z" transform="translate(-257.879 -202.969)" fill="#f0f0f0"/>
  </g>
</svg>
