<svg xmlns="http://www.w3.org/2000/svg" width="78.848" height="73.498" viewBox="0 0 78.848 73.498">
  <g id="Group_89" data-name="Group 89" transform="translate(-111.215 -488)">
    <path id="Path_808" data-name="Path 808" d="M186.542,500.581l-8.661-10.872A4.516,4.516,0,0,0,174.466,488H130.079a4.37,4.37,0,0,0-3.343,1.708l-8.846,10.823a9.215,9.215,0,0,0-1.89,4.858v7.892c1.365-1.074,1.938-1.879,3.133-2.291a6.434,6.434,0,0,1,4.661-5.337,6.312,6.312,0,0,1,1.6-.212,6.023,6.023,0,0,1,5.008,2.679,5.82,5.82,0,0,1,.985-.086,5.587,5.587,0,0,1,2.788.753l4.759-1.238a7.228,7.228,0,0,1,8.818,5.178l9.324,35.83a7.193,7.193,0,0,1-.763,5.483,7.573,7.573,0,0,1-4.416,3.585l-4.16,1.329h34.943a6.043,6.043,0,0,0,5.637-5.839V505.245A8.913,8.913,0,0,0,186.542,500.581Zm-65.587-.3,2.844-2.729h19.4l1.916-4.094h-18.81l2.1-2.279c.408-.512,1.018-.45,1.672-.45h44.386c.654,0,1.264-.061,1.672.45l2.1,2.279H159.093l1.068,4.094h20.584l2.845,2.729Z" transform="translate(1.744 0)" fill="#eee"/>
    <path id="Path_809" data-name="Path 809" d="M121.066,508.138l-1.2.312a2.39,2.39,0,0,0-1.712,2.915l.012.046a2.391,2.391,0,0,0,2.916,1.712l10.172-2.647a2.389,2.389,0,0,0,1.711-2.915l-.012-.048a2.389,2.389,0,0,0-2.915-1.711l-1.2.313a1.2,1.2,0,0,1-1.463-.86l-.01-.038a2.784,2.784,0,0,0-3.4-1.994l-.063.015a2.785,2.785,0,0,0-1.994,3.4l.01.04A1.2,1.2,0,0,1,121.066,508.138Z" transform="translate(2.501 5.517)" fill="#eee"/>
    <path id="Path_810" data-name="Path 810" d="M122.912,504.357a1.208,1.208,0,1,1-.865,1.472A1.208,1.208,0,0,1,122.912,504.357Z" transform="translate(3.934 5.948)" fill="#eee"/>
    <rect id="Rectangle_340" data-name="Rectangle 340" width="16.902" height="2.415" rx="0.59" transform="matrix(0.968, -0.252, 0.252, 0.968, 125.075, 549.854)" fill="#eee"/>
    <rect id="Rectangle_341" data-name="Rectangle 341" width="22.536" height="2.415" rx="0.59" transform="matrix(0.968, -0.252, 0.252, 0.968, 121.63, 536.612)" fill="#eee"/>
    <rect id="Rectangle_342" data-name="Rectangle 342" width="22.536" height="2.415" rx="0.59" transform="translate(119.806 529.602) rotate(-14.583)" fill="#eee"/>
    <rect id="Rectangle_343" data-name="Rectangle 343" width="18.512" height="2.415" rx="0.59" transform="matrix(0.968, -0.252, 0.252, 0.968, 123.251, 542.844)" fill="#eee"/>
    <path id="Path_811" data-name="Path 811" d="M155.719,543.349,146.4,507.518a4.025,4.025,0,0,0-4.908-2.88l-4.75,1.235a4.036,4.036,0,0,1-2.579,5.661l-10.024,2.608a4.1,4.1,0,0,1-4.935-2.522,4.152,4.152,0,0,1-.22-1.127l-4.755,1.236a4.025,4.025,0,0,0-2.881,4.908l9.321,35.831a4.025,4.025,0,0,0,4.908,2.882l27.262-7.093A4.024,4.024,0,0,0,155.719,543.349Zm-31.157,8.105L116.456,520.3l27.263-7.093,8.105,31.157Z" transform="translate(0 6.017)" fill="#eee"/>
  </g>
</svg>
