<svg id="Group_88" data-name="Group 88" xmlns="http://www.w3.org/2000/svg" width="70.962" height="87.146" viewBox="0 0 70.962 87.146">
  <path id="Path_799" data-name="Path 799" d="M407.436,687.308h-1.918a1.856,1.856,0,0,1-1.855-1.855v-.063a4.307,4.307,0,0,0-4.308-4.307h-.1a4.307,4.307,0,0,0-4.308,4.307v.063a1.856,1.856,0,0,1-1.855,1.855h-1.918a3.7,3.7,0,0,0-3.7,3.7v.073a3.7,3.7,0,0,0,3.7,3.7h16.26a3.7,3.7,0,0,0,3.7-3.7v-.073A3.7,3.7,0,0,0,407.436,687.308Z" transform="translate(-371.296 -681.084)" fill="#eee"/>
  <path id="Path_800" data-name="Path 800" d="M396.119,686.512a1.868,1.868,0,1,1,1.866-1.868A1.868,1.868,0,0,1,396.119,686.512Z" transform="translate(-368.107 -680.287)" fill="#eee"/>
  <path id="Path_801" data-name="Path 801" d="M412.8,756.726H381.455a4.979,4.979,0,0,1-4.979-4.979V691.988c0-2.75,2.23-4.979,3.734-4.979H390.3a6.331,6.331,0,0,0-.129,1.283,6.194,6.194,0,0,0,6.188,6.186h16.258a6.24,6.24,0,0,0,6.066-7.469h7.591c4,0,6.226,2.228,6.226,4.979V729.4c-.415-.026-.825-.063-1.246-.063a19.876,19.876,0,0,0-4.98.654V700.7H382.7v49.8h28.7A19.8,19.8,0,0,0,412.8,756.726Z" transform="translate(-376.476 -678.294)" fill="#eee"/>
  <path id="Path_802" data-name="Path 802" d="M418.9,718.327a16.184,16.184,0,1,0,16.185,16.185A16.186,16.186,0,0,0,418.9,718.327Z" transform="translate(-364.122 -663.549)" fill="#eee"/>
  <path id="Path_803" data-name="Path 803" d="M427.482,728.4l-9.959,11.2a2.491,2.491,0,0,1-3.417.29l-6.224-4.98a2.49,2.49,0,0,1,3.111-3.889l4.379,3.5,8.389-9.438a2.49,2.49,0,1,1,3.721,3.309Z" transform="translate(-362.13 -660.76)" fill="#eee"/>
  <rect id="Rectangle_336" data-name="Rectangle 336" width="22.409" height="3.735" rx="0.846" transform="translate(22.409 39.838)" fill="#eee"/>
  <rect id="Rectangle_337" data-name="Rectangle 337" width="22.409" height="3.735" rx="0.846" transform="translate(22.409 28.633)" fill="#eee"/>
  <rect id="Rectangle_338" data-name="Rectangle 338" width="16.184" height="3.735" rx="0.846" transform="translate(22.409 49.797)" fill="#eee"/>
  <rect id="Rectangle_339" data-name="Rectangle 339" width="13.695" height="3.735" rx="0.846" transform="translate(22.409 61.002)" fill="#eee"/>
  <path id="Path_804" data-name="Path 804" d="M393.117,700.572l-4.585,5.158a1.148,1.148,0,0,1-1.574.132l-2.865-2.292a1.146,1.146,0,1,1,1.433-1.79l2.015,1.612,3.862-4.345a1.147,1.147,0,1,1,1.714,1.524Z" transform="translate(-373.092 -672.807)" fill="#eee"/>
  <path id="Path_805" data-name="Path 805" d="M393.117,708.1l-4.585,5.157a1.146,1.146,0,0,1-1.574.134l-2.865-2.293a1.146,1.146,0,1,1,1.433-1.788l2.015,1.612,3.862-4.345a1.147,1.147,0,1,1,1.714,1.524Z" transform="translate(-373.092 -669.262)" fill="#eee"/>
  <path id="Path_806" data-name="Path 806" d="M393.117,715.3l-4.585,5.16a1.148,1.148,0,0,1-1.574.133l-2.865-2.293a1.146,1.146,0,1,1,1.433-1.79l2.015,1.613,3.862-4.345a1.146,1.146,0,0,1,1.714,1.522Z" transform="translate(-373.092 -665.871)" fill="#eee"/>
  <path id="Path_807" data-name="Path 807" d="M393.117,722.557l-4.585,5.158a1.146,1.146,0,0,1-1.574.134l-2.865-2.293a1.146,1.146,0,1,1,1.433-1.79l2.015,1.613,3.862-4.345a1.146,1.146,0,0,1,1.714,1.522Z" transform="translate(-373.092 -662.456)" fill="#eee"/>
</svg>
