<svg xmlns="http://www.w3.org/2000/svg" width="456.869" height="316.171" viewBox="0 0 456.869 316.171">
  <g id="Group_100" data-name="Group 100" transform="translate(0 -193.829)">
    <rect id="Rectangle_189" data-name="Rectangle 189" width="386.058" height="1.639" transform="translate(70.811 504.449)" fill="#3f3d56"/>
    <rect id="Rectangle_191" data-name="Rectangle 191" width="31.627" height="31.627" transform="translate(111.696 478.373)" fill="#cfcce0"/>
    <path id="Path_748" data-name="Path 748" d="M329.336,738.494H296.044V705.2h33.292Zm-31.627-1.665h29.962V706.867H297.709Z" transform="translate(-190.173 -232.655)" fill="#3f3d56"/>
    <rect id="Rectangle_192" data-name="Rectangle 192" width="21.46" height="20.717" transform="matrix(0.933, -0.361, 0.361, 0.933, 157.913, 209.766)" fill="#f2f2f2"/>
    <path id="Path_749" data-name="Path 749" d="M392.648,332.2l-21.069,8.148-7.866-20.339,21.068-8.148Zm-20.409,6.724,18.962-7.334-7.08-18.305-18.962,7.334Z" transform="translate(-210.865 -112.377)" fill="#3f3d56"/>
    <rect id="Rectangle_193" data-name="Rectangle 193" width="21.46" height="20.717" transform="translate(364.483 457.545) rotate(71.027)" fill="#f2f2f2"/>
    <path id="Path_750" data-name="Path 750" d="M900.554,646.874l-7.344-21.362,20.622-7.09,7.344,21.362Zm-5.946-20.648,6.61,19.226,18.56-6.381-6.61-19.226Z" transform="translate(-547.026 -165.855)" fill="#3f3d56"/>
    <path id="Path_751" data-name="Path 751" d="M277.443,509.505c11.735.252,21.07,8.756,21.07,8.756s-9.691,8.1-21.426,7.844-21.069-8.756-21.069-8.756S265.708,509.253,277.443,509.505Z" transform="translate(-177.934 -172.812)" fill="#fc0"/>
    <path id="Path_752" data-name="Path 752" d="M195.011,443.989c10.6,5.037,22.759,1.621,22.759,1.621s-5.032-11.582-15.634-16.618-22.759-1.621-22.759-1.621S184.409,438.952,195.011,443.989Z" transform="translate(-154.498 -147.352)" fill="#fc0"/>
    <path id="Path_753" data-name="Path 753" d="M194.46,444.551c11.689-1.068,21.92,6.333,21.92,6.333s-8.72,9.133-20.409,10.2-21.92-6.333-21.92-6.333S182.772,445.619,194.46,444.551Z" transform="translate(-152.87 -152.919)" fill="#3f3d56"/>
    <path id="Path_754" data-name="Path 754" d="M265.119,438.543c-1.12,11.684,6.235,21.948,6.235,21.948s9.172-8.679,10.292-20.363-6.235-21.948-6.235-21.948S266.239,426.859,265.119,438.543Z" transform="translate(-180.681 -144.888)" fill="#3f3d56"/>
    <path id="Path_755" data-name="Path 755" d="M342.54,544.659c-6.131,10.009-4.022,22.459-4.022,22.459s12.049-3.778,18.18-13.787,4.021-22.459,4.021-22.459S348.671,534.65,342.54,544.659Z" transform="translate(-203.054 -179.348)" fill="#3f3d56"/>
    <path id="Path_756" data-name="Path 756" d="M292.083,629.783l.893-.6a27.991,27.991,0,0,1-4.94-15.523c.025-8.118,4.012-15.627,7.869-22.888.716-1.348,1.429-2.691,2.115-4.034a88.061,88.061,0,0,0,6.849-17.194c5.982-22.229.092-48.454-15.753-70.154-12.57-17.214-31.309-32.267-57.285-46.018l-.5.953c25.829,13.673,44.447,28.622,56.919,45.7,15.655,21.438,21.48,47.321,15.583,69.237a87.012,87.012,0,0,1-6.768,16.984c-.684,1.338-1.395,2.676-2.108,4.019-3.918,7.377-7.969,15.006-7.995,23.391a29.08,29.08,0,0,0,5.125,16.13Z" transform="translate(-170.384 -155.647)" fill="#3f3d56"/>
    <circle id="Ellipse_51" data-name="Ellipse 51" cx="10.244" cy="10.244" r="10.244" transform="translate(0 278.65)" fill="#3f3d56"/>
    <path id="Path_757" data-name="Path 757" d="M759.965,359.327,628.109,311.97l23.54-65.543,82.1-20.134,49.756,67.492Z" transform="translate(-372.563 54.635)" fill="#2f2e41"/>
    <path id="Path_758" data-name="Path 758" d="M895.172,450.053l-98.537-37.561c25.58-34.264,37.019-58.434,37.028-96.467L932.2,353.586C909.307,386.1,899.734,410.549,895.172,450.053Z" transform="translate(-523.743 -49.088)" fill="#f2f2f2"/>
    <rect id="Rectangle_194" data-name="Rectangle 194" width="54.632" height="2.541" transform="translate(328.135 290.176) rotate(20.866)" fill="#3f3d56"/>
    <rect id="Rectangle_195" data-name="Rectangle 195" width="54.632" height="2.541" transform="translate(324.515 299.674) rotate(20.866)" fill="#3f3d56"/>
    <rect id="Rectangle_196" data-name="Rectangle 196" width="54.632" height="2.541" transform="translate(320.894 309.171) rotate(20.866)" fill="#3f3d56"/>
    <rect id="Rectangle_197" data-name="Rectangle 197" width="54.632" height="2.541" transform="translate(317.274 318.668) rotate(20.866)" fill="#3f3d56"/>
    <rect id="Rectangle_198" data-name="Rectangle 198" width="54.632" height="2.541" transform="translate(313.654 328.166) rotate(20.866)" fill="#3f3d56"/>
    <rect id="Rectangle_199" data-name="Rectangle 199" width="54.632" height="2.541" transform="translate(310.034 337.663) rotate(20.866)" fill="#3f3d56"/>
    <rect id="Rectangle_200" data-name="Rectangle 200" width="54.632" height="2.541" transform="translate(306.413 347.161) rotate(20.866)" fill="#3f3d56"/>
    <rect id="Rectangle_201" data-name="Rectangle 201" width="54.632" height="2.541" transform="translate(302.792 356.658) rotate(20.866)" fill="#3f3d56"/>
    <path id="Path_759" data-name="Path 759" d="M755.577,376.678,623.721,329.321,650.307,255.3l55.682,52.209,76.175-4.851Z" transform="translate(-371.221 45.766)" fill="#3f3d56"/>
    <path id="Path_760" data-name="Path 760" d="M688.188,366.5l-65.746-23.614,16.02-44.605,1.307.469-15.55,43.3,64.439,23.144Z" transform="translate(-370.83 32.623)" fill="#fc0"/>
    <rect id="Rectangle_202" data-name="Rectangle 202" width="20.483" height="8.193" transform="translate(274.711 344.759) rotate(19.756)" fill="#fc0"/>
    <path id="Path_761" data-name="Path 761" d="M324.064,616.567l-103.2-.055.81-57.936,51.287,23.051,51.912-21.608Z" transform="translate(-67.537 -111.534)" fill="#3f3d56"/>
    <rect id="Rectangle_203" data-name="Rectangle 203" width="15.089" height="6.036" transform="translate(161.545 478.532) rotate(0.801)" fill="#fc0"/>
    <path id="Path_762" data-name="Path 762" d="M325.457,559.865l-52.163,26.593-51.652-26.593v-1.534H325.457Z" transform="translate(-67.775 -111.46)" fill="#fc0"/>
    <ellipse id="Ellipse_52" data-name="Ellipse 52" cx="6.269" cy="17.355" rx="6.269" ry="17.355" transform="translate(342.392 287.176) rotate(-69.134)" fill="#fc0"/>
    <path id="Path_763" data-name="Path 763" d="M952.139,211.912a26.38,26.38,0,0,0-33.023,17.358c-4.326,13.912,7.464,64.843,7.464,64.843s38.591-35.265,42.917-49.177A26.38,26.38,0,0,0,952.139,211.912ZM940.6,249.034a12.5,12.5,0,1,1,15.643-8.222A12.5,12.5,0,0,1,940.6,249.034Z" transform="translate(-560.904 -16.886)" fill="#fc0"/>
  </g>
</svg>
