<svg xmlns="http://www.w3.org/2000/svg" width="357" height="328" viewBox="0 0 357 328">
  <g id="Group_112" data-name="Group 112" transform="translate(-460 -4746)">
    <circle id="Ellipse_18" data-name="Ellipse 18" cx="4.5" cy="4.5" r="4.5" transform="translate(460 4746)" fill="#d9d9d9"/>
    <circle id="Ellipse_18-2" data-name="Ellipse 18" cx="4.5" cy="4.5" r="4.5" transform="translate(489 4746)" fill="#d9d9d9"/>
    <circle id="Ellipse_18-3" data-name="Ellipse 18" cx="4.5" cy="4.5" r="4.5" transform="translate(518 4746)" fill="#d9d9d9"/>
    <circle id="Ellipse_18-4" data-name="Ellipse 18" cx="4.5" cy="4.5" r="4.5" transform="translate(547 4746)" fill="#d9d9d9"/>
    <circle id="Ellipse_18-5" data-name="Ellipse 18" cx="4.5" cy="4.5" r="4.5" transform="translate(576 4746)" fill="#d9d9d9"/>
    <circle id="Ellipse_18-6" data-name="Ellipse 18" cx="4.5" cy="4.5" r="4.5" transform="translate(605 4746)" fill="#d9d9d9"/>
    <circle id="Ellipse_18-7" data-name="Ellipse 18" cx="4.5" cy="4.5" r="4.5" transform="translate(634 4746)" fill="#d9d9d9"/>
    <circle id="Ellipse_18-8" data-name="Ellipse 18" cx="4.5" cy="4.5" r="4.5" transform="translate(663 4746)" fill="#d9d9d9"/>
    <circle id="Ellipse_18-9" data-name="Ellipse 18" cx="4.5" cy="4.5" r="4.5" transform="translate(692 4746)" fill="#d9d9d9"/>
    <circle id="Ellipse_18-10" data-name="Ellipse 18" cx="4.5" cy="4.5" r="4.5" transform="translate(721 4746)" fill="#d9d9d9"/>
    <circle id="Ellipse_18-11" data-name="Ellipse 18" cx="4.5" cy="4.5" r="4.5" transform="translate(750 4746)" fill="#d9d9d9"/>
    <circle id="Ellipse_18-12" data-name="Ellipse 18" cx="4.5" cy="4.5" r="4.5" transform="translate(779 4746)" fill="#d9d9d9"/>
    <circle id="Ellipse_18-13" data-name="Ellipse 18" cx="4.5" cy="4.5" r="4.5" transform="translate(808 4746)" fill="#d9d9d9"/>
    <circle id="Ellipse_18-14" data-name="Ellipse 18" cx="4.5" cy="4.5" r="4.5" transform="translate(460 4775)" fill="#d9d9d9"/>
    <circle id="Ellipse_18-15" data-name="Ellipse 18" cx="4.5" cy="4.5" r="4.5" transform="translate(489 4775)" fill="#d9d9d9"/>
    <circle id="Ellipse_18-16" data-name="Ellipse 18" cx="4.5" cy="4.5" r="4.5" transform="translate(518 4775)" fill="#d9d9d9"/>
    <circle id="Ellipse_18-17" data-name="Ellipse 18" cx="4.5" cy="4.5" r="4.5" transform="translate(547 4775)" fill="#d9d9d9"/>
    <circle id="Ellipse_18-18" data-name="Ellipse 18" cx="4.5" cy="4.5" r="4.5" transform="translate(576 4775)" fill="#d9d9d9"/>
    <circle id="Ellipse_18-19" data-name="Ellipse 18" cx="4.5" cy="4.5" r="4.5" transform="translate(605 4775)" fill="#d9d9d9"/>
    <circle id="Ellipse_18-20" data-name="Ellipse 18" cx="4.5" cy="4.5" r="4.5" transform="translate(634 4775)" fill="#d9d9d9"/>
    <circle id="Ellipse_18-21" data-name="Ellipse 18" cx="4.5" cy="4.5" r="4.5" transform="translate(663 4775)" fill="#d9d9d9"/>
    <circle id="Ellipse_18-22" data-name="Ellipse 18" cx="4.5" cy="4.5" r="4.5" transform="translate(692 4775)" fill="#d9d9d9"/>
    <circle id="Ellipse_18-23" data-name="Ellipse 18" cx="4.5" cy="4.5" r="4.5" transform="translate(721 4775)" fill="#d9d9d9"/>
    <circle id="Ellipse_18-24" data-name="Ellipse 18" cx="4.5" cy="4.5" r="4.5" transform="translate(750 4775)" fill="#d9d9d9"/>
    <circle id="Ellipse_18-25" data-name="Ellipse 18" cx="4.5" cy="4.5" r="4.5" transform="translate(779 4775)" fill="#d9d9d9"/>
    <circle id="Ellipse_18-26" data-name="Ellipse 18" cx="4.5" cy="4.5" r="4.5" transform="translate(808 4775)" fill="#d9d9d9"/>
    <circle id="Ellipse_18-27" data-name="Ellipse 18" cx="4.5" cy="4.5" r="4.5" transform="translate(460 4804)" fill="#d9d9d9"/>
    <circle id="Ellipse_18-28" data-name="Ellipse 18" cx="4.5" cy="4.5" r="4.5" transform="translate(489 4804)" fill="#d9d9d9"/>
    <circle id="Ellipse_18-29" data-name="Ellipse 18" cx="4.5" cy="4.5" r="4.5" transform="translate(518 4804)" fill="#d9d9d9"/>
    <circle id="Ellipse_18-30" data-name="Ellipse 18" cx="4.5" cy="4.5" r="4.5" transform="translate(547 4804)" fill="#d9d9d9"/>
    <circle id="Ellipse_18-31" data-name="Ellipse 18" cx="4.5" cy="4.5" r="4.5" transform="translate(576 4804)" fill="#d9d9d9"/>
    <circle id="Ellipse_18-32" data-name="Ellipse 18" cx="4.5" cy="4.5" r="4.5" transform="translate(605 4804)" fill="#d9d9d9"/>
    <circle id="Ellipse_18-33" data-name="Ellipse 18" cx="4.5" cy="4.5" r="4.5" transform="translate(634 4804)" fill="#d9d9d9"/>
    <circle id="Ellipse_18-34" data-name="Ellipse 18" cx="4.5" cy="4.5" r="4.5" transform="translate(663 4804)" fill="#d9d9d9"/>
    <circle id="Ellipse_18-35" data-name="Ellipse 18" cx="4.5" cy="4.5" r="4.5" transform="translate(692 4804)" fill="#d9d9d9"/>
    <circle id="Ellipse_18-36" data-name="Ellipse 18" cx="4.5" cy="4.5" r="4.5" transform="translate(721 4804)" fill="#d9d9d9"/>
    <circle id="Ellipse_18-37" data-name="Ellipse 18" cx="4.5" cy="4.5" r="4.5" transform="translate(750 4804)" fill="#d9d9d9"/>
    <circle id="Ellipse_18-38" data-name="Ellipse 18" cx="4.5" cy="4.5" r="4.5" transform="translate(779 4804)" fill="#d9d9d9"/>
    <circle id="Ellipse_18-39" data-name="Ellipse 18" cx="4.5" cy="4.5" r="4.5" transform="translate(808 4804)" fill="#d9d9d9"/>
    <circle id="Ellipse_18-40" data-name="Ellipse 18" cx="4.5" cy="4.5" r="4.5" transform="translate(460 4833)" fill="#d9d9d9"/>
    <circle id="Ellipse_18-41" data-name="Ellipse 18" cx="4.5" cy="4.5" r="4.5" transform="translate(489 4833)" fill="#d9d9d9"/>
    <circle id="Ellipse_18-42" data-name="Ellipse 18" cx="4.5" cy="4.5" r="4.5" transform="translate(518 4833)" fill="#d9d9d9"/>
    <circle id="Ellipse_18-43" data-name="Ellipse 18" cx="4.5" cy="4.5" r="4.5" transform="translate(547 4833)" fill="#d9d9d9"/>
    <circle id="Ellipse_18-44" data-name="Ellipse 18" cx="4.5" cy="4.5" r="4.5" transform="translate(576 4833)" fill="#d9d9d9"/>
    <circle id="Ellipse_18-45" data-name="Ellipse 18" cx="4.5" cy="4.5" r="4.5" transform="translate(605 4833)" fill="#d9d9d9"/>
    <circle id="Ellipse_18-46" data-name="Ellipse 18" cx="4.5" cy="4.5" r="4.5" transform="translate(634 4833)" fill="#d9d9d9"/>
    <circle id="Ellipse_18-47" data-name="Ellipse 18" cx="4.5" cy="4.5" r="4.5" transform="translate(663 4833)" fill="#d9d9d9"/>
    <circle id="Ellipse_18-48" data-name="Ellipse 18" cx="4.5" cy="4.5" r="4.5" transform="translate(692 4833)" fill="#d9d9d9"/>
    <circle id="Ellipse_18-49" data-name="Ellipse 18" cx="4.5" cy="4.5" r="4.5" transform="translate(721 4833)" fill="#d9d9d9"/>
    <circle id="Ellipse_18-50" data-name="Ellipse 18" cx="4.5" cy="4.5" r="4.5" transform="translate(750 4833)" fill="#d9d9d9"/>
    <circle id="Ellipse_18-51" data-name="Ellipse 18" cx="4.5" cy="4.5" r="4.5" transform="translate(779 4833)" fill="#d9d9d9"/>
    <circle id="Ellipse_18-52" data-name="Ellipse 18" cx="4.5" cy="4.5" r="4.5" transform="translate(808 4833)" fill="#d9d9d9"/>
    <circle id="Ellipse_18-53" data-name="Ellipse 18" cx="4.5" cy="4.5" r="4.5" transform="translate(460 4862)" fill="#d9d9d9"/>
    <circle id="Ellipse_18-54" data-name="Ellipse 18" cx="4.5" cy="4.5" r="4.5" transform="translate(489 4862)" fill="#d9d9d9"/>
    <circle id="Ellipse_18-55" data-name="Ellipse 18" cx="4.5" cy="4.5" r="4.5" transform="translate(518 4862)" fill="#d9d9d9"/>
    <circle id="Ellipse_18-56" data-name="Ellipse 18" cx="4.5" cy="4.5" r="4.5" transform="translate(547 4862)" fill="#d9d9d9"/>
    <circle id="Ellipse_18-57" data-name="Ellipse 18" cx="4.5" cy="4.5" r="4.5" transform="translate(576 4862)" fill="#d9d9d9"/>
    <circle id="Ellipse_18-58" data-name="Ellipse 18" cx="4.5" cy="4.5" r="4.5" transform="translate(605 4862)" fill="#d9d9d9"/>
    <circle id="Ellipse_18-59" data-name="Ellipse 18" cx="4.5" cy="4.5" r="4.5" transform="translate(634 4862)" fill="#d9d9d9"/>
    <circle id="Ellipse_18-60" data-name="Ellipse 18" cx="4.5" cy="4.5" r="4.5" transform="translate(663 4862)" fill="#d9d9d9"/>
    <circle id="Ellipse_18-61" data-name="Ellipse 18" cx="4.5" cy="4.5" r="4.5" transform="translate(692 4862)" fill="#d9d9d9"/>
    <circle id="Ellipse_18-62" data-name="Ellipse 18" cx="4.5" cy="4.5" r="4.5" transform="translate(721 4862)" fill="#d9d9d9"/>
    <circle id="Ellipse_18-63" data-name="Ellipse 18" cx="4.5" cy="4.5" r="4.5" transform="translate(750 4862)" fill="#d9d9d9"/>
    <circle id="Ellipse_18-64" data-name="Ellipse 18" cx="4.5" cy="4.5" r="4.5" transform="translate(779 4862)" fill="#d9d9d9"/>
    <circle id="Ellipse_18-65" data-name="Ellipse 18" cx="4.5" cy="4.5" r="4.5" transform="translate(808 4862)" fill="#d9d9d9"/>
    <circle id="Ellipse_18-66" data-name="Ellipse 18" cx="4.5" cy="4.5" r="4.5" transform="translate(460 4891)" fill="#d9d9d9"/>
    <circle id="Ellipse_18-67" data-name="Ellipse 18" cx="4.5" cy="4.5" r="4.5" transform="translate(489 4891)" fill="#d9d9d9"/>
    <circle id="Ellipse_18-68" data-name="Ellipse 18" cx="4.5" cy="4.5" r="4.5" transform="translate(518 4891)" fill="#d9d9d9"/>
    <circle id="Ellipse_18-69" data-name="Ellipse 18" cx="4.5" cy="4.5" r="4.5" transform="translate(547 4891)" fill="#d9d9d9"/>
    <circle id="Ellipse_18-70" data-name="Ellipse 18" cx="4.5" cy="4.5" r="4.5" transform="translate(576 4891)" fill="#d9d9d9"/>
    <circle id="Ellipse_18-71" data-name="Ellipse 18" cx="4.5" cy="4.5" r="4.5" transform="translate(605 4891)" fill="#d9d9d9"/>
    <circle id="Ellipse_18-72" data-name="Ellipse 18" cx="4.5" cy="4.5" r="4.5" transform="translate(634 4891)" fill="#d9d9d9"/>
    <circle id="Ellipse_18-73" data-name="Ellipse 18" cx="4.5" cy="4.5" r="4.5" transform="translate(663 4891)" fill="#d9d9d9"/>
    <circle id="Ellipse_18-74" data-name="Ellipse 18" cx="4.5" cy="4.5" r="4.5" transform="translate(692 4891)" fill="#d9d9d9"/>
    <circle id="Ellipse_18-75" data-name="Ellipse 18" cx="4.5" cy="4.5" r="4.5" transform="translate(721 4891)" fill="#d9d9d9"/>
    <circle id="Ellipse_18-76" data-name="Ellipse 18" cx="4.5" cy="4.5" r="4.5" transform="translate(750 4891)" fill="#d9d9d9"/>
    <circle id="Ellipse_18-77" data-name="Ellipse 18" cx="4.5" cy="4.5" r="4.5" transform="translate(779 4891)" fill="#d9d9d9"/>
    <circle id="Ellipse_18-78" data-name="Ellipse 18" cx="4.5" cy="4.5" r="4.5" transform="translate(808 4891)" fill="#d9d9d9"/>
    <circle id="Ellipse_18-79" data-name="Ellipse 18" cx="4.5" cy="4.5" r="4.5" transform="translate(460 4920)" fill="#d9d9d9"/>
    <circle id="Ellipse_18-80" data-name="Ellipse 18" cx="4.5" cy="4.5" r="4.5" transform="translate(489 4920)" fill="#d9d9d9"/>
    <circle id="Ellipse_18-81" data-name="Ellipse 18" cx="4.5" cy="4.5" r="4.5" transform="translate(518 4920)" fill="#d9d9d9"/>
    <circle id="Ellipse_18-82" data-name="Ellipse 18" cx="4.5" cy="4.5" r="4.5" transform="translate(547 4920)" fill="#d9d9d9"/>
    <circle id="Ellipse_18-83" data-name="Ellipse 18" cx="4.5" cy="4.5" r="4.5" transform="translate(576 4920)" fill="#d9d9d9"/>
    <circle id="Ellipse_18-84" data-name="Ellipse 18" cx="4.5" cy="4.5" r="4.5" transform="translate(605 4920)" fill="#d9d9d9"/>
    <circle id="Ellipse_18-85" data-name="Ellipse 18" cx="4.5" cy="4.5" r="4.5" transform="translate(634 4920)" fill="#d9d9d9"/>
    <circle id="Ellipse_18-86" data-name="Ellipse 18" cx="4.5" cy="4.5" r="4.5" transform="translate(663 4920)" fill="#d9d9d9"/>
    <circle id="Ellipse_18-87" data-name="Ellipse 18" cx="4.5" cy="4.5" r="4.5" transform="translate(692 4920)" fill="#d9d9d9"/>
    <circle id="Ellipse_18-88" data-name="Ellipse 18" cx="4.5" cy="4.5" r="4.5" transform="translate(721 4920)" fill="#d9d9d9"/>
    <circle id="Ellipse_18-89" data-name="Ellipse 18" cx="4.5" cy="4.5" r="4.5" transform="translate(750 4920)" fill="#d9d9d9"/>
    <circle id="Ellipse_18-90" data-name="Ellipse 18" cx="4.5" cy="4.5" r="4.5" transform="translate(779 4920)" fill="#d9d9d9"/>
    <circle id="Ellipse_18-91" data-name="Ellipse 18" cx="4.5" cy="4.5" r="4.5" transform="translate(808 4920)" fill="#d9d9d9"/>
    <circle id="Ellipse_18-92" data-name="Ellipse 18" cx="4.5" cy="4.5" r="4.5" transform="translate(460 4949)" fill="#d9d9d9"/>
    <circle id="Ellipse_18-93" data-name="Ellipse 18" cx="4.5" cy="4.5" r="4.5" transform="translate(489 4949)" fill="#d9d9d9"/>
    <circle id="Ellipse_18-94" data-name="Ellipse 18" cx="4.5" cy="4.5" r="4.5" transform="translate(518 4949)" fill="#d9d9d9"/>
    <circle id="Ellipse_18-95" data-name="Ellipse 18" cx="4.5" cy="4.5" r="4.5" transform="translate(547 4949)" fill="#d9d9d9"/>
    <circle id="Ellipse_18-96" data-name="Ellipse 18" cx="4.5" cy="4.5" r="4.5" transform="translate(576 4949)" fill="#d9d9d9"/>
    <circle id="Ellipse_18-97" data-name="Ellipse 18" cx="4.5" cy="4.5" r="4.5" transform="translate(605 4949)" fill="#d9d9d9"/>
    <circle id="Ellipse_18-98" data-name="Ellipse 18" cx="4.5" cy="4.5" r="4.5" transform="translate(634 4949)" fill="#d9d9d9"/>
    <circle id="Ellipse_18-99" data-name="Ellipse 18" cx="4.5" cy="4.5" r="4.5" transform="translate(663 4949)" fill="#d9d9d9"/>
    <circle id="Ellipse_18-100" data-name="Ellipse 18" cx="4.5" cy="4.5" r="4.5" transform="translate(692 4949)" fill="#d9d9d9"/>
    <circle id="Ellipse_18-101" data-name="Ellipse 18" cx="4.5" cy="4.5" r="4.5" transform="translate(721 4949)" fill="#d9d9d9"/>
    <circle id="Ellipse_18-102" data-name="Ellipse 18" cx="4.5" cy="4.5" r="4.5" transform="translate(750 4949)" fill="#d9d9d9"/>
    <circle id="Ellipse_18-103" data-name="Ellipse 18" cx="4.5" cy="4.5" r="4.5" transform="translate(779 4949)" fill="#d9d9d9"/>
    <circle id="Ellipse_18-104" data-name="Ellipse 18" cx="4.5" cy="4.5" r="4.5" transform="translate(808 4949)" fill="#d9d9d9"/>
    <circle id="Ellipse_18-105" data-name="Ellipse 18" cx="4.5" cy="4.5" r="4.5" transform="translate(460 4978)" fill="#d9d9d9"/>
    <circle id="Ellipse_18-106" data-name="Ellipse 18" cx="4.5" cy="4.5" r="4.5" transform="translate(489 4978)" fill="#d9d9d9"/>
    <circle id="Ellipse_18-107" data-name="Ellipse 18" cx="4.5" cy="4.5" r="4.5" transform="translate(518 4978)" fill="#d9d9d9"/>
    <circle id="Ellipse_18-108" data-name="Ellipse 18" cx="4.5" cy="4.5" r="4.5" transform="translate(547 4978)" fill="#d9d9d9"/>
    <circle id="Ellipse_18-109" data-name="Ellipse 18" cx="4.5" cy="4.5" r="4.5" transform="translate(576 4978)" fill="#d9d9d9"/>
    <circle id="Ellipse_18-110" data-name="Ellipse 18" cx="4.5" cy="4.5" r="4.5" transform="translate(605 4978)" fill="#d9d9d9"/>
    <circle id="Ellipse_18-111" data-name="Ellipse 18" cx="4.5" cy="4.5" r="4.5" transform="translate(634 4978)" fill="#d9d9d9"/>
    <circle id="Ellipse_18-112" data-name="Ellipse 18" cx="4.5" cy="4.5" r="4.5" transform="translate(663 4978)" fill="#d9d9d9"/>
    <circle id="Ellipse_18-113" data-name="Ellipse 18" cx="4.5" cy="4.5" r="4.5" transform="translate(692 4978)" fill="#d9d9d9"/>
    <circle id="Ellipse_18-114" data-name="Ellipse 18" cx="4.5" cy="4.5" r="4.5" transform="translate(721 4978)" fill="#d9d9d9"/>
    <circle id="Ellipse_18-115" data-name="Ellipse 18" cx="4.5" cy="4.5" r="4.5" transform="translate(750 4978)" fill="#d9d9d9"/>
    <circle id="Ellipse_18-116" data-name="Ellipse 18" cx="4.5" cy="4.5" r="4.5" transform="translate(779 4978)" fill="#d9d9d9"/>
    <circle id="Ellipse_18-117" data-name="Ellipse 18" cx="4.5" cy="4.5" r="4.5" transform="translate(808 4978)" fill="#d9d9d9"/>
    <circle id="Ellipse_18-118" data-name="Ellipse 18" cx="4.5" cy="4.5" r="4.5" transform="translate(460 5007)" fill="#d9d9d9"/>
    <circle id="Ellipse_18-119" data-name="Ellipse 18" cx="4.5" cy="4.5" r="4.5" transform="translate(489 5007)" fill="#d9d9d9"/>
    <circle id="Ellipse_18-120" data-name="Ellipse 18" cx="4.5" cy="4.5" r="4.5" transform="translate(518 5007)" fill="#d9d9d9"/>
    <circle id="Ellipse_18-121" data-name="Ellipse 18" cx="4.5" cy="4.5" r="4.5" transform="translate(547 5007)" fill="#d9d9d9"/>
    <circle id="Ellipse_18-122" data-name="Ellipse 18" cx="4.5" cy="4.5" r="4.5" transform="translate(576 5007)" fill="#d9d9d9"/>
    <circle id="Ellipse_18-123" data-name="Ellipse 18" cx="4.5" cy="4.5" r="4.5" transform="translate(605 5007)" fill="#d9d9d9"/>
    <circle id="Ellipse_18-124" data-name="Ellipse 18" cx="4.5" cy="4.5" r="4.5" transform="translate(634 5007)" fill="#d9d9d9"/>
    <circle id="Ellipse_18-125" data-name="Ellipse 18" cx="4.5" cy="4.5" r="4.5" transform="translate(663 5007)" fill="#d9d9d9"/>
    <circle id="Ellipse_18-126" data-name="Ellipse 18" cx="4.5" cy="4.5" r="4.5" transform="translate(692 5007)" fill="#d9d9d9"/>
    <circle id="Ellipse_18-127" data-name="Ellipse 18" cx="4.5" cy="4.5" r="4.5" transform="translate(721 5007)" fill="#d9d9d9"/>
    <circle id="Ellipse_18-128" data-name="Ellipse 18" cx="4.5" cy="4.5" r="4.5" transform="translate(750 5007)" fill="#d9d9d9"/>
    <circle id="Ellipse_18-129" data-name="Ellipse 18" cx="4.5" cy="4.5" r="4.5" transform="translate(779 5007)" fill="#d9d9d9"/>
    <circle id="Ellipse_18-130" data-name="Ellipse 18" cx="4.5" cy="4.5" r="4.5" transform="translate(808 5007)" fill="#d9d9d9"/>
    <circle id="Ellipse_18-131" data-name="Ellipse 18" cx="4.5" cy="4.5" r="4.5" transform="translate(460 5036)" fill="#d9d9d9"/>
    <circle id="Ellipse_18-132" data-name="Ellipse 18" cx="4.5" cy="4.5" r="4.5" transform="translate(489 5036)" fill="#d9d9d9"/>
    <circle id="Ellipse_18-133" data-name="Ellipse 18" cx="4.5" cy="4.5" r="4.5" transform="translate(518 5036)" fill="#d9d9d9"/>
    <circle id="Ellipse_18-134" data-name="Ellipse 18" cx="4.5" cy="4.5" r="4.5" transform="translate(547 5036)" fill="#d9d9d9"/>
    <circle id="Ellipse_18-135" data-name="Ellipse 18" cx="4.5" cy="4.5" r="4.5" transform="translate(576 5036)" fill="#d9d9d9"/>
    <circle id="Ellipse_18-136" data-name="Ellipse 18" cx="4.5" cy="4.5" r="4.5" transform="translate(605 5036)" fill="#d9d9d9"/>
    <circle id="Ellipse_18-137" data-name="Ellipse 18" cx="4.5" cy="4.5" r="4.5" transform="translate(634 5036)" fill="#d9d9d9"/>
    <circle id="Ellipse_18-138" data-name="Ellipse 18" cx="4.5" cy="4.5" r="4.5" transform="translate(663 5036)" fill="#d9d9d9"/>
    <circle id="Ellipse_18-139" data-name="Ellipse 18" cx="4.5" cy="4.5" r="4.5" transform="translate(692 5036)" fill="#d9d9d9"/>
    <circle id="Ellipse_18-140" data-name="Ellipse 18" cx="4.5" cy="4.5" r="4.5" transform="translate(721 5036)" fill="#d9d9d9"/>
    <circle id="Ellipse_18-141" data-name="Ellipse 18" cx="4.5" cy="4.5" r="4.5" transform="translate(750 5036)" fill="#d9d9d9"/>
    <circle id="Ellipse_18-142" data-name="Ellipse 18" cx="4.5" cy="4.5" r="4.5" transform="translate(779 5036)" fill="#d9d9d9"/>
    <circle id="Ellipse_18-143" data-name="Ellipse 18" cx="4.5" cy="4.5" r="4.5" transform="translate(808 5036)" fill="#d9d9d9"/>
    <circle id="Ellipse_18-144" data-name="Ellipse 18" cx="4.5" cy="4.5" r="4.5" transform="translate(460 5065)" fill="#d9d9d9"/>
    <circle id="Ellipse_18-145" data-name="Ellipse 18" cx="4.5" cy="4.5" r="4.5" transform="translate(489 5065)" fill="#d9d9d9"/>
    <circle id="Ellipse_18-146" data-name="Ellipse 18" cx="4.5" cy="4.5" r="4.5" transform="translate(518 5065)" fill="#d9d9d9"/>
    <circle id="Ellipse_18-147" data-name="Ellipse 18" cx="4.5" cy="4.5" r="4.5" transform="translate(547 5065)" fill="#d9d9d9"/>
    <circle id="Ellipse_18-148" data-name="Ellipse 18" cx="4.5" cy="4.5" r="4.5" transform="translate(576 5065)" fill="#d9d9d9"/>
    <circle id="Ellipse_18-149" data-name="Ellipse 18" cx="4.5" cy="4.5" r="4.5" transform="translate(605 5065)" fill="#d9d9d9"/>
    <circle id="Ellipse_18-150" data-name="Ellipse 18" cx="4.5" cy="4.5" r="4.5" transform="translate(634 5065)" fill="#d9d9d9"/>
    <circle id="Ellipse_18-151" data-name="Ellipse 18" cx="4.5" cy="4.5" r="4.5" transform="translate(663 5065)" fill="#d9d9d9"/>
    <circle id="Ellipse_18-152" data-name="Ellipse 18" cx="4.5" cy="4.5" r="4.5" transform="translate(692 5065)" fill="#d9d9d9"/>
    <circle id="Ellipse_18-153" data-name="Ellipse 18" cx="4.5" cy="4.5" r="4.5" transform="translate(721 5065)" fill="#d9d9d9"/>
    <circle id="Ellipse_18-154" data-name="Ellipse 18" cx="4.5" cy="4.5" r="4.5" transform="translate(750 5065)" fill="#d9d9d9"/>
    <circle id="Ellipse_18-155" data-name="Ellipse 18" cx="4.5" cy="4.5" r="4.5" transform="translate(779 5065)" fill="#d9d9d9"/>
    <circle id="Ellipse_18-156" data-name="Ellipse 18" cx="4.5" cy="4.5" r="4.5" transform="translate(808 5065)" fill="#d9d9d9"/>
  </g>
</svg>
