<svg xmlns="http://www.w3.org/2000/svg" width="753.578" height="708.723" viewBox="0 0 753.578 708.723">
  <g id="Group_72" data-name="Group 72" transform="translate(76.235 119.416)">
    <path id="Path_612" data-name="Path 612" d="M361.221,40.9c27.047-10.053,59.973-1.407,88.092,11.2,88.313,39.615,152.651,114.815,203.769,191.428,18.508,27.741,36.088,56.7,43.046,87.672,14.167,63.033-22.783,128.287-85.625,151.155-21.37,7.784-44.848,10.976-68.362,12.754-41.812,3.167-85.1,1.91-126.581-9.82-29.579-8.383-57.56-21.867-84.4-36.765-74.949-41.627-143.394-95.684-192.68-161.717-21.616-28.963-39.9-61.614-40.429-95.031s21.25-67,57.081-72.679c14.814-2.347,30.484.1,45.77,2.611,22.508,3.706,45.321,7.6,67.572,5.988,22.987-1.683,52.884-10.664,57.075-32.609C329.989,71.53,334.21,50.944,361.221,40.9Z" transform="matrix(0.848, -0.53, 0.53, 0.848, -178.726, 220.116)" fill="#fc0" opacity="0.1"/>
    <path id="Path_613" data-name="Path 613" d="M341.866,800.407s38.026-2.293,33.543,24.355c0,0,.89,4.728-3.38,6.847,0,0-.063-1.978-3.9-1.308a17.179,17.179,0,0,1-4.129.2,8.612,8.612,0,0,1-5.051-2.088h0s-10.692-4.412-14.845-21.889c0,0-3.081-3.806-2.955-4.791l6.414,2.742s-2.191,4.633-.465,8.478c0,0,.2-8.3,1.442-8.116.244.039,3.333,1.576,3.333,1.576s-3.774,8.061-.93,13.923c0,0-1.079-9.936,2.1-13.34l4.523,2.64s-4.413,8.329-1.418,15.121c0,0-.788-10.424,2.364-14.482l4.1,3.152s-4.145,8.21-1.615,13.852c0,0,.323-12.142,2.5-13.056,0,0,3.585,3.152,4.129,4.46,0,0-2.837,5.957-1.079,9.1,0,0,1.079-8.084,1.97-8.124,0,0,3.561,5.358,3.94,9.03a19.5,19.5,0,0,0-3.081-9.542,10.757,10.757,0,0,1,5.468,2.829s-.559-3.79-6.343-4.121c0,0-2.947-4.058-3.743-4.31,0,0,5.76-.481,9.251,1.072,0,0-3.073-3.577-10.306-1.954l-4.042-3.293s7.588-1.04,10.795.11c0,0-3.7-3.152-11.882-.859l-4.4-2.632s6.461-1.395,10.314-.89c0,0-4.066-2.191-11.606.181l-3.152-1.411s4.728-.93,6.122-1.079,1.458-.528,1.458-.528a16.4,16.4,0,0,0-8.9.985S341.748,800.864,341.866,800.407Z" transform="translate(-313.502 -384.24)" fill="#fc0"/>
    <ellipse id="Ellipse_25" data-name="Ellipse 25" cx="26.916" cy="4.546" rx="26.916" ry="4.546" transform="translate(27.639 445.147)" fill="#fc0" opacity="0.1"/>
    <path id="Path_614" data-name="Path 614" d="M277.3,777.662s21.44-1.292,18.911,13.734a3.648,3.648,0,0,1-1.9,3.861s-.039-1.111-2.2-.733a9.559,9.559,0,0,1-2.324.11,4.774,4.774,0,0,1-2.852-1.174h0s-6.02-2.5-8.384-12.347c0,0-1.734-2.151-1.67-2.7l3.625,1.576s-1.237,2.616-.268,4.783c0,0,.118-4.688.788-4.578.142,0,1.883.906,1.883.906s-2.127,4.547-.52,7.879c0,0-.615-5.6,1.182-7.525l2.545,1.489s-2.482,4.728-.788,8.526c0,0-.433-5.878,1.332-8.163l2.309,1.8s-2.364,4.625-.906,7.808c0,0,.181-6.847,1.41-7.359a14.04,14.04,0,0,1,2.324,2.514s-1.576,3.357-.607,5.13c0,0,.607-4.554,1.111-4.578,0,0,2.009,3.018,2.214,5.09a11.031,11.031,0,0,0-1.733-5.382,6.012,6.012,0,0,1,3.081,1.576s-.307-2.135-3.577-2.324a13.931,13.931,0,0,0-2.1-2.427,13.177,13.177,0,0,1,5.216.6s-1.733-2.017-5.815-1.1l-2.277-1.859s4.279-.583,6.091.063c0,0-2.088-1.781-6.705-.481l-2.474-1.489a22.511,22.511,0,0,1,5.807-.5s-2.285-1.237-6.54.1l-1.773-.788s2.671-.528,3.451-.607.827-.3.827-.3a9.291,9.291,0,0,0-5.019.559S277.234,777.922,277.3,777.662Z" transform="translate(-299.874 -379.422)" fill="#fc0"/>
    <path id="Path_667" data-name="Path 667" d="M277.413,777.67s27.351-1.648,24.124,17.52a4.654,4.654,0,0,1-2.422,4.925s-.05-1.417-2.8-.935a12.194,12.194,0,0,1-2.965.141,6.091,6.091,0,0,1-3.639-1.5h0s-7.679-3.187-10.695-15.751c0,0-2.211-2.744-2.131-3.448l4.624,2.01s-1.578,3.337-.342,6.1c0,0,.151-5.981,1.005-5.84.181,0,2.4,1.156,2.4,1.156s-2.714,5.8-.664,10.052c0,0-.784-7.147,1.508-9.6l3.247,1.9s-3.166,6.031-1.005,10.876c0,0-.553-7.5,1.7-10.413l2.945,2.292s-3.015,5.9-1.156,9.961c0,0,.231-8.735,1.8-9.388,0,0,2.573,2.272,2.965,3.207,0,0-2.01,4.282-.774,6.544,0,0,.774-5.81,1.417-5.84,0,0,2.563,3.85,2.825,6.493a14.072,14.072,0,0,0-2.211-6.865,7.669,7.669,0,0,1,3.93,2.01s-.392-2.724-4.563-2.965c0,0-2.121-2.925-2.684-3.1,0,0,4.141-.352,6.654.764,0,0-2.211-2.573-7.418-1.407l-2.9-2.372s5.458-.744,7.77.08c0,0-2.664-2.272-8.554-.613l-3.156-1.9a28.714,28.714,0,0,1,7.408-.633s-2.915-1.578-8.343.13l-2.262-1.005s3.408-.674,4.4-.774,1.055-.382,1.055-.382a11.851,11.851,0,0,0-6.4.714S277.332,778,277.413,777.67Z" transform="translate(-97.874 -350.422)" fill="#fc0"/>
    <ellipse id="Ellipse_26" data-name="Ellipse 26" cx="11.532" cy="1.952" rx="11.532" ry="1.952" transform="translate(188.092 448.092)" fill="#fc0" opacity="0.1"/>
    <path id="Path_615" data-name="Path 615" d="M946.644,795.987s23.294-1.418,20.564,14.891a4,4,0,0,1-2.07,4.2s-.043-1.213-2.39-.8a10.5,10.5,0,0,1-2.531.121,5.211,5.211,0,0,1-3.092-1.276h0s-6.552-2.7-9.1-13.409c0,0-1.886-2.333-1.808-2.929l3.928,1.673s-1.34,2.836-.284,5.2c0,0,.128-5.091.879-4.964.156,0,2.042.979,2.042.979s-2.312,4.964-.567,8.509c0,0-.66-6.084,1.29-8.169l2.766,1.61s-2.7,5.106-.865,9.268c0,0-.475-6.382,1.418-8.871l2.51,1.957s-2.539,5.028-.993,8.509c0,0,.206-7.431,1.539-8a15.288,15.288,0,0,1,2.524,2.73s-1.737,3.652-.659,5.581c0,0,.659-4.964,1.205-4.964,0,0,2.184,3.283,2.411,5.531a11.921,11.921,0,0,0-1.879-5.843,6.587,6.587,0,0,1,3.347,1.73s-.34-2.319-3.893-2.524c0,0-1.8-2.489-2.283-2.638,0,0,3.546-.3,5.673.652,0,0-1.886-2.184-6.318-1.191l-2.475-2.021s4.644-.638,6.616.064c0,0-2.269-1.936-7.282-.525l-2.695-1.61a24.547,24.547,0,0,1,6.318-.546s-2.489-1.34-7.091.113l-1.929-.865s2.9-.574,3.751-.659.893-.326.893-.326a10.068,10.068,0,0,0-5.446.6S946.574,796.257,946.644,795.987Z" transform="translate(-384.346 -398.956)" fill="#fc0"/>
    <ellipse id="Ellipse_27" data-name="Ellipse 27" cx="16.486" cy="2.787" rx="16.486" ry="2.787" transform="translate(561.852 414.787)" fill="#fc0" opacity="0.1"/>
    <path id="Path_661" data-name="Path 661" d="M646.1,248.107H608.915V211.462H646.13Zm-.538-55.252H609.453c0-56.946,54.128-53.618,54.128-89.644A35.9,35.9,0,0,0,627.5,67.47c-19.844,0-36.08,17.14-36.08,36.306H555.33A72.042,72.042,0,0,1,627.5,31.61c39.86,0,72.166,31.8,72.166,71.6,0,45.048-54.123,50.177-54.123,89.644Z" transform="translate(-295.885 97.893)" fill="#fc0"/>
    <path id="Path_662" data-name="Path 662" d="M361.735,372.274H351.052v-10.55h10.682Zm-.162-15.867H351.214c0-16.347,15.538-15.394,15.538-25.747a10.311,10.311,0,0,0-10.359-10.269,10.58,10.58,0,0,0-10.335,10.419H335.7a20.722,20.722,0,1,1,41.444-.162c-.033,12.934-15.571,14.407-15.571,25.735Z" transform="translate(159.607 -130.346)" fill="#fc0" opacity="0.1"/>
    <path id="Path_663" data-name="Path 663" d="M496.782,494.7H486.1V484.18h10.682Zm-.156-15.862H486.268c0-16.353,15.538-15.394,15.538-25.747a10.3,10.3,0,0,0-10.359-10.263,10.58,10.58,0,0,0-10.389,10.431H470.7a20.722,20.722,0,1,1,41.444-.162C512.159,466.031,496.627,467.51,496.627,478.839Z" transform="translate(-320.559 -117.476)" fill="#fc0" opacity="0.1"/>
    <path id="Path_664" data-name="Path 664" d="M583.745,289.482H576v-7.61h7.742Zm-.114-11.5h-7.509c0-11.844,11.263-11.155,11.263-18.652a7.473,7.473,0,0,0-7.509-7.437,7.664,7.664,0,0,0-7.509,7.557H564.86a15.017,15.017,0,1,1,30.034-.12C594.882,268.7,583.631,269.77,583.631,277.979Z" transform="translate(-327.851 -182.074)" fill="#fc0" opacity="0.1"/>
    <path id="Path_665" data-name="Path 665" d="M810.07,320.721h-4.377V316.41h4.377Zm-.066-6.5h-4.269c0-6.694,6.365-6.305,6.365-10.544a4.191,4.191,0,0,0-4.239-4.191,4.335,4.335,0,0,0-4.245,4.269H799.37a8.491,8.491,0,0,1,16.975-.066C816.369,308.955,810,309.584,810,314.225Z" transform="translate(-665.935 -97.529)" fill="#fc0" opacity="0.1"/>
    <path id="Path_666" data-name="Path 666" d="M921.846,648.192h-4.377v-4.311h4.377Zm-.066-6.5h-4.245c0-6.7,6.371-6.305,6.371-10.544a4.221,4.221,0,0,0-4.245-4.191,4.329,4.329,0,0,0-4.245,4.269H911.17a8.491,8.491,0,0,1,16.975-.066c.024,5.287-6.341,5.892-6.341,10.532Z" transform="translate(-437.287 -285.899)" fill="#fc0" opacity="0.1"/>
  </g>
</svg>
