<svg xmlns="http://www.w3.org/2000/svg" width="213.933" height="202.985" viewBox="0 0 213.933 202.985">
  <g id="Group_137" data-name="Group 137" transform="translate(-1451 -2590)">
    <g id="Group_136" data-name="Group 136" transform="translate(-6 1048)">
      <g id="freepik--background-simple--inject-1--inject-130" transform="translate(1457 1542)">
        <path id="Path_699" data-name="Path 699" d="M239.926,98.318q-4.978-2.132-10.076-3.926c-23.667-8.262-51.962-3.562-72.7,10.116-10.97,7.236-18.609,16.921-24.3,28.685-5.786,11.963-9.811,24.866-18.093,35.458-8.1,10.374-19.457,18.576-24.025,31.347-9.93,27.9,7.057,65.99,38.874,68.632,22.449,1.867,30.764,14.6,54.286,21.033s46.719,5.667,73.59-13.532c10.851-7.746,20.357-17.954,24.495-30.857,3.727-11.612.285-23.74.808-35.6.662-14.631,10.877-25.594,16.345-38.516,8.116-19.166-3.224-36.021-18.067-47.924A179.9,179.9,0,0,0,239.926,98.318Z" transform="translate(-87.897 -90.303)" fill="#fadee1"/>
        <path id="Path_700" data-name="Path 700" d="M239.926,98.318q-4.978-2.132-10.076-3.926c-23.667-8.262-51.962-3.562-72.7,10.116-10.97,7.236-18.609,16.921-24.3,28.685-5.786,11.963-9.811,24.866-18.093,35.458-8.1,10.374-19.457,18.576-24.025,31.347-9.93,27.9,7.057,65.99,38.874,68.632,22.449,1.867,30.764,14.6,54.286,21.033s46.719,5.667,73.59-13.532c10.851-7.746,20.357-17.954,24.495-30.857,3.727-11.612.285-23.74.808-35.6.662-14.631,10.877-25.594,16.345-38.516,8.116-19.166-3.224-36.021-18.067-47.924A179.9,179.9,0,0,0,239.926,98.318Z" transform="translate(-87.897 -90.303)" fill="#fadee1" opacity="0.7"/>
      </g>
    </g>
    <g id="airplane-around-earth" transform="translate(1480.978 2601.638)">
      <path id="Path_938" data-name="Path 938" d="M120.352,14.5A70.745,70.745,0,0,0,50.481,96.373a20.688,20.688,0,0,1,8.278-1.736c.1,0,.2.025.327.025A62.078,62.078,0,0,1,65.5,56.468c-.025,11.121,5.913,20.38,8.706,23.173,9.083,9.083,22.267,6.215,23.978,13.813,1.157,5.158-3.447,6.844-6.29,9.184l6.793,1.786a136.412,136.412,0,0,1,20.43-6.366c-3.749-1.887-7.523-3.095-9.989-4.453-6.768-3.724-5.133-12.656-6.567-16.933-2.063-6.039-9.033,1.686-12.731-1.812-6.139-5.787,1.082-13.964,6.215-13.788,10.844.352,14.165,10.895,18.166,10.542,3.9-.352,6.441-5.787,7.1-8.68,1.459-6.29-2.415-3.472-4-6.743-2.415-5.032,10.542-9.813,12.253-13.184,3.321-6.491-16.43-8.278-17.034-15.222-.252-2.843,5.183-4.2,11.373-4.453a61.273,61.273,0,0,1,19.7,4.428c5.913,4.252,9.486,11.373,10.165,19.3.579,6.995-6.995,13.26-14.694,15.574-5.435,1.635-9.611,8.831-7.1,14.694,1.711,4.026,13.713,3.271,12.706,11.876-.855,7.07,8.4,8.932,11.675,8.6,3.271-.377,8.3,5.41,5.787,7.951-2.541,2.541-7.3,2.642-6.567,9.209.2,1.887,5.988,1.661,5.988,4.529,0,2.919-2.994,6.24-.7,9.586a8.94,8.94,0,0,0,1.535,1.736,61.743,61.743,0,0,1-31.552,15.524c.277,2.264.478,4,.478,4a15.689,15.689,0,0,1-.176,4.856A70.764,70.764,0,0,0,120.352,14.5Z" transform="translate(-37.104)" fill="#1637f2"/>
      <path id="Path_939" data-name="Path 939" d="M266.3,518.968l-1.862.855a2.894,2.894,0,0,1-3.372-.7l-13.838-15.7a1.448,1.448,0,0,1,.6-2.315l19.751-6.944a1.45,1.45,0,0,1,1.912,1.183l1.736,14.794A8.64,8.64,0,0,1,266.3,518.968Z" transform="translate(-184.739 -358.914)" fill="#f25c69"/>
      <path id="Path_940" data-name="Path 940" d="M107.6,373.648c0,18.619-89.723,39.15-96.516,39.15-3.8,0-8.127-.881-8.127-4.4,0-1.183,1.359-2.868,3.724-4.906l-6.29-11.2a2.868,2.868,0,0,1,1.434-4.076l1.082-.428a7.148,7.148,0,0,1,6.039.327l11.423,6.064c4.453-2.642,9.511-5.41,14.82-8.127L12.924,371.585a2.892,2.892,0,0,1,.025-4.856l1.812-1.132a12.963,12.963,0,0,1,10.19-1.56l37.062,9.788c11.549-4.579,22.016-7.724,28.18-7.724q2.491,0,4.906.151l-11.2,5.057-.277,3.774,17.285-7.951C105.062,368.113,107.6,369.975,107.6,373.648Z" transform="translate(0 -261.273)" fill="#f25c69"/>
    </g>
  </g>
</svg>
