<svg xmlns="http://www.w3.org/2000/svg" width="84" height="70.563" viewBox="0 0 84 70.563">
    <g id="Group_110" data-name="Group 110" transform="translate(-367 -385.918)">
        <path id="Path_814" data-name="Path 814"
              d="M449.489,402.179l-38.725-15.856a5.33,5.33,0,0,0-4.105.012l-38.067,15.838A2.648,2.648,0,0,0,367,404.691v5.677a2.645,2.645,0,0,0,2.595,2.758h2.044a.747.747,0,0,1,.78.649v36.117c0,3.387,2.646,6.589,6.034,6.589h2.095V422.61h56.9v33.871h2.333c3.387,0,5.8-3.2,5.8-6.589V413.775c0-.377.642-.649,1.019-.649h2.044c1.505,0,2.356-1.253,2.356-2.758V404.7A2.568,2.568,0,0,0,449.489,402.179ZM394.1,413.126H380.548v-6.774H394.1Zm21.677,0H402.226v-6.774h13.548Zm8.129,0v-6.774h13.548v6.774Z"
              fill="#eee"/>
        <path id="Path_815" data-name="Path 815"
              d="M392.82,427.608h-3.879v5.352H387.13v-5.352h-3.9a2.554,2.554,0,0,0-2.554,2.554v8.517a2.554,2.554,0,0,0,2.554,2.554h9.594a2.554,2.554,0,0,0,2.554-2.554v-8.517A2.554,2.554,0,0,0,392.82,427.608Z"
              transform="translate(4.852 14.793)" fill="#eee"/>
        <path id="Path_816" data-name="Path 816"
              d="M404.813,427.608h-3.879v5.352h-1.811v-5.352h-3.9a2.554,2.554,0,0,0-2.554,2.554v8.517a2.554,2.554,0,0,0,2.554,2.554h9.594a2.554,2.554,0,0,0,2.554-2.554v-8.517A2.554,2.554,0,0,0,404.813,427.608Z"
              transform="translate(9.107 14.793)" fill="#eee"/>
        <path id="Path_817" data-name="Path 817"
              d="M417.029,427.608h-3.879v5.352h-1.813v-5.352h-3.9a2.554,2.554,0,0,0-2.554,2.554v8.517a2.554,2.554,0,0,0,2.554,2.554h9.594a2.554,2.554,0,0,0,2.554-2.554v-8.517A2.554,2.554,0,0,0,417.029,427.608Z"
              transform="translate(13.442 14.793)" fill="#eee"/>
        <path id="Path_818" data-name="Path 818"
              d="M398.841,416.264h-3.879v5.352h-1.811v-5.352h-3.9a2.555,2.555,0,0,0-2.554,2.555v8.515a2.553,2.553,0,0,0,2.554,2.554h9.594a2.553,2.553,0,0,0,2.555-2.554v-8.515A2.555,2.555,0,0,0,398.841,416.264Z"
              transform="translate(6.988 10.768)" fill="#eee"/>
        <path id="Path_819" data-name="Path 819"
              d="M411.128,416.264h-3.879v5.352h-1.811v-5.352h-3.9a2.555,2.555,0,0,0-2.554,2.555v8.515a2.553,2.553,0,0,0,2.554,2.554h9.594a2.553,2.553,0,0,0,2.554-2.554v-8.515A2.554,2.554,0,0,0,411.128,416.264Z"
              transform="translate(11.348 10.768)" fill="#eee"/>
    </g>
</svg>
