<svg id="Group_93" data-name="Group 93" xmlns="http://www.w3.org/2000/svg" width="522.155" height="285.068" viewBox="0 0 522.155 285.068">
  <ellipse id="Ellipse_37" data-name="Ellipse 37" cx="29.434" cy="29.434" rx="29.434" ry="29.434" transform="translate(349.752 30.435)" fill="#fc0"/>
  <path id="Path_689" data-name="Path 689" d="M298.449,376.355H442.843a2.943,2.943,0,0,0,.54-.043L375.091,258.021a4.782,4.782,0,0,0-8.323,0L320.935,337.4l-2.2,3.8Z" transform="translate(-11.565 -225.782)" fill="#19170f"/>
  <path id="Path_690" data-name="Path 690" d="M306.558,231.453h49.3l-24.2-35.153-1.742-2.532-.871-1.266-2.2,3.8Z" transform="translate(-19.674 -80.88)" opacity="0.2"/>
  <path id="Path_691" data-name="Path 691" d="M471.675,401.618H596.564l-24.2-35.153-1.742-2.532-31.536-45.811c-2.068-3-7.041-3.189-9.472-.566a5.689,5.689,0,0,0-.454.566Z" transform="translate(-265.189 -251.045)" fill="#19170f"/>
  <ellipse id="Ellipse_38" data-name="Ellipse 38" cx="8.869" cy="8.869" rx="8.869" ry="8.869" transform="translate(160.957 113.374)" fill="#fc0"/>
  <path id="Path_692" data-name="Path 692" d="M591.8,236.567h1.817l-.828-28.051Z" transform="translate(-422.833 -87.608)" fill="#3f3d56"/>
  <path id="Path_693" data-name="Path 693" d="M595.046,215.73l-1.951-2.7,1.977,3.367.213-.374Z" transform="translate(-425.245 -89.505)" fill="#3f3d56"/>
  <path id="Path_694" data-name="Path 694" d="M590.017,220.429l1.951-2.7L589.99,221.1l-.213-.374Z" transform="translate(-420.004 -91.48)" fill="#3f3d56"/>
  <ellipse id="Ellipse_39" data-name="Ellipse 39" cx="8.869" cy="8.869" rx="8.869" ry="8.869" transform="translate(79.597 113.374)" fill="#fc0"/>
  <path id="Path_695" data-name="Path 695" d="M732.121,236.567h1.817l-.829-28.051Z" transform="translate(-644.51 -87.608)" fill="#3f3d56"/>
  <path id="Path_696" data-name="Path 696" d="M735.362,215.73l-1.951-2.7,1.977,3.367.214-.374Z" transform="translate(-646.922 -89.505)" fill="#3f3d56"/>
  <path id="Path_697" data-name="Path 697" d="M730.334,220.429l1.951-2.7-1.977,3.366-.213-.374Z" transform="translate(-641.681 -91.48)" fill="#3f3d56"/>
  <ellipse id="Ellipse_40" data-name="Ellipse 40" cx="13.099" cy="13.099" rx="13.099" ry="13.099" transform="translate(131.034 96.403)" fill="#fc0"/>
  <path id="Path_698" data-name="Path 698" d="M635.325,226.873h2.683l-1.223-41.429Z" transform="translate(-492.454 -77.914)" fill="#3f3d56"/>
  <path id="Path_699" data-name="Path 699" d="M640.11,196.1l-2.88-3.985,2.919,4.971.316-.553Z" transform="translate(-496.016 -80.716)" fill="#3f3d56"/>
  <path id="Path_700" data-name="Path 700" d="M632.686,203.039l2.88-3.985-2.919,4.971-.316-.552Z" transform="translate(-488.277 -83.633)" fill="#3f3d56"/>
  <ellipse id="Ellipse_41" data-name="Ellipse 41" cx="13.099" cy="13.099" rx="13.099" ry="13.099" transform="translate(99.089 96.403)" fill="#fc0"/>
  <path id="Path_701" data-name="Path 701" d="M690.419,226.873H693.1l-1.223-41.429Z" transform="translate(-579.494 -77.914)" fill="#3f3d56"/>
  <path id="Path_702" data-name="Path 702" d="M695.2,196.1l-2.881-3.985,2.92,4.971.315-.553Z" transform="translate(-583.056 -80.716)" fill="#3f3d56"/>
  <path id="Path_703" data-name="Path 703" d="M687.779,203.039l2.881-3.985-2.92,4.971-.315-.552Z" transform="translate(-575.315 -83.633)" fill="#3f3d56"/>
  <ellipse id="Ellipse_42" data-name="Ellipse 42" cx="13.099" cy="13.099" rx="13.099" ry="13.099" transform="translate(181.947 96.403)" fill="#fc0"/>
  <path id="Path_704" data-name="Path 704" d="M547.519,226.873H550.2l-1.224-41.429Z" transform="translate(-353.735 -77.914)" fill="#3f3d56"/>
  <path id="Path_705" data-name="Path 705" d="M552.305,196.1l-2.88-3.985,2.919,4.971.315-.553Z" transform="translate(-357.298 -80.716)" fill="#3f3d56"/>
  <path id="Path_706" data-name="Path 706" d="M544.88,203.039l2.881-3.985-2.92,4.971-.315-.552Z" transform="translate(-349.558 -83.633)" fill="#3f3d56"/>
  <path id="Path_707" data-name="Path 707" d="M206.142,595.225H633.634a41.014,41.014,0,0,0,0-82.028H207.088a15.775,15.775,0,1,1,0-31.549H647.831V456.409H207.088a41.014,41.014,0,1,0,0,82.028H633.634a15.775,15.775,0,0,1,0,31.549H206.142Z" transform="translate(-166.074 -310.157)" fill="#e6e6e6"/>
  <rect id="Rectangle_147" data-name="Rectangle 147" width="19.561" height="1.262" transform="translate(446.421 158.24)" fill="#fff"/>
  <rect id="Rectangle_148" data-name="Rectangle 148" width="19.561" height="1.262" transform="translate(390.895 158.24)" fill="#fff"/>
  <rect id="Rectangle_149" data-name="Rectangle 149" width="19.561" height="1.262" transform="translate(335.368 158.24)" fill="#fff"/>
  <rect id="Rectangle_150" data-name="Rectangle 150" width="19.561" height="1.262" transform="translate(279.842 158.24)" fill="#fff"/>
  <rect id="Rectangle_151" data-name="Rectangle 151" width="19.561" height="1.262" transform="translate(224.315 158.24)" fill="#fff"/>
  <rect id="Rectangle_152" data-name="Rectangle 152" width="19.561" height="1.262" transform="translate(168.788 158.24)" fill="#fff"/>
  <rect id="Rectangle_153" data-name="Rectangle 153" width="19.561" height="1.262" transform="translate(113.262 158.24)" fill="#fff"/>
  <rect id="Rectangle_154" data-name="Rectangle 154" width="19.561" height="1.262" transform="translate(57.735 158.24)" fill="#fff"/>
  <rect id="Rectangle_155" data-name="Rectangle 155" width="19.561" height="1.262" transform="translate(446.421 215.028)" fill="#fff"/>
  <rect id="Rectangle_156" data-name="Rectangle 156" width="19.561" height="1.262" transform="translate(390.895 215.028)" fill="#fff"/>
  <rect id="Rectangle_157" data-name="Rectangle 157" width="19.561" height="1.262" transform="translate(335.368 215.028)" fill="#fff"/>
  <rect id="Rectangle_158" data-name="Rectangle 158" width="19.561" height="1.262" transform="translate(279.842 215.028)" fill="#fff"/>
  <rect id="Rectangle_159" data-name="Rectangle 159" width="19.561" height="1.262" transform="translate(224.315 215.028)" fill="#fff"/>
  <rect id="Rectangle_160" data-name="Rectangle 160" width="19.561" height="1.262" transform="translate(168.788 215.028)" fill="#fff"/>
  <rect id="Rectangle_161" data-name="Rectangle 161" width="19.561" height="1.262" transform="translate(113.262 215.028)" fill="#fff"/>
  <rect id="Rectangle_162" data-name="Rectangle 162" width="19.561" height="1.262" transform="translate(57.735 215.028)" fill="#fff"/>
  <rect id="Rectangle_163" data-name="Rectangle 163" width="19.561" height="1.262" transform="translate(446.421 271.817)" fill="#fff"/>
  <rect id="Rectangle_164" data-name="Rectangle 164" width="19.561" height="1.262" transform="translate(390.895 271.817)" fill="#fff"/>
  <rect id="Rectangle_165" data-name="Rectangle 165" width="19.561" height="1.262" transform="translate(335.368 271.817)" fill="#fff"/>
  <rect id="Rectangle_166" data-name="Rectangle 166" width="19.561" height="1.262" transform="translate(279.842 271.817)" fill="#fff"/>
  <rect id="Rectangle_167" data-name="Rectangle 167" width="19.561" height="1.262" transform="translate(224.315 271.817)" fill="#fff"/>
  <rect id="Rectangle_168" data-name="Rectangle 168" width="19.561" height="1.262" transform="translate(168.788 271.817)" fill="#fff"/>
  <rect id="Rectangle_169" data-name="Rectangle 169" width="19.561" height="1.262" transform="translate(113.262 271.817)" fill="#fff"/>
  <rect id="Rectangle_170" data-name="Rectangle 170" width="19.561" height="1.262" transform="translate(57.735 271.817)" fill="#fff"/>
  <path id="Path_708" data-name="Path 708" d="M729.78,296.483a16.81,16.81,0,0,1,3.505-3.307h-7.32A12.243,12.243,0,0,1,729.78,296.483Z" transform="translate(-549.355 -241.572)" fill="none"/>
  <path id="Path_709" data-name="Path 709" d="M692,293.176h-1.262c.271.19.543.38.8.586C691.693,293.562,691.851,293.37,692,293.176Z" transform="translate(-487.652 -241.572)" fill="none"/>
  <path id="Path_710" data-name="Path 710" d="M744.462,290.559a12.079,12.079,0,0,0-5.873,1.518H750.32a12.027,12.027,0,0,0-5.858-1.518Z" transform="translate(-573.711 -240.473)" fill="#e6e6e6"/>
  <path id="Path_711" data-name="Path 711" d="M702.506,287.941a16.6,16.6,0,0,0-9.587,3.035H712.08A16.593,16.593,0,0,0,702.506,287.941Z" transform="translate(-508.989 -239.373)" fill="#e6e6e6"/>
  <path id="Path_712" data-name="Path 712" d="M605.091,233.535a31.112,31.112,0,0,0-61.041-6.559c-.377-.014-.754-.029-1.134-.029a31.117,31.117,0,0,0-29.849,22.34,21.988,21.988,0,0,0-26.092,6.5h97.048a21.044,21.044,0,0,0,21.09-21.789Q605.1,233.765,605.091,233.535Z" transform="translate(-282.623 -204.179)" fill="#e6e6e6"/>
  <path id="Path_713" data-name="Path 713" d="M774.513,335.659a16.81,16.81,0,0,0-3.505-3.307h7.32a12.244,12.244,0,0,0-3.815,3.307Z" transform="translate(-620.516 -258.033)" fill="none"/>
  <path id="Path_714" data-name="Path 714" d="M816.678,332.352h1.262c-.271.19-.543.38-.8.586C816.99,332.738,816.832,332.546,816.678,332.352Z" transform="translate(-686.608 -258.033)" fill="none"/>
  <path id="Path_715" data-name="Path 715" d="M756.634,329.734a12.079,12.079,0,0,1,5.873,1.518H750.776A12.027,12.027,0,0,1,756.634,329.734Z" transform="translate(-592.964 -256.933)" fill="#e6e6e6"/>
  <path id="Path_716" data-name="Path 716" d="M793.206,327.117a16.6,16.6,0,0,1,9.587,3.035H783.632A16.593,16.593,0,0,1,793.206,327.117Z" transform="translate(-652.301 -255.833)" fill="#e6e6e6"/>
  <path id="Path_717" data-name="Path 717" d="M818.89,272.711a31.112,31.112,0,0,1,61.042-6.559c.377-.014.753-.029,1.134-.029a31.117,31.117,0,0,1,29.849,22.34,21.988,21.988,0,0,1,26.091,6.5H839.958a21.044,21.044,0,0,1-21.09-21.789Q818.878,272.94,818.89,272.711Z" transform="translate(-806.936 -220.639)" fill="#e6e6e6"/>
  <ellipse id="Ellipse_47" data-name="Ellipse 47" cx="29.025" cy="29.025" rx="29.025" ry="29.025" transform="translate(455.886 122.274)" fill="#19170f"/>
  <ellipse id="Ellipse_48" data-name="Ellipse 48" cx="12.818" cy="12.818" rx="12.818" ry="12.818" transform="translate(21.986 259.295)" fill="#19170f"/>
  <path id="Path_726" data-name="Path 726" d="M196.03,445.961,181.5,431.436a2.524,2.524,0,1,1,3.57-3.57l10.714,10.714,34.189-38.988a2.524,2.524,0,0,1,3.8,3.328Z" transform="translate(287.756 -280.767)" fill="#fc0"/>
</svg>
