<svg xmlns="http://www.w3.org/2000/svg" width="213.933" height="202.985" viewBox="0 0 213.933 202.985">
    <g id="Group_145" data-name="Group 145" transform="translate(-856 -2588)">
        <g id="Group_122" data-name="Group 122" transform="translate(4 1046)">
            <g id="freepik--background-simple--inject-1--inject-130" transform="translate(852 1542)">
                <path id="Path_699" data-name="Path 699"
                      d="M239.926,98.318q-4.978-2.132-10.076-3.926c-23.667-8.262-51.962-3.562-72.7,10.116-10.97,7.236-18.609,16.921-24.3,28.685-5.786,11.963-9.811,24.866-18.093,35.458-8.1,10.374-19.457,18.576-24.025,31.347-9.93,27.9,7.057,65.99,38.874,68.632,22.449,1.867,30.764,14.6,54.286,21.033s46.719,5.667,73.59-13.532c10.851-7.746,20.357-17.954,24.495-30.857,3.727-11.612.285-23.74.808-35.6.662-14.631,10.877-25.594,16.345-38.516,8.116-19.166-3.224-36.021-18.067-47.924A179.9,179.9,0,0,0,239.926,98.318Z"
                      transform="translate(-87.897 -90.303)" fill="#fadee1"/>
                <path id="Path_700" data-name="Path 700"
                      d="M239.926,98.318q-4.978-2.132-10.076-3.926c-23.667-8.262-51.962-3.562-72.7,10.116-10.97,7.236-18.609,16.921-24.3,28.685-5.786,11.963-9.811,24.866-18.093,35.458-8.1,10.374-19.457,18.576-24.025,31.347-9.93,27.9,7.057,65.99,38.874,68.632,22.449,1.867,30.764,14.6,54.286,21.033s46.719,5.667,73.59-13.532c10.851-7.746,20.357-17.954,24.495-30.857,3.727-11.612.285-23.74.808-35.6.662-14.631,10.877-25.594,16.345-38.516,8.116-19.166-3.224-36.021-18.067-47.924A179.9,179.9,0,0,0,239.926,98.318Z"
                      transform="translate(-87.897 -90.303)" fill="#fadee1" opacity="0.7"/>
            </g>
            <g id="Group_72" data-name="Group 72" transform="translate(770.785 1085)">
                <path id="Path_808" data-name="Path 808"
                      d="M252.746,512.388l-16.789-21.076A8.753,8.753,0,0,0,229.336,488H143.292a8.471,8.471,0,0,0-6.481,3.312l-17.148,20.981c-1.741,2.182-3.664,6.346-3.664,9.417v15.3c2.645-2.082,3.756-3.642,6.073-4.441a12.473,12.473,0,0,1,9.036-10.345,12.238,12.238,0,0,1,3.108-.41,11.675,11.675,0,0,1,9.708,5.193,11.28,11.28,0,0,1,1.91-.167,10.832,10.832,0,0,1,5.4,1.46l9.226-2.4a14.011,14.011,0,0,1,17.093,10.038l18.074,69.456a13.944,13.944,0,0,1-1.479,10.628,14.681,14.681,0,0,1-8.56,6.949l-8.065,2.576h67.737c5.721,0,10.927-5.6,10.927-11.319v-92.8A17.278,17.278,0,0,0,252.746,512.388ZM125.6,511.806l5.512-5.29h37.614l3.714-7.935H135.981l4.071-4.417c.791-.992,1.973-.873,3.24-.873h86.044c1.267,0,2.449-.119,3.24.873l4.068,4.417H199.536l2.071,7.935h39.9l5.515,5.29Z"
                      transform="translate(7.872 0)" fill="#1637f2"/>
                <path id="Path_809" data-name="Path 809"
                      d="M123.871,512.834l-2.325.606a4.633,4.633,0,0,0-3.32,5.65l.024.09a4.636,4.636,0,0,0,5.653,3.32l19.719-5.131a4.631,4.631,0,0,0,3.317-5.65l-.024-.093a4.632,4.632,0,0,0-5.65-3.317l-2.325.606a2.326,2.326,0,0,1-2.836-1.667l-.018-.074a5.4,5.4,0,0,0-6.584-3.865l-.122.029a5.4,5.4,0,0,0-3.865,6.584l.019.077A2.324,2.324,0,0,1,123.871,512.834Z"
                      transform="translate(11.287 24.897)" fill="#1637f2"/>
                <path id="Path_810" data-name="Path 810" d="M123.76,504.394a2.341,2.341,0,1,1-1.677,2.854A2.341,2.341,0,0,1,123.76,504.394Z" transform="translate(17.754 26.846)" fill="#2c5871"/>
                <rect id="Rectangle_340" data-name="Rectangle 340" width="32.765" height="4.681" rx="0.59" transform="matrix(0.968, -0.252, 0.252, 0.968, 138.082, 607.905)" fill="#1637f2"/>
                <rect id="Rectangle_341" data-name="Rectangle 341" width="43.686" height="4.681" rx="0.59" transform="matrix(0.968, -0.252, 0.252, 0.968, 131.404, 582.235)" fill="#1637f2"/>
                <rect id="Rectangle_342" data-name="Rectangle 342" width="43.686" height="4.681" rx="0.59" transform="translate(127.869 568.646) rotate(-14.583)" fill="#1637f2"/>
                <rect id="Rectangle_343" data-name="Rectangle 343" width="35.885" height="4.681" rx="0.59" transform="matrix(0.968, -0.252, 0.252, 0.968, 134.547, 594.315)" fill="#1637f2"/>
                <path id="Path_811" data-name="Path 811"
                      d="M197.486,579.8l-18.069-69.459a7.8,7.8,0,0,0-9.515-5.584l-9.208,2.394a7.823,7.823,0,0,1-5,10.975l-19.431,5.055A7.951,7.951,0,0,1,126.7,518.3a8.048,8.048,0,0,1-.426-2.185l-9.218,2.4a7.8,7.8,0,0,0-5.584,9.515l18.069,69.459a7.8,7.8,0,0,0,9.515,5.587l52.847-13.75A7.8,7.8,0,0,0,197.486,579.8Zm-60.4,15.712-15.712-60.4,52.85-13.75,15.712,60.4Z"
                      transform="translate(0 27.157)" fill="#f25c69"/>
            </g>
        </g>
    </g>
</svg>
