<svg xmlns="http://www.w3.org/2000/svg" width="872.14" height="162.948" viewBox="0 0 872.14 162.948">
    <g id="Group_20" data-name="Group 20" transform="translate(-170.855 -204.593)">
        <path id="Path_478" data-name="Path 478"
              d="M646.112,251.9c5.974-2.552,10.691-6.067,12.637-9.4a5.439,5.439,0,0,0,.848-2.923,2.593,2.593,0,0,0-.093-.691,2.711,2.711,0,0,0-.244-.588,5.3,5.3,0,0,0-2.218-2.16c-3.327-1.915-9.168-2.618-15.621-1.857-5.218.616-11.079,2.348-19.184,4.738-1.382.4-2.828.832-4.358,1.273l-8.061-8.572.042-.012a2.525,2.525,0,0,0,1.778-3.085l-.737-2.786a2.522,2.522,0,0,0-1.18-1.539,2.485,2.485,0,0,0-1.919-.259l-4.164,1.111-1.15-1.226a2.521,2.521,0,0,0,1.234-1.061,2.479,2.479,0,0,0,.255-1.923l-.741-2.8a2.5,2.5,0,0,0-1.184-1.533,2.417,2.417,0,0,0-1.905-.246l-3.814,1.016-8.206-8.717a2.84,2.84,0,0,0-.652-.513,3.05,3.05,0,0,0-2.267-.319l-5.507,1.467a2.394,2.394,0,0,0-1.449,1.079,2.325,2.325,0,0,0,.03,2.414L592.4,236.532a4.514,4.514,0,0,1,.285.673l2.5,9.4c-8.956,2.632-17.207,5.443-23.924,8.148-.626.246-1.23.5-1.82.752l-15.3-10.819a1.8,1.8,0,0,0-.267-.182,3.468,3.468,0,0,0-2.481-.331l-2.566.683a2.33,2.33,0,0,0-1.455,1.081,2.289,2.289,0,0,0,.117,2.5l8.235,11.974a3.154,3.154,0,0,1,.248.564l.4,1.479a7.921,7.921,0,0,0-1.713,1.919,3.362,3.362,0,0,0-.422,2.554l.024.059.008.018a3.31,3.31,0,0,0,1.63,1.988,8.049,8.049,0,0,0,2.424.8l.4,1.511a2.592,2.592,0,0,1,.057.6L557.6,286.345a2.318,2.318,0,0,0,1.115,2.245l.018.008a2.336,2.336,0,0,0,1.784.222l2.636-.709a3.409,3.409,0,0,0,1.948-1.533,1.872,1.872,0,0,0,.105-.2l7.917-17.057c.634-.069,1.281-.162,1.95-.246,7.184-1,15.736-2.681,24.8-4.841l2.507,9.4a4.081,4.081,0,0,1,.085.733l-.426,27.569a2.355,2.355,0,0,0,1.166,2.127,2.329,2.329,0,0,0,1.806.222l5.55-1.473a3.061,3.061,0,0,0,1.778-1.416,3.015,3.015,0,0,0,.3-.737L615.42,289l3.82-1.016a2.531,2.531,0,0,0,1.8-3.085l-.752-2.8a2.547,2.547,0,0,0-2.784-1.853l.4-1.628,4.166-1.109a2.557,2.557,0,0,0,1.529-1.184,2.489,2.489,0,0,0,.255-1.9l-.735-2.792a2.566,2.566,0,0,0-1.188-1.539,2.49,2.49,0,0,0-1.911-.255l-.028,0L622.7,258.4c1.568-.378,3.057-.741,4.475-1.077,8.194-1.954,14.12-3.364,18.932-5.42Zm0,0"
              transform="translate(383.394 2.635)" fill="#fc0"/>
        <path id="Path_479" data-name="Path 479"
              d="M171.281,300.876s50.4-81.89,185.527-67.748,130.263,143.439,89.259,133.338-23.118-98.993,82.086-82.831,109.814,68.689,189.329,42.426,103.377-111,59.121-120.151-59.04,67.624,25.122,71.665,125.513-2.02,125.513-2.02"
              fill="none" stroke="#19170f" stroke-miterlimit="10" stroke-width="1" stroke-dasharray="4 4"/>
    </g>
</svg>
