<svg id="Layer_1" data-name="Layer 1" xmlns="http://www.w3.org/2000/svg" viewBox="0 0 32 32">
    <defs>
        <style>
            .cls-1 {
            fill: #fc0;
            }
        </style>
    </defs>
    <title>kargoaz</title>
    <path class="cls-1"
          d="M29.69,6.57a1.54,1.54,0,0,0-1.47-.11L15.63,12.08a1.31,1.31,0,0,0-.36.21,1.34,1.34,0,0,0-.21.2,1.5,1.5,0,0,0-.38,1h0V26.64L5.13,22.41V8.87l6.24-2.79-.48,1.4a1.67,1.67,0,0,0-.08.49,1.38,1.38,0,0,0,.79,1.29,1.19,1.19,0,0,0,1.59-.8L14.4,4.9a1.8,1.8,0,0,0,0-.19l2.4-1.07a1.54,1.54,0,0,0,.78-2,1.56,1.56,0,0,0-2-.78L13.11,1.93l-.18-.07L9.37.64a1.74,1.74,0,0,0-.5-.08,1.4,1.4,0,0,0-1.29.79,1.2,1.2,0,0,0,.8,1.59l1.4.48L3,6.46a1.54,1.54,0,0,0-.92,1.41V23.41A1.53,1.53,0,0,0,3,24.82l12.62,5.6.2.07h0a1.59,1.59,0,0,0,.43.06h0a1.68,1.68,0,0,0,.45-.06h0l.18-.07,12.63-5.6a1.54,1.54,0,0,0,.91-1.41V7.87A1.54,1.54,0,0,0,29.69,6.57ZM27.31,22.41l-9.55,4.23V14.5l9.55-4.26Z"/>
</svg>
