<?xml version="1.0" encoding="iso-8859-1"?>
<!-- Generator: Adobe Illustrator 21.0.0, SVG Export Plug-In . SVG Version: 6.00 Build 0)  -->
<svg xmlns="http://www.w3.org/2000/svg" version="1.1" id="Capa_1" x="0px" y="0px" viewBox="0 0 512 512"
     style="enable-background:new 0 0 512 512;" xml:space="preserve" width="512" height="512">
<g>
	<path style="fill:#C6C5CA;"
          d="M322.268,313.983V113.112c0-3.431,2.781-6.213,6.212-6.213H355.4v281.635h-33.132V313.983z"/>
    <polygon style="fill:#F7931E;"
             points="297.417,297.418 272.568,181.447 272.568,170.923 247.717,170.923 247.717,181.447    272.567,297.418 272.567,311.265 297.417,311.265  "/>
    <polygon style="fill:#F7931E;"
             points="297.417,297.418 272.568,181.447 272.568,170.923 247.717,170.923 247.717,181.447    272.567,297.418 272.567,311.265 297.417,311.265  "/>
    <path style="fill:#57565C;"
          d="M90.333,247.716l-14.722-22.083c-1.152-1.728-3.092-2.766-5.169-2.766H46.848   c-3.431,0-6.212,2.781-6.212,6.213v27.611h49.698V247.716z"/>
    <path style="fill:#3E3D42;"
          d="M75.611,225.633c-1.152-1.728-3.092-2.766-5.169-2.766H49.734c2.077,0,4.017,1.038,5.169,2.766   l14.723,22.083v8.974h20.708v-8.974L75.611,225.633z"/>
    <path style="fill:#898890;"
          d="M173.166,304.665v-83.87c0-3.431,2.781-6.212,6.212-6.212h20.708c3.431,0,6.212,2.781,6.212,6.212   v83.869L173.166,304.665z"/>
    <path style="fill:#74747A;"
          d="M200.087,214.582h-20.708l0,0c3.431,0,6.212,2.781,6.212,6.212v83.869l-12.425,0v0l33.133-0.001   v-83.869C206.299,217.364,203.518,214.582,200.087,214.582z"/>
    <path style="fill:#F7931E;"
          d="M322.266,413.383v-99.4c0-9.15-7.418-16.568-16.568-16.568l-129.207,0.001   c-2.077,0-4.017-1.038-5.169-2.766l-29.446-44.167c-1.152-1.728-3.092-2.766-5.169-2.766H24.068   c-9.15,0-16.568,7.417-16.568,16.568v113.392c0,1.648,0.655,3.228,1.82,4.393l29.496,29.494c1.165,1.165,2.745,1.82,4.393,1.82   L322.266,413.383z"/>
    <g>
		<path style="fill:#F7831E;"
              d="M121.17,250.483l29.446,44.167c1.152,1.728,3.092,2.766,5.169,2.766l20.705,0    c-2.076-0.001-4.015-1.038-5.167-2.766l-29.446-44.167c-1.152-1.728-3.092-2.766-5.169-2.766H116    C118.077,247.716,120.017,248.755,121.17,250.483z"/>
        <path style="fill:#F7831E;"
              d="M305.699,297.415l-20.705,0c9.149,0.001,16.565,7.418,16.565,16.567v99.4l20.707,0v-99.4    C322.266,304.833,314.849,297.415,305.699,297.415z"/>
	</g>
    <path style="fill:#898890;"
          d="M322.266,413.383v-66.267H176.491c-2.077,0-4.017-1.038-5.169-2.767l-29.443-44.167   c-1.152-1.728-3.092-2.767-5.169-2.767H7.5v80.26c0,1.648,0.655,3.228,1.82,4.393l29.496,29.494   c1.165,1.165,2.745,1.819,4.393,1.819L322.266,413.383z"/>
    <path style="fill:#F7931E;"
          d="M283.134,148.316H129.468c-3.314,0-6,2.686-6,6v27.133h165.666v-27.133   C289.134,151.002,286.448,148.316,283.134,148.316z"/>
    <path style="fill:#F7831E;"
          d="M282.922,148.316h-20.708c3.431,0,6.212,2.781,6.212,6.212v26.92h20.708v-26.92   C289.134,151.097,286.353,148.316,282.922,148.316z"/>
    <path style="fill:#ED4854;"
          d="M7.5,280.849h43.487c3.431,0,6.212,2.781,6.212,6.212v20.709c0,3.431-2.781,6.212-6.212,6.212H7.502   L7.5,280.849z"/>
    <path style="fill:#D13D3D;"
          d="M50.987,280.849H30.279c3.431,0,6.213,2.781,6.213,6.212v20.709c0,3.431-2.782,6.212-6.213,6.212   h20.708c3.431,0,6.212-2.781,6.212-6.212v-20.709C57.2,283.63,54.418,280.849,50.987,280.849z"/>
    <path style="fill:#C6C5CA;"
          d="M345.046,380.248h139.049c2.353,0,4.504,1.33,5.557,3.434l10.354,20.71   c2.065,4.131-0.939,8.991-5.557,8.991H345.046V380.248z"/>
    <path style="fill:#AAA9AD;"
          d="M500.005,404.392l-10.354-20.71c-1.052-2.105-3.203-3.434-5.557-3.434h-20.708   c2.353,0,4.505,1.33,5.557,3.434l10.354,20.71c2.065,4.131-0.939,8.991-5.557,8.991h20.708   C499.067,413.382,502.07,408.522,500.005,404.392z"/>
    <circle style="fill:#57565C;" cx="297.417" cy="388.534" r="57.983"/>
    <path style="fill:#3E3D42;"
          d="M297.417,330.552c-3.536,0-6.993,0.334-10.354,0.94c27.08,4.884,47.629,28.556,47.629,57.043   c0,28.487-20.549,52.158-47.629,57.042c3.362,0.606,6.818,0.94,10.354,0.94c32.023,0,57.982-25.96,57.982-57.983   S329.44,330.552,297.417,330.552z"/>
    <circle style="fill:#C6C5CA;" cx="297.417" cy="388.534" r="28.99"/>
    <circle style="fill:#57565C;" cx="115.185" cy="388.534" r="57.983"/>
    <path style="fill:#3E3D42;"
          d="M115.185,330.552c-3.536,0-6.993,0.334-10.354,0.94c27.08,4.884,47.628,28.556,47.628,57.043   c0,28.487-20.549,52.158-47.628,57.042c3.362,0.606,6.818,0.94,10.354,0.94c32.023,0,57.982-25.96,57.982-57.983   S147.208,330.552,115.185,330.552z"/>
    <circle style="fill:#C6C5CA;" cx="115.185" cy="388.534" r="28.99"/>
</g>
    <g>
	<path
        d="M115.185,352.043c-20.121,0-36.49,16.37-36.49,36.491c0,20.121,16.369,36.49,36.49,36.49s36.49-16.369,36.49-36.49   C151.675,368.413,135.306,352.043,115.185,352.043z M115.185,410.024c-11.85,0-21.49-9.641-21.49-21.49   c0-11.851,9.641-21.491,21.49-21.491s21.49,9.641,21.49,21.491C136.675,400.384,127.034,410.024,115.185,410.024z"/>
        <path
            d="M115.185,376.196c-4.143,0-7.5,3.357-7.5,7.5v9.666c0,4.143,3.357,7.5,7.5,7.5c4.143,0,7.5-3.357,7.5-7.5v-9.666   C122.685,379.554,119.327,376.196,115.185,376.196z"/>
        <path
            d="M297.417,352.044c-20.121,0-36.49,16.369-36.49,36.49c0,20.121,16.369,36.49,36.49,36.49s36.49-16.369,36.49-36.49   C333.907,368.413,317.538,352.044,297.417,352.044z M297.417,410.024c-11.85,0-21.49-9.641-21.49-21.49   c0-11.85,9.641-21.49,21.49-21.49c11.85,0,21.49,9.641,21.49,21.49C318.907,400.384,309.267,410.024,297.417,410.024z"/>
        <path
            d="M297.417,376.197c-4.143,0-7.5,3.357-7.5,7.5v9.665c0,4.143,3.357,7.5,7.5,7.5c4.143,0,7.5-3.357,7.5-7.5v-9.665   C304.917,379.555,301.56,376.197,297.417,376.197z"/>
        <path
            d="M511.208,410.027l-16.566-33.134c-1.271-2.54-3.867-4.146-6.708-4.146H362.899V65.483c0-4.143-3.357-7.5-7.5-7.5   c-4.143,0-7.5,3.357-7.5,7.5v33.916h-25.632c-4.143,0-7.5,3.357-7.5,7.5v24.83c0,0.007-0.001,0.013-0.001,0.019   c0,0.007,0.001,0.013,0.001,0.019v159.926c-2.801-1.144-5.861-1.779-9.068-1.779h-2.219l-21.635-100.966h7.288   c0.013,0,0.026-0.002,0.039-0.002h8.245c4.143,0,7.5-3.357,7.5-7.5c0-4.143-3.357-7.5-7.5-7.5h-0.783v-25.632   c0-4.142-3.357-7.5-7.5-7.5H174.226c-4.143,0-7.5,3.358-7.5,7.5c0,4.143,3.357,7.5,7.5,7.5h107.408v18.132h-9.092   c-0.02,0-0.04,0-0.061,0h-24.797c-0.016,0-0.032,0-0.048,0H130.968v-18.132h13.207c4.143,0,7.5-3.357,7.5-7.5   c0-4.142-3.357-7.5-7.5-7.5h-20.707c-4.143,0-7.5,3.358-7.5,7.5v25.632h-0.784c-4.143,0-7.5,3.357-7.5,7.5   c0,4.143,3.357,7.5,7.5,7.5h8.245c0.013,0,0.026,0.002,0.039,0.002h9.065l-0.001,51.268H94.347l-14.341-21.511   c-1.391-2.087-3.732-3.34-6.24-3.34H40.636c-4.143,0-7.5,3.357-7.5,7.5v17.351h-9.068C10.797,240.217,0,251.014,0,264.284v115.965   c0,0.51,0.054,1.015,0.155,1.507c0.004,0.022,0.011,0.042,0.016,0.064c0.047,0.218,0.101,0.434,0.166,0.647   c0.018,0.058,0.042,0.112,0.061,0.17c0.059,0.175,0.118,0.349,0.19,0.519c0.023,0.055,0.052,0.107,0.077,0.162   c0.076,0.169,0.153,0.337,0.241,0.5c0.017,0.031,0.036,0.059,0.054,0.089c0.334,0.597,0.746,1.154,1.239,1.646l33.136,33.133   c1.406,1.406,3.313,2.196,5.303,2.196h17.649c11.284,19.769,32.554,33.135,56.9,33.135c24.346,0,45.616-13.365,56.9-33.134h68.434   c11.283,19.769,32.553,33.134,56.899,33.134c24.379,0,45.674-13.401,56.945-33.215c0.34,0.047,0.684,0.08,1.037,0.08H504.5   c2.6,0,5.014-1.346,6.38-3.557C512.246,415.113,512.371,412.353,511.208,410.027z M329.767,314.002   c0-0.007,0.001-0.013,0.001-0.019V139.249h18.132v207.623c-5.054-6.113-11.204-11.282-18.133-15.236V314.002z M347.899,114.399   v9.85h-18.132v-9.85H347.899z M288.139,289.915h-9.509l-21.634-100.966h9.508L288.139,289.915z M241.654,188.949l21.634,100.966   l-49.489,0v-75.334c0-4.143-3.357-7.5-7.5-7.5h-33.133c-4.143,0-7.5,3.357-7.5,7.5v58.063l-18.134-27.199l0.001-56.497H241.654z    M198.799,289.916l-18.133,0v-67.834h18.133V289.916z M48.136,230.366h21.617l6.567,9.851H48.136V230.366z M24.067,255.217h66.222   c0.004,0,0.009,0,0.013,0h45.716l30.908,46.359c0,0.001,0.001,0.001,0.002,0.002c0.16,0.24,0.336,0.467,0.522,0.686   c0.05,0.059,0.104,0.114,0.156,0.172c0.137,0.152,0.279,0.298,0.428,0.438c0.068,0.064,0.136,0.127,0.207,0.188   c0.155,0.135,0.316,0.263,0.482,0.385c0.059,0.044,0.117,0.091,0.177,0.133c0.231,0.16,0.471,0.31,0.72,0.444   c0.015,0.008,0.031,0.014,0.047,0.023c0.232,0.122,0.471,0.231,0.716,0.329c0.071,0.029,0.144,0.053,0.216,0.079   c0.194,0.071,0.391,0.134,0.592,0.189c0.086,0.024,0.172,0.046,0.26,0.067c0.196,0.046,0.395,0.082,0.596,0.112   c0.087,0.013,0.173,0.03,0.261,0.04c0.256,0.029,0.515,0.046,0.779,0.048c0.026,0,0.052,0.005,0.079,0.005l99.338-0.001   c0.018,0,0.035,0.005,0.054,0.005c0.029,0,0.059-0.004,0.088-0.005l24.707,0c0.019,0,0.037,0.005,0.056,0.005   c0.03,0,0.061-0.004,0.091-0.005h8.199c5,0,9.067,4.067,9.067,9.067v11.42c-5.53-1.522-11.343-2.351-17.35-2.351   c-16.67,0-31.895,6.271-43.467,16.564h-76.77l-30.905-46.36c-1.391-2.087-3.732-3.34-6.24-3.34H64.7v-9.067   c0-4.143-3.357-7.5-7.5-7.5H15v-9.064C15,259.284,19.067,255.217,24.067,255.217z M15,288.349h34.7v18.134H15V288.349z    M43.742,405.882l-18.136-18.134h6.745c4.142,0,7.5-3.357,7.5-7.5c0-4.143-3.358-7.5-7.5-7.5H15v-18.132h17.352   c4.142,0,7.5-3.357,7.5-7.5c0-4.143-3.358-7.5-7.5-7.5H15v-18.134h42.2c4.143,0,7.5-3.357,7.5-7.5v-9.066h71.32l23.919,35.88   c-11.718-10.992-27.458-17.745-44.754-17.745c-36.107,0-65.483,29.376-65.483,65.483c0,6.006,0.829,11.819,2.35,17.348H43.742z    M115.185,439.017c-27.837,0-50.483-22.647-50.483-50.482c0-27.837,22.646-50.483,50.483-50.483s50.483,22.647,50.483,50.483   C165.668,416.37,143.021,439.017,115.185,439.017z M178.317,405.883c1.521-5.529,2.351-11.342,2.351-17.349   c0-12.554-3.558-24.289-9.708-34.264c0.707,0.218,1.447,0.346,2.206,0.346h68.255c-6.018,9.899-9.487,21.511-9.487,33.918   c0,6.006,0.829,11.819,2.351,17.349H178.317z M297.417,439.017c-27.836,0-50.482-22.647-50.482-50.482   c0-27.836,22.646-50.482,50.482-50.482s50.482,22.647,50.482,50.482C347.899,416.37,325.253,439.017,297.417,439.017z    M360.549,405.882c1.521-5.529,2.35-11.342,2.35-17.348c0-0.264-0.017-0.523-0.02-0.786h120.419l9.067,18.134H360.549z"/>
</g>















</svg>
