<svg id="Layer_1" data-name="Layer 1" xmlns="http://www.w3.org/2000/svg" viewBox="0 0 186.01 29.17">
    <defs>
        <style>
            .cls-1 {
            fill: #1637f2;
            }

            .cls-2 {
            fill: #f25c69;
            }
        </style>
  </defs>
    <title>Untitled-1</title>
  <g>
      <g>
          <path class="cls-1"
                d="M51.7,23.34a4.72,4.72,0,0,0,3.15-.88,2.85,2.85,0,0,0,1-2.27,2.58,2.58,0,0,0-.78-2A6.09,6.09,0,0,0,52.61,17l-2.54-.78a12.84,12.84,0,0,1-2.15-.86,6.74,6.74,0,0,1-1.64-1.15,4.5,4.5,0,0,1-1-1.56,5.77,5.77,0,0,1-.35-2.08,5.05,5.05,0,0,1,2-4.22,8.51,8.51,0,0,1,5.37-1.54A13.83,13.83,0,0,1,54.81,5a9.06,9.06,0,0,1,2,.61,4.19,4.19,0,0,1,1.36.91,1.67,1.67,0,0,1,.49,1.14,1.78,1.78,0,0,1-.29,1,2.52,2.52,0,0,1-.69.69,7.92,7.92,0,0,0-2.22-1.1,9.44,9.44,0,0,0-3-.46,4.75,4.75,0,0,0-2.88.75,2.34,2.34,0,0,0-1,2,2.11,2.11,0,0,0,.71,1.64,6.3,6.3,0,0,0,2.34,1.1l2,.58A10.78,10.78,0,0,1,58,16.18a5.23,5.23,0,0,1,1.58,4,5.88,5.88,0,0,1-.53,2.49,5.49,5.49,0,0,1-1.5,1.95,7,7,0,0,1-2.46,1.25,11.4,11.4,0,0,1-3.34.44,13.91,13.91,0,0,1-2.84-.27,10.17,10.17,0,0,1-2.22-.71,4.29,4.29,0,0,1-1.44-1,1.81,1.81,0,0,1-.51-1.22A1.72,1.72,0,0,1,45.16,22a2.73,2.73,0,0,1,1-.71,9,9,0,0,0,2.22,1.42A7.56,7.56,0,0,0,51.7,23.34Z"/>
          <path class="cls-1"
                d="M73.16,13.23a3.86,3.86,0,0,0-2.63-.86,5.28,5.28,0,0,0-2,.35,7,7,0,0,0-1.58.87V25.78a3.19,3.19,0,0,1-.66.19,5.28,5.28,0,0,1-.93.08,2.31,2.31,0,0,1-1.45-.37,1.5,1.5,0,0,1-.48-1.25V3.86l.68-.17a4.69,4.69,0,0,1,1-.1A2.34,2.34,0,0,1,66.52,4,1.56,1.56,0,0,1,67,5.22v5.35a11.67,11.67,0,0,1,1.82-.73,7.93,7.93,0,0,1,2.32-.32,7.05,7.05,0,0,1,4.76,1.56,5.94,5.94,0,0,1,1.81,4.74v10A3.67,3.67,0,0,1,77,26a5.4,5.4,0,0,1-.91.08,2.35,2.35,0,0,1-1.48-.37,1.55,1.55,0,0,1-.45-1.25V16A3.46,3.46,0,0,0,73.16,13.23Z"/>
          <path class="cls-1"
                d="M86.62,22.94a3.48,3.48,0,0,0,2,.5,4.53,4.53,0,0,0,1.22-.17,5.61,5.61,0,0,0,1.12-.4,3,3,0,0,1,.42.61,1.57,1.57,0,0,1,.19.81,1.7,1.7,0,0,1-.9,1.46,5.19,5.19,0,0,1-2.73.57,6.59,6.59,0,0,1-4-1.13,4.39,4.39,0,0,1-1.51-3.75V5.62c.16,0,.38-.1.68-.16A4,4,0,0,1,84,5.35a2.24,2.24,0,0,1,1.44.38A1.51,1.51,0,0,1,85.91,7v3.35h5.25a2.47,2.47,0,0,1,.26.58,2.54,2.54,0,0,1,.11.78c0,1-.41,1.46-1.25,1.46H85.91v8.06A2,2,0,0,0,86.62,22.94Z"/>
          <path class="cls-1"
                d="M110,17.92a10.1,10.1,0,0,1-.58,3.49,7.47,7.47,0,0,1-1.61,2.64,7,7,0,0,1-2.52,1.68,9.64,9.64,0,0,1-6.64,0,7,7,0,0,1-2.53-1.68,7.59,7.59,0,0,1-1.6-2.64,9.87,9.87,0,0,1-.58-3.49,9.87,9.87,0,0,1,.58-3.49,7.1,7.1,0,0,1,4.16-4.32,9.44,9.44,0,0,1,6.57,0,7,7,0,0,1,2.54,1.7,7.4,7.4,0,0,1,1.63,2.64A9.94,9.94,0,0,1,110,17.92Zm-8-5.55a3.92,3.92,0,0,0-3.22,1.45,6.34,6.34,0,0,0-1.19,4.1A6.37,6.37,0,0,0,98.72,22a4.39,4.39,0,0,0,6.5,0,6.37,6.37,0,0,0,1.15-4.08,6.39,6.39,0,0,0-1.17-4.08A3.89,3.89,0,0,0,102,12.37Z"/>
          <path class="cls-1"
                d="M117.35,25.78a3.63,3.63,0,0,1-.66.19,5.46,5.46,0,0,1-.93.08,2.34,2.34,0,0,1-1.46-.37,1.49,1.49,0,0,1-.47-1.25V13.31a2.55,2.55,0,0,1,.33-1.37,3.57,3.57,0,0,1,1.09-1,9.48,9.48,0,0,1,2.5-1,13.11,13.11,0,0,1,3.36-.41c2,0,3,.57,3,1.69A2.19,2.19,0,0,1,124,12a4,4,0,0,1-.3.62c-.23,0-.51-.09-.85-.13a7.44,7.44,0,0,0-1.08-.07,9.91,9.91,0,0,0-2.47.29,7.46,7.46,0,0,0-1.9.73Z"/>
          <path class="cls-1"
                d="M145.72,13.06a3.42,3.42,0,0,0-2.25-.69,4.68,4.68,0,0,0-1.82.35,5.79,5.79,0,0,0-1.57,1,4.82,4.82,0,0,1,.1.57c0,.21,0,.41,0,.61V25.78a3.32,3.32,0,0,1-.67.19,5.52,5.52,0,0,1-.92.08,2.31,2.31,0,0,1-1.45-.37,1.5,1.5,0,0,1-.48-1.25V15.25a2.65,2.65,0,0,0-.85-2.19,3.46,3.46,0,0,0-2.26-.69,5.31,5.31,0,0,0-1.8.3,6.49,6.49,0,0,0-1.42.68V25.78a3.63,3.63,0,0,1-.66.19,5.49,5.49,0,0,1-.94.08,2.31,2.31,0,0,1-1.45-.37,1.5,1.5,0,0,1-.48-1.25V13.25a2.35,2.35,0,0,1,.31-1.26,3.6,3.6,0,0,1,1-1A9.57,9.57,0,0,1,130.63,10a10.7,10.7,0,0,1,3-.44,8.76,8.76,0,0,1,2.86.44,5.08,5.08,0,0,1,2.09,1.29A8.35,8.35,0,0,1,140.84,10a8.52,8.52,0,0,1,3-.49,9.41,9.41,0,0,1,2.48.32,5.48,5.48,0,0,1,2,1,4.74,4.74,0,0,1,1.3,1.74,6,6,0,0,1,.48,2.51V25.78a4.63,4.63,0,0,1-1.63.27,2.36,2.36,0,0,1-1.46-.37,1.52,1.52,0,0,1-.47-1.25V15.25A2.7,2.7,0,0,0,145.72,13.06Z"/>
          <path class="cls-1"
                d="M157.52,19.72a4.68,4.68,0,0,0,1.85,2.86,6.13,6.13,0,0,0,3.51.93,7.56,7.56,0,0,0,2.61-.44,7.88,7.88,0,0,0,1.89-.95,1.69,1.69,0,0,1,1,1.53,1.56,1.56,0,0,1-.44,1.06,3.62,3.62,0,0,1-1.2.85,8,8,0,0,1-1.8.56,12.2,12.2,0,0,1-5.79-.34,7.36,7.36,0,0,1-2.76-1.63,7.24,7.24,0,0,1-1.78-2.67,10,10,0,0,1-.63-3.69,9.83,9.83,0,0,1,.61-3.58,7.46,7.46,0,0,1,1.66-2.57,7.06,7.06,0,0,1,2.48-1.58,8.47,8.47,0,0,1,3-.54,8,8,0,0,1,3,.53A6.88,6.88,0,0,1,167,11.5a6.3,6.3,0,0,1,1.49,2.22,7.4,7.4,0,0,1,.53,2.81,1.65,1.65,0,0,1-.41,1.24,2.19,2.19,0,0,1-1.18.52Zm4.21-7.46a4.15,4.15,0,0,0-3.1,1.26,5.11,5.11,0,0,0-1.31,3.59l8.34-1.19a4.37,4.37,0,0,0-1.12-2.59A3.64,3.64,0,0,0,161.73,12.26Z"/>
          <path class="cls-1"
                d="M172.6,22.63c.65-.83,1.32-1.65,2-2.46s1.34-1.61,2-2.42l-2.49-3.11-2.49-3.05a2.6,2.6,0,0,1,.66-1.36,1.63,1.63,0,0,1,1.23-.51,1.58,1.58,0,0,1,1.12.38,7.46,7.46,0,0,1,.88,1c.52.7,1.06,1.44,1.61,2.22s1.13,1.55,1.71,2.32l2.2-2.86c.7-.92,1.43-1.92,2.17-3a1.83,1.83,0,0,1,.44,0,2.32,2.32,0,0,1,1.49.44,1.4,1.4,0,0,1,.54,1.12,2.05,2.05,0,0,1-.21.93,7.35,7.35,0,0,1-.77,1.1c-.61.75-1.23,1.5-1.88,2.24s-1.27,1.49-1.88,2.24L186,24.32a2,2,0,0,1-.61,1.29,2,2,0,0,1-2.49.07,9.19,9.19,0,0,1-1-1.12l-1.61-2.25c-.55-.78-1.09-1.54-1.61-2.29l-2.23,3c-.75,1-1.47,2-2.17,3h-.54a2.44,2.44,0,0,1-1.58-.44,1.34,1.34,0,0,1-.52-1.08,1.7,1.7,0,0,1,.2-.83A6.32,6.32,0,0,1,172.6,22.63Z"/>
      </g>
      <g>
          <path class="cls-2"
                d="M17.18,29.17a1.42,1.42,0,0,1-.5-.08L1.1,23.9a1.6,1.6,0,1,1,1-3l15.07,5,14-4.66V9L17.69,13.51a1.59,1.59,0,0,1-1,0L8.93,10.93a1.6,1.6,0,1,1,1-3l7.24,2.41,15.08-5A1.61,1.61,0,0,1,34.37,6.8V22.38a1.6,1.6,0,0,1-1.1,1.52L17.69,29.09A1.44,1.44,0,0,1,17.18,29.17Z"/>
          <path class="cls-2"
                d="M17.18,21.74a1.43,1.43,0,0,1-.5-.09L1.1,16.46A1.6,1.6,0,0,1,0,14.94V6.8A1.59,1.59,0,0,1,1.1,5.28L16.68.08a1.6,1.6,0,0,1,1,3L3.21,8v5.83l14,4.66L24.57,16a1.6,1.6,0,1,1,1,3l-7.9,2.63A1.44,1.44,0,0,1,17.18,21.74Z"/>
      </g>
  </g>
</svg>
