<svg id="Layer_1" data-name="Layer 1" xmlns="http://www.w3.org/2000/svg" viewBox="0 0 5745.41 1189.83">
  <defs>
    <style>
      .cls-1 {
        fill: #19170f;
      }

      .cls-2 {
        fill: #fc0;
      }
    </style>
  </defs>
  <title>kargoaz</title>
  <g>
    <g>
      <path class="cls-1" d="M1724.65,582.65l201.64,308.42h-151.6l-135.92-207.6-35.84,41.82V891.07H1476V370.56h127V528.88l135.91-160.56h166.54Z"/>
      <path class="cls-1" d="M2375.86,826.85H2163l-24.65,64.22H2001l200.89-522h134.42l201.64,522H2400.51Zm-48.54-127L2269.07,549l-57.5,150.85Z"/>
      <path class="cls-1" d="M3015.13,668.53l89.61,222.54H2965.09l-77.67-198.64h-127.7V891.07H2632.77v-522h298c88.87,0,162.05,72.44,162.05,161.31C3092.79,588.62,3061.43,640.15,3015.13,668.53Zm-50-138.16A34.74,34.74,0,0,0,2930.74,496h-171v69.45h171C2949.41,565.47,2965.09,549.79,2965.09,530.37Z"/>
      <path class="cls-1" d="M3443,587.88h233V796.23l-17.92,18.67c-47.79,49.29-127.7,81.4-204.62,81.4-147.12,0-266.61-119.49-266.61-266.6s119.49-266.61,266.61-266.61c77.66,0,151.6,34.35,202.38,93.35l-96.34,82.89a140,140,0,0,0-106-49.28c-76.92,0-139.65,62.73-139.65,139.65s62.73,138.9,139.65,138.9c32.86,0,69.45-11.2,95.59-27.63V714.83H3443Z"/>
      <path class="cls-1" d="M4322.76,629A267.08,267.08,0,0,1,4055.41,896.3c-147.12,0-267.35-119.49-267.35-267.35,0-147.12,120.23-267.35,267.35-267.35C4203.28,361.6,4322.76,481.83,4322.76,629Zm-126.95,0a140.23,140.23,0,0,0-140.4-140.4c-76.92,0-140.4,62.73-140.4,140.4s63.48,140.4,140.4,140.4A140.23,140.23,0,0,0,4195.81,629Z"/>
      <path class="cls-2" d="M4434.78,839.55a68.76,68.76,0,0,1,5.23-26.89c3.73-8.21,8.21-15.68,14.93-21.66,6-6.72,13.45-11.2,21.66-14.93a71.72,71.72,0,0,1,53.77,0c8.22,3.73,15.68,8.21,22.41,14.93,6,6,10.45,13.45,14.18,21.66a68.76,68.76,0,0,1,5.23,26.89c0,9.7-1.49,18.67-5.23,26.88a76.35,76.35,0,0,1-14.18,22.4c-6.73,6-14.19,11.21-22.41,14.19-8.21,3.74-17.18,5.23-26.88,5.23s-18.67-1.49-26.89-5.23a60.59,60.59,0,0,1-21.66-14.19,65.45,65.45,0,0,1-14.93-22.4C4436.27,858.22,4434.78,849.25,4434.78,839.55Z"/>
      <path class="cls-2" d="M5059.1,826.85H4846.26l-24.64,64.22H4684.21l200.89-522h134.42l201.64,522H5083.75Zm-48.54-127L4952.31,549l-57.5,150.85Z"/>
      <path class="cls-2" d="M5502.7,761.88h242.71v127H5330.93V767.11L5563.19,496H5330.93V368.32h414.48V481.83Z"/>
    </g>
    <path class="cls-2" d="M1096.53,238.4a61.14,61.14,0,0,0-58.2-4.55l-499.77,223a61.2,61.2,0,0,0-37.5,56.06h0s0,0,0,.07v521.72L122.31,866.79V329.38L369.68,219l-18.84,55.28a60.56,60.56,0,0,0-3.23,19.58c0,22,11.9,42.76,31.3,51.1,25.12,10.81,53.28-3.31,62.89-31.53l48.25-141.56a62.62,62.62,0,0,0,2-7.47l95-42.4A61.16,61.16,0,1,0,537.29,10.33l-98.63,44a59.25,59.25,0,0,0-6.91-2.87L290.2,3.24A60.54,60.54,0,0,0,270.64,0c-22,0-42.76,11.91-51.11,31.31-10.81,25.11,3.31,53.27,31.54,62.89l55.68,19L36.25,233.85A61.15,61.15,0,0,0,0,289.7V906.58a61.14,61.14,0,0,0,36.38,55.91l500.72,222a61,61,0,0,0,8,2.94h.07a60.34,60.34,0,0,0,17,2.44h.14a61.13,61.13,0,0,0,17.75-2.65.06.06,0,0,1,.05,0h0a60.35,60.35,0,0,0,7.18-2.7l500.75-222a61.15,61.15,0,0,0,36.37-55.91V289.7A61.15,61.15,0,0,0,1096.53,238.4Zm-94.45,628.39L623.35,1034.67V552.91L1002.08,384Z"/>
  </g>
</svg>
