<svg id="Layer_1" data-name="Layer 1" xmlns="http://www.w3.org/2000/svg" viewBox="0 0 154.29 35.1">
    <defs>
        <style>
            .cls-1 {
            fill: #1637f2;
            }

            .cls-2 {
            fill: #f25c69;
            }
        </style>
    </defs>
    <title>express</title>
    <g>
        <g>
            <path class="cls-1"
                  d="M53.86,16.64A3.51,3.51,0,0,0,56.21,16a2.14,2.14,0,0,0,.76-1.7,1.93,1.93,0,0,0-.58-1.47,4.54,4.54,0,0,0-1.85-.93l-1.9-.59A10.39,10.39,0,0,1,51,10.65a5.17,5.17,0,0,1-1.23-.86A3.45,3.45,0,0,1,49,8.62a4.4,4.4,0,0,1-.26-1.56,3.77,3.77,0,0,1,1.48-3.15,6.35,6.35,0,0,1,4-1.15,10.54,10.54,0,0,1,1.93.16,6.44,6.44,0,0,1,1.53.46,3,3,0,0,1,1,.68,1.21,1.21,0,0,1,.37.85,1.25,1.25,0,0,1-.22.75,1.94,1.94,0,0,1-.51.52,6,6,0,0,0-1.66-.83A7.41,7.41,0,0,0,54.44,5a3.58,3.58,0,0,0-2.15.56,1.75,1.75,0,0,0-.76,1.49,1.54,1.54,0,0,0,.53,1.23,4.75,4.75,0,0,0,1.75.83l1.47.43a8.21,8.21,0,0,1,3.3,1.73,3.91,3.91,0,0,1,1.18,3,4.36,4.36,0,0,1-.39,1.86,4.23,4.23,0,0,1-1.13,1.46,5.07,5.07,0,0,1-1.84.94,8.63,8.63,0,0,1-2.49.33,10,10,0,0,1-2.13-.21,7.37,7.37,0,0,1-1.66-.53A3.39,3.39,0,0,1,49,17.37a1.36,1.36,0,0,1-.38-.91A1.3,1.3,0,0,1,49,15.6a1.92,1.92,0,0,1,.71-.53,6.9,6.9,0,0,0,1.66,1.06A5.72,5.72,0,0,0,53.86,16.64Z"/>
            <path class="cls-1"
                  d="M69.9,9.08a2.9,2.9,0,0,0-2-.65,3.94,3.94,0,0,0-1.48.27,4.91,4.91,0,0,0-1.18.64v9.12a2.49,2.49,0,0,1-.49.14,3.8,3.8,0,0,1-.7.06A1.8,1.8,0,0,1,63,18.39a1.12,1.12,0,0,1-.35-.94V2.07l.5-.12a3.22,3.22,0,0,1,.71-.08,1.68,1.68,0,0,1,1.08.28,1.15,1.15,0,0,1,.34.94v4a8.35,8.35,0,0,1,1.36-.55,5.79,5.79,0,0,1,1.73-.24,5.25,5.25,0,0,1,3.56,1.17A4.43,4.43,0,0,1,73.28,11v7.45a2.24,2.24,0,0,1-.5.14,3.85,3.85,0,0,1-.69.06,1.8,1.8,0,0,1-1.1-.27,1.15,1.15,0,0,1-.34-.94V11.12A2.55,2.55,0,0,0,69.9,9.08Z"/>
            <path class="cls-1"
                  d="M80,16.33a2.5,2.5,0,0,0,1.5.38,3.8,3.8,0,0,0,.91-.12,4.38,4.38,0,0,0,.83-.31,2.51,2.51,0,0,1,.32.46,1.28,1.28,0,0,1,.14.61A1.26,1.26,0,0,1,83,18.44a3.92,3.92,0,0,1-2,.43,5,5,0,0,1-3-.85,3.29,3.29,0,0,1-1.12-2.8V3.39l.5-.13A3.23,3.23,0,0,1,78,3.19a1.68,1.68,0,0,1,1.08.28,1.11,1.11,0,0,1,.34.93V6.91h3.93a2.25,2.25,0,0,1,.19.43,2.25,2.25,0,0,1,.08.58c0,.73-.31,1.09-.93,1.09H79.44v6A1.48,1.48,0,0,0,80,16.33Z"/>
            <path class="cls-1"
                  d="M97.45,12.59a7.35,7.35,0,0,1-.43,2.6,5.64,5.64,0,0,1-1.21,2,5.12,5.12,0,0,1-1.88,1.25,7.09,7.09,0,0,1-5,0,5.12,5.12,0,0,1-1.88-1.25,5.64,5.64,0,0,1-1.21-2,7.58,7.58,0,0,1-.43-2.6A7.6,7.6,0,0,1,85.87,10a5.66,5.66,0,0,1,1.22-2A5.29,5.29,0,0,1,89,6.75a6.92,6.92,0,0,1,4.91,0A5.1,5.1,0,0,1,95.8,8,5.7,5.7,0,0,1,97,10,7.31,7.31,0,0,1,97.45,12.59Zm-6-4.16A2.92,2.92,0,0,0,89,9.52a4.76,4.76,0,0,0-.89,3.07A4.81,4.81,0,0,0,89,15.64a3.31,3.31,0,0,0,4.87,0,4.81,4.81,0,0,0,.86-3.05,4.78,4.78,0,0,0-.88-3.06A2.91,2.91,0,0,0,91.45,8.43Z"/>
            <path class="cls-1"
                  d="M103,18.46a2.62,2.62,0,0,1-.5.14,3.73,3.73,0,0,1-.7.06,1.77,1.77,0,0,1-1.08-.27,1.12,1.12,0,0,1-.36-.94V9.14a2,2,0,0,1,.25-1,2.57,2.57,0,0,1,.81-.74,6.74,6.74,0,0,1,1.88-.76,9.43,9.43,0,0,1,2.51-.31c1.48,0,2.23.43,2.23,1.27a1.56,1.56,0,0,1-.11.57,2.56,2.56,0,0,1-.22.47,5.83,5.83,0,0,0-.64-.1,5.18,5.18,0,0,0-.81,0,7.64,7.64,0,0,0-1.85.21,6,6,0,0,0-1.41.55Z"/>
            <path class="cls-1"
                  d="M124.16,9a2.53,2.53,0,0,0-1.69-.52,3.46,3.46,0,0,0-1.35.27,4.35,4.35,0,0,0-1.18.72,2.74,2.74,0,0,1,.08.43c0,.15,0,.3,0,.46v8.15a2.42,2.42,0,0,1-.5.14,3.85,3.85,0,0,1-.69.06,1.8,1.8,0,0,1-1.09-.27,1.15,1.15,0,0,1-.35-.94V10.58A2,2,0,0,0,116.78,9a2.6,2.6,0,0,0-1.7-.52,4,4,0,0,0-1.34.23,4.86,4.86,0,0,0-1.07.51v9.29a2.49,2.49,0,0,1-.49.14,3.73,3.73,0,0,1-.7.06,1.8,1.8,0,0,1-1.09-.27,1.15,1.15,0,0,1-.35-.94V9.09a1.66,1.66,0,0,1,.23-.94,2.64,2.64,0,0,1,.76-.71,7,7,0,0,1,1.84-.81,8,8,0,0,1,2.26-.33,6.5,6.5,0,0,1,2.14.33,4,4,0,0,1,1.56,1,6.41,6.41,0,0,1,1.68-.92,6.55,6.55,0,0,1,2.27-.37,6.89,6.89,0,0,1,1.85.24,4,4,0,0,1,1.48.76,3.56,3.56,0,0,1,1,1.31,4.46,4.46,0,0,1,.36,1.87v8a3.45,3.45,0,0,1-.52.14,3.73,3.73,0,0,1-.7.06,1.8,1.8,0,0,1-1.09-.27,1.15,1.15,0,0,1-.35-.94V10.58A2,2,0,0,0,124.16,9Z"/>
            <path class="cls-1"
                  d="M133,13.93a3.43,3.43,0,0,0,1.38,2.14,4.58,4.58,0,0,0,2.62.69,5.54,5.54,0,0,0,1.95-.32,6.45,6.45,0,0,0,1.42-.71,1.26,1.26,0,0,1,.71,1.14,1.16,1.16,0,0,1-.33.79,2.73,2.73,0,0,1-.9.64,6.24,6.24,0,0,1-1.34.41,8,8,0,0,1-1.66.16,8.42,8.42,0,0,1-2.68-.41,5.51,5.51,0,0,1-2.06-1.21,5.44,5.44,0,0,1-1.33-2,7.52,7.52,0,0,1-.47-2.76,7.11,7.11,0,0,1,.46-2.67A5.27,5.27,0,0,1,132,7.89a5.19,5.19,0,0,1,1.85-1.18,6.36,6.36,0,0,1,2.28-.41,5.8,5.8,0,0,1,2.21.4,5.14,5.14,0,0,1,1.73,1.09,4.71,4.71,0,0,1,1.11,1.65,5.62,5.62,0,0,1,.39,2.11,1.23,1.23,0,0,1-.3.92,1.57,1.57,0,0,1-.89.39Zm3.14-5.57a3.14,3.14,0,0,0-2.32.93,3.86,3.86,0,0,0-1,2.69l6.24-.89a3.21,3.21,0,0,0-.84-1.94A2.72,2.72,0,0,0,136.13,8.36Z"/>
            <path class="cls-1"
                  d="M144.26,16.11c.49-.63,1-1.24,1.49-1.84s1-1.2,1.5-1.81l-1.87-2.33-1.86-2.28a2,2,0,0,1,.5-1,1.19,1.19,0,0,1,.92-.38,1.23,1.23,0,0,1,.84.27,6.51,6.51,0,0,1,.66.74l1.2,1.66c.41.58.84,1.16,1.28,1.73.57-.74,1.12-1.45,1.64-2.14s1.07-1.43,1.63-2.24a1.47,1.47,0,0,1,.32,0,1.78,1.78,0,0,1,1.12.32,1,1,0,0,1,.4.84,1.5,1.5,0,0,1-.16.7,5.7,5.7,0,0,1-.57.82c-.46.56-.92,1.12-1.41,1.67s-.95,1.12-1.4,1.67l3.8,4.89a1.46,1.46,0,0,1-.46,1,1.48,1.48,0,0,1-1.86.06,7.45,7.45,0,0,1-.77-.84L150,15.87l-1.2-1.71c-.56.74-1.11,1.49-1.67,2.24s-1.1,1.5-1.62,2.26h-.41a1.78,1.78,0,0,1-1.17-.33,1,1,0,0,1-.4-.81,1.25,1.25,0,0,1,.16-.62A4.43,4.43,0,0,1,144.26,16.11Z"/>
        </g>
        <g>
            <path class="cls-2"
                  d="M20.67,35.1a1.76,1.76,0,0,1-.6-.1L1.32,28.75a1.93,1.93,0,0,1,1.22-3.66l18.13,6.05,16.82-5.61V10.85L21.28,16.26a1.93,1.93,0,0,1-1.21,0l-9.33-3.11A1.93,1.93,0,0,1,12,9.49l8.71,2.9,18.14-6a1.93,1.93,0,0,1,1.74.26,2,2,0,0,1,.8,1.57V26.92A1.92,1.92,0,0,1,40,28.75L21.28,35A1.77,1.77,0,0,1,20.67,35.1Z"/>
            <path class="cls-2"
                  d="M20.67,26.15a1.76,1.76,0,0,1-.6-.1L1.32,19.8A1.91,1.91,0,0,1,0,18V8.18A1.92,1.92,0,0,1,1.32,6.35L20.07.1a1.93,1.93,0,0,1,1.21,3.66L3.86,9.57v7l16.81,5.61,8.9-3a1.93,1.93,0,1,1,1.22,3.66l-9.51,3.16A1.77,1.77,0,0,1,20.67,26.15Z"/>
        </g>
        <g>
            <path class="cls-2" d="M53.34,28.66H50.46v2.67h3.21v.81H49.5V24.72h4v.81h-3v2.34h2.88Z"/>
            <path class="cls-2"
                  d="M57.38,26.81,58.14,28c.19.29.36.57.54.87h0c.17-.32.35-.6.53-.88L60,26.81H61l-1.82,2.58,1.87,2.75H60l-.78-1.2c-.21-.31-.38-.61-.57-.93h0c-.18.32-.36.61-.56.93l-.77,1.2H56.21l1.89-2.72-1.8-2.61Z"/>
            <path class="cls-2"
                  d="M64.06,28.55c0-.68,0-1.23,0-1.74h.87l0,.92h0a2.08,2.08,0,0,1,1.89-1c1.29,0,2.25,1.09,2.25,2.71,0,1.91-1.16,2.86-2.42,2.86A1.87,1.87,0,0,1,65,31.42h0v2.9h-1ZM65,30a1.68,1.68,0,0,0,0,.4,1.48,1.48,0,0,0,1.45,1.13c1,0,1.62-.84,1.62-2.06,0-1.06-.57-2-1.59-2a1.55,1.55,0,0,0-1.46,1.2,1.34,1.34,0,0,0-.07.4Z"/>
            <path class="cls-2" d="M72.37,28.47c0-.62,0-1.16-.05-1.66h.85l0,1.05h0a1.59,1.59,0,0,1,1.47-1.17.82.82,0,0,1,.28,0v.91a1.57,1.57,0,0,0-.33,0,1.36,1.36,0,0,0-1.3,1.25,2.89,2.89,0,0,0,0,.45v2.84h-1Z"/>
            <path class="cls-2"
                  d="M78.44,29.65a1.71,1.71,0,0,0,1.83,1.85,3.38,3.38,0,0,0,1.47-.28l.17.7a4.4,4.4,0,0,1-1.77.33,2.48,2.48,0,0,1-2.62-2.69A2.58,2.58,0,0,1,80,26.69a2.26,2.26,0,0,1,2.21,2.51,3.52,3.52,0,0,1,0,.45ZM81.28,29a1.38,1.38,0,0,0-1.34-1.58A1.62,1.62,0,0,0,78.45,29Z"/>
            <path class="cls-2"
                  d="M85.33,31.15a2.58,2.58,0,0,0,1.27.38c.71,0,1-.35,1-.79s-.28-.71-1-1c-1-.34-1.41-.87-1.41-1.51a1.64,1.64,0,0,1,1.84-1.56,2.77,2.77,0,0,1,1.31.33l-.25.71a2,2,0,0,0-1.09-.31c-.57,0-.89.33-.89.72s.32.64,1,.91c.92.35,1.39.81,1.39,1.6,0,.94-.72,1.6-2,1.6a3.08,3.08,0,0,1-1.5-.37Z"/>
            <path class="cls-2"
                  d="M91.73,31.15a2.62,2.62,0,0,0,1.28.38c.7,0,1-.35,1-.79s-.28-.71-1-1c-1-.34-1.41-.87-1.41-1.51a1.64,1.64,0,0,1,1.84-1.56,2.73,2.73,0,0,1,1.31.33l-.24.71a2,2,0,0,0-1.09-.31c-.58,0-.89.33-.89.72s.31.64,1,.91c.92.35,1.4.81,1.4,1.6,0,.94-.73,1.6-2,1.6a3,3,0,0,1-1.49-.37Z"/>
            <path class="cls-2"
                  d="M102.67,24.82a13.61,13.61,0,0,1,2-.15,4.25,4.25,0,0,1,3,.92,3.43,3.43,0,0,1,1.05,2.66,4,4,0,0,1-1.07,2.89,4.58,4.58,0,0,1-3.28,1.06,17.14,17.14,0,0,1-1.74-.08Zm1,6.56a6.69,6.69,0,0,0,1,.05,2.85,2.85,0,0,0,3.16-3.14c0-1.75-1-2.86-3-2.86a5.09,5.09,0,0,0-1.12.1Z"/>
            <path class="cls-2"
                  d="M112.6,29.65a1.7,1.7,0,0,0,1.82,1.85,3.46,3.46,0,0,0,1.48-.28l.16.7a4.36,4.36,0,0,1-1.77.33,2.48,2.48,0,0,1-2.62-2.69,2.59,2.59,0,0,1,2.5-2.87,2.26,2.26,0,0,1,2.2,2.51,4,4,0,0,1,0,.45Zm2.83-.69a1.37,1.37,0,0,0-1.34-1.58A1.6,1.6,0,0,0,112.61,29Z"/>
            <path class="cls-2" d="M119.61,24.33h1v7.81h-1Z"/>
            <path class="cls-2" d="M125.33,25.32a.56.56,0,0,1-.61.59.58.58,0,0,1-.59-.59.6.6,0,0,1,.61-.61A.58.58,0,0,1,125.33,25.32Zm-1.07,6.82V26.81h1v5.33Z"/>
            <path class="cls-2" d="M129.25,26.81l1.05,3c.17.48.31.92.42,1.36h0c.12-.44.27-.88.45-1.36l1-3h1l-2.09,5.33h-.92l-2-5.33Z"/>
            <path class="cls-2"
                  d="M136.64,29.65a1.71,1.71,0,0,0,1.83,1.85,3.38,3.38,0,0,0,1.47-.28l.17.7a4.4,4.4,0,0,1-1.77.33,2.48,2.48,0,0,1-2.62-2.69,2.58,2.58,0,0,1,2.49-2.87,2.26,2.26,0,0,1,2.21,2.51,3.52,3.52,0,0,1,0,.45Zm2.84-.69a1.38,1.38,0,0,0-1.34-1.58A1.62,1.62,0,0,0,136.65,29Z"/>
            <path class="cls-2" d="M143.66,28.47c0-.62,0-1.16,0-1.66h.85l0,1.05h0A1.59,1.59,0,0,1,146,26.69a.82.82,0,0,1,.28,0v.91a1.57,1.57,0,0,0-.33,0,1.36,1.36,0,0,0-1.3,1.25,2.89,2.89,0,0,0,0,.45v2.84h-1Z"/>
            <path class="cls-2"
                  d="M149.93,26.81,151.1,30c.12.35.25.77.34,1.09h0c.1-.32.21-.73.34-1.11l1.06-3.13h1l-1.45,3.8a8.19,8.19,0,0,1-1.83,3.33,2.68,2.68,0,0,1-1.19.63l-.24-.82a2.52,2.52,0,0,0,.85-.47,3,3,0,0,0,.81-1.08.57.57,0,0,0,.08-.23.73.73,0,0,0-.07-.25l-2-4.91Z"/>
        </g>
    </g>
</svg>
