<svg xmlns="http://www.w3.org/2000/svg" width="290.152" height="266" viewBox="0 0 290.152 266">
  <g id="Emails-amico_1_" data-name="Emails-amico (1)" transform="translate(-26.6 -67.411)">
    <g id="freepik--Floor--inject-69" transform="translate(26.6 162.983)">
      <ellipse id="freepik--floor--inject-69-2" data-name="freepik--floor--inject-69" cx="145.076" cy="85.214" rx="145.076" ry="85.214" fill="#393939"/>
    </g>
    <g id="freepik--Shadows--inject-69" transform="translate(33.667 181.058)">
      <path id="freepik--Shadow--inject-69" d="M74.185,343.951c8.39,4.845,8.39,12.7,0,17.534s-22.008,4.845-30.4,0-8.4-12.709,0-17.534S65.743,339.1,74.185,343.951Z" transform="translate(-37.482 -276.741)" fill="#606060"/>
      <path id="freepik--shadow--inject-69-2" data-name="freepik--shadow--inject-69" d="M121.709,320.762l76.149,43.964a6.215,6.215,0,0,0,5.624,0L332.387,290.3c1.552-.9,1.552-2.351,0-3.247l-76.149-43.971a6.215,6.215,0,0,0-5.624,0L121.709,317.515C120.15,318.411,120.15,319.865,121.709,320.762Z" transform="translate(-66.602 -242.414)" fill="#606060"/>
    </g>
    <g id="freepik--Plants--inject-69" transform="translate(273.452 163.307)">
      <g id="freepik--plants--inject-69-2" data-name="freepik--plants--inject-69">
        <path id="Path_493" data-name="Path 493" d="M414.228,264.954l-5.306-3.065s-3.163-13.124-1.9-24.93c1.773-16.6,10.7-23.826,16.852-21.43,4.091,1.611,5.358,6.26-1.52,16.151C418.3,237.53,413.319,249.674,414.228,264.954Z" transform="translate(-406.723 -215.08)" fill="#fc0"/>
        <g id="Group_42" data-name="Group 42" opacity="0.3">
          <path id="Path_494" data-name="Path 494" d="M414.228,264.954l-5.306-3.065s-3.163-13.124-1.9-24.93c1.773-16.6,10.7-23.826,16.852-21.43,4.091,1.611,5.358,6.26-1.52,16.151C418.3,237.53,413.319,249.674,414.228,264.954Z" transform="translate(-406.723 -215.08)"/>
        </g>
        <path id="Path_495" data-name="Path 495" d="M414.267,260.02h.071a.364.364,0,0,0,.292-.429c-2.909-15.306,2.442-32.515,9.092-39.672a.37.37,0,0,0-.545-.5c-6.741,7.293-12.2,24.775-9.241,40.308A.357.357,0,0,0,414.267,260.02Z" transform="translate(-408.964 -216.562)" fill="#fff"/>
        <path id="Path_496" data-name="Path 496" d="M429.725,280.362c.838.422,3.065-1.487,3.689-1.948a7.793,7.793,0,0,0,2.435-3.1,7.319,7.319,0,0,0,.422-4.409,17.168,17.168,0,0,0-.649-2.3l-.76-2.221a5.727,5.727,0,0,1-.448-2.26c.117-1.559,1.435-2.708,2.637-3.7,1.3-1.1,2.689-2.539,2.6-4.4a6.552,6.552,0,0,0-1.838-3.812c-.942-1.078-2.052-2.02-2.916-3.169a4.578,4.578,0,0,1-1.078-2.844,4.76,4.76,0,0,1,.539-1.838,25.7,25.7,0,0,0,1.792-3.715,3.66,3.66,0,0,0-.818-3.818,4.358,4.358,0,0,0-3.247-.649,7.377,7.377,0,0,0-2.922,1.195c-2.87,1.792-4.377,5.377-7.449,6.793a31.819,31.819,0,0,1-3.741,1.123,4.673,4.673,0,0,0-3.02,2.292c-1.039,2.357,1.24,5.078.552,7.559-.6,2.195-2.656,3.124-3.734,5.13a4.546,4.546,0,0,0-.409,2.851,13.5,13.5,0,0,0,1.429,4.708,41.373,41.373,0,0,0,2.838,4.357S429.6,280.3,429.725,280.362Z" transform="translate(-408.323 -222.462)" fill="#fc0"/>
        <g id="Group_43" data-name="Group 43" transform="translate(2.964 13.672)" opacity="0.15">
          <path id="Path_497" data-name="Path 497" d="M429.725,280.362c.838.422,3.065-1.487,3.689-1.948a7.793,7.793,0,0,0,2.435-3.1,7.319,7.319,0,0,0,.422-4.409,17.168,17.168,0,0,0-.649-2.3l-.76-2.221a5.727,5.727,0,0,1-.448-2.26c.117-1.559,1.435-2.708,2.637-3.7,1.3-1.1,2.689-2.539,2.6-4.4a6.552,6.552,0,0,0-1.838-3.812c-.942-1.078-2.052-2.02-2.916-3.169a4.578,4.578,0,0,1-1.078-2.844,4.76,4.76,0,0,1,.539-1.838,25.7,25.7,0,0,0,1.792-3.715,3.66,3.66,0,0,0-.818-3.818,4.358,4.358,0,0,0-3.247-.649,7.377,7.377,0,0,0-2.922,1.195c-2.87,1.792-4.377,5.377-7.449,6.793a31.819,31.819,0,0,1-3.741,1.123,4.673,4.673,0,0,0-3.02,2.292c-1.039,2.357,1.24,5.078.552,7.559-.6,2.195-2.656,3.124-3.734,5.13a4.546,4.546,0,0,0-.409,2.851,13.5,13.5,0,0,0,1.429,4.708,41.373,41.373,0,0,0,2.838,4.357S429.6,280.3,429.725,280.362Z" transform="translate(-411.287 -236.134)"/>
        </g>
        <path id="Path_498" data-name="Path 498" d="M426.854,277.738h0a.37.37,0,0,0,.338-.4c-1.344-14.56,4.721-31.015,9.481-35.951a.37.37,0,1,0-.526-.513c-4.864,5.033-11.04,21.768-9.689,36.529a.37.37,0,0,0,.4.338Z" transform="translate(-413.576 -224.071)" fill="#fff"/>
        <path id="Path_499" data-name="Path 499" d="M429.2,268.463h.11a48.781,48.781,0,0,1,10.5-2.24.37.37,0,0,0,.331-.4.351.351,0,0,0-.4-.331,50.4,50.4,0,0,0-10.689,2.279.37.37,0,0,0,.143.714Z" transform="translate(-414.47 -232.752)" fill="#fff"/>
      </g>
    </g>
    <g id="freepik--Device--inject-69" transform="translate(86.785 67.411)">
      <g id="freepik--Laptop--inject-69">
        <path id="Path_500" data-name="Path 500" d="M126.34,308.939a6.89,6.89,0,0,0,3.215,5.332L199.5,354.644a7.143,7.143,0,0,0,6.423,0l123.133-71.09a6.026,6.026,0,0,0,0-10.663L259.123,232.5a7.085,7.085,0,0,0-6.423,0L129.555,303.6a6.9,6.9,0,0,0-3.215,5.338Z" transform="translate(-121.754 -125.023)" fill="#37474f"/>
        <path id="Path_501" data-name="Path 501" d="M130.572,307.309,200.519,347.7a7.085,7.085,0,0,0,6.423,0l123.133-71.1c1.779-1.026,1.779-2.689,0-3.708L260.14,232.5a7.085,7.085,0,0,0-6.423,0L130.572,303.6C128.8,304.64,128.8,306.289,130.572,307.309Z" transform="translate(-122.772 -125.023)" fill="#455a64"/>
        <path id="Path_502" data-name="Path 502" d="M202.7,387.379v6.955a6.552,6.552,0,0,1-3.247-.766l-69.9-40.386a6.013,6.013,0,0,1-.325-10.462c-1.442,1.033-1.3,2.546.325,3.507L199.5,386.613a6.624,6.624,0,0,0,3.2.766Z" transform="translate(-121.754 -163.935)" fill="#263238"/>
        <path id="Path_503" data-name="Path 503" d="M120.851,246.107c-1.662-.961-1.572-2.6-1.572-4.63v-96.6a7.143,7.143,0,0,1,3.247-5.565l123.113-71.1a6.89,6.89,0,0,1,6.221-.117c1.669.961,1.578,2.6,1.578,4.637v96.592a7.1,7.1,0,0,1-3.215,5.565l-123.146,71.1a6.884,6.884,0,0,1-6.228.117Z" transform="translate(-119.279 -67.413)" fill="#37474f"/>
        <path id="Path_504" data-name="Path 504" d="M253.951,72.729c0-2.046-1.442-2.87-3.215-1.851l-123.146,71.1a6.494,6.494,0,0,0-2.273,2.4l-4.578-2.663h0a6.546,6.546,0,0,1,2.273-2.4l123.133-71.1a6.884,6.884,0,0,1,6.228-.117C254.036,69.092,253.951,70.683,253.951,72.729Z" transform="translate(-119.791 -67.411)" fill="#455a64"/>
        <path id="Path_505" data-name="Path 505" d="M126.7,286.3a6.9,6.9,0,0,1-5.845-.078c-1.662-.961-1.578-2.6-1.578-4.63v-96.6a6.494,6.494,0,0,1,.942-3.163l4.585,2.656h0a6.585,6.585,0,0,0-.942,3.163v96.6C123.864,286.15,125.1,287.007,126.7,286.3Z" transform="translate(-119.279 -107.527)" fill="#263238"/>
        <path id="Path_506" data-name="Path 506" d="M132.948,150.791l118.7-68.531c1.065-.649,1.948-.117,1.948,1.11v84.344a4.254,4.254,0,0,1-1.948,3.338l-118.7,68.512c-1.065.61-1.948.117-1.948-1.117V154.129A4.267,4.267,0,0,1,132.948,150.791Z" transform="translate(-123.388 -72.519)" fill="#d9d9d9"/>
        <path id="Path_507" data-name="Path 507" d="M144.633,306.861l114.294-66a3.533,3.533,0,0,1,3.208,0l1.9,1.046a.98.98,0,0,1,0,1.857L149.744,309.744a3.552,3.552,0,0,1-3.247,0l-1.883-1.033A.974.974,0,0,1,144.633,306.861Z" transform="translate(-127.93 -128.088)" fill="#263238"/>
        <path id="Path_508" data-name="Path 508" d="M158.375,315.038l114.294-65.992a3.279,3.279,0,0,1,2.935-.162l29.749,17.183c.734.422.61,1.182-.273,1.695l-114.158,65.9a3.318,3.318,0,0,1-2.942.169l-29.872-17.1C157.368,316.311,157.492,315.551,158.375,315.038Z" transform="translate(-132.723 -130.94)" fill="#263238"/>
        <path id="Path_509" data-name="Path 509" d="M258.987,278.136l3.585-2.065c.149-.084.162-.221,0-.3l-3.422-1.948a.584.584,0,0,0-.519,0l-3.578,2.072c-.156.084-.169.221,0,.3l3.422,1.948A.565.565,0,0,0,258.987,278.136Zm-5.2-7.143-3.578,2.065c-.156.084-.169.221-.032.3L253.6,275.3a.584.584,0,0,0,.52,0l3.578-2.072c.156-.084.169-.221.032-.3l-3.422-1.948a.565.565,0,0,0-.546.006Zm-11.566,6.676-6.052,3.494c-.156.084-.169.221-.032.3l3.422,1.981a.584.584,0,0,0,.52,0l6.059-3.5c.149-.084.162-.221,0-.3l-3.429-1.948a.565.565,0,0,0-.513-.052Zm6.332-3.656-3.578,2.065c-.149.084-.162.221-.032.3l3.429,1.948a.585.585,0,0,0,.52,0l3.578-2.072c.149-.084.162-.221,0-.3l-3.429-1.948a.565.565,0,0,0-.513-.019Zm-14.04,8.1-3.578,2.065c-.149.091-.162.221-.032.3l3.429,1.948a.591.591,0,0,0,.52,0l3.578-2.065c.149-.091.162-.221.032-.305l-3.429-1.948a.565.565,0,0,0-.546-.02Zm-5.228,3.02-3.617,2.039c-.156.091-.169.221,0,.3l3.422,1.981a.584.584,0,0,0,.52,0l3.578-2.065c.156-.091.169-.221.032-.305l-3.422-1.948a.565.565,0,0,0-.539-.026Zm13.417,8.066,3.585-2.065c.149-.091.162-.221,0-.3l-3.422-1.948a.565.565,0,0,0-.52,0l-3.578,2.065c-.156.091-.169.221-.032.3l3.422,1.981a.585.585,0,0,0,.52-.058Zm-5.228,3.02,3.578-2.065c.149-.091.169-.221.032-.3l-3.422-1.981a.578.578,0,0,0-.526,0l-3.578,2.065c-.149.091-.162.221,0,.3l3.422,1.948a.584.584,0,0,0,.468.006Zm-5.234,3.02,3.585-2.065c.149-.091.162-.221,0-.3l-3.422-1.981a.565.565,0,0,0-.52,0l-3.578,2.072c-.156.091-.169.221-.032.3l3.422,1.981a.565.565,0,0,0,.52-.032Zm-5.273,2.994,3.578-2.065c.156-.091.169-.221,0-.3l-3.422-1.981a.565.565,0,0,0-.52,0l-3.533,2.085c-.149.091-.162.221,0,.3l3.422,1.981A.565.565,0,0,0,226.971,302.235ZM253.74,281.13l3.578-2.065c.149-.084.169-.221.032-.3l-3.422-1.948a.584.584,0,0,0-.519,0l-3.585,2.072c-.149.084-.162.221,0,.3l3.422,1.948a.565.565,0,0,0,.513-.007Zm-5.845,9.027,7.981-4.611c.156-.084.169-.221,0-.3l-8.312-4.8a.6.6,0,0,0-.526,0l-4.124,2.383c-.156.091-.169.227-.032.305l4.4,2.539c.136.078.117.214-.032.3l-3.254,1.9c-.149.091-.162.221,0,.3l3.422,1.981a.585.585,0,0,0,.494,0ZM224.01,288.13l-3.533,2.065c-.149.091-.162.221,0,.3l3.422,1.981a.584.584,0,0,0,.52,0L228,290.41c.149-.091.162-.221.032-.3L224.6,288.13a.565.565,0,0,0-.571,0Zm-5.208,2.994-3.578,2.065c-.156.091-.169.221,0,.3l3.422,1.981a.565.565,0,0,0,.52,0l3.578-2.065c.156-.091.169-.221.032-.3l-3.455-1.981A.565.565,0,0,0,218.8,291.124Zm-28.944,32.243a.565.565,0,0,0,.52,0l3.578-2.065c.149-.084.162-.221.032-.3l-3.429-1.948a.565.565,0,0,0-.52,0l-3.578,2.065c-.149.091-.162.227-.032.305Zm-12.891-8.059-3.578,2.065c-.149.091-.169.227-.032.305l3.429,1.948a.565.565,0,0,0,.52,0l3.578-2.065c.149-.084.162-.221,0-.3l-3.422-1.948a.565.565,0,0,0-.494-.007Zm6.63,6.059a.6.6,0,0,0,.526,0L187.7,319.3c.149-.091.162-.227,0-.305l-3.422-1.948a.565.565,0,0,0-.52,0l-3.546,2.039c-.149.084-.169.221-.032.3Zm14.436,3.247,3.578-2.065c.149-.084.162-.221,0-.3l-3.429-1.948a.584.584,0,0,0-.52,0l-3.578,2.072c-.149.084-.162.221,0,.3l3.422,1.948a.565.565,0,0,0,.513-.013Zm-5.754,3.039a.565.565,0,0,0,.52,0l3.578-2.065c.156-.084.169-.221,0-.3l-3.422-1.948a.585.585,0,0,0-.52,0l-3.578,2.072c-.156.084-.169.221-.032.3Zm-10.118-15.365-3.585,2.065c-.149.091-.162.227,0,.305L182,316.606a.565.565,0,0,0,.52,0l3.578-2.065c.156-.084.169-.221.032-.3l-3.422-1.981a.584.584,0,0,0-.545.026Zm26.151-15.1-3.578,2.065c-.156.091-.169.221-.032.3l3.422,1.948a.565.565,0,0,0,.52,0l3.585-2.065c.149-.091.162-.221,0-.3l-3.422-1.981a.565.565,0,0,0-.468.032Zm-20.924,12.079-3.578,2.065c-.149.091-.169.227-.032.305l3.422,1.948a.578.578,0,0,0,.526,0l3.578-2.065c.149-.091.162-.221,0-.3l-3.422-1.948a.584.584,0,0,0-.468-.006Zm26.151-15.1-3.578,2.065c-.149.091-.162.221,0,.3l3.422,1.981a.565.565,0,0,0,.52,0l3.578-2.065c.149-.091.162-.221.032-.3l-3.429-1.948a.565.565,0,0,0-.52-.032Zm-10.436,6.046-3.578,2.065c-.149.091-.162.221,0,.3l3.422,1.981a.565.565,0,0,0,.52,0l3.578-2.065c.149-.091.169-.221.032-.3l-3.448-1.981A.578.578,0,0,0,203.106,300.216Zm-5.228,3.02L194.3,305.3c-.156.091-.169.221-.032.3l3.422,1.981a.565.565,0,0,0,.52,0l3.585-2.065c.149-.091.162-.221,0-.3l-3.4-2.007a.584.584,0,0,0-.52.02Zm-5.2,3.02L189.1,308.32c-.149.091-.162.227,0,.305l3.422,1.948a.565.565,0,0,0,.52,0l3.578-2.065c.156-.091.169-.221.032-.3l-3.448-1.981a.584.584,0,0,0-.552.019Zm23.878,2.026,3.578-2.065c.156-.091.169-.221,0-.3l-3.422-1.948a.584.584,0,0,0-.52,0l-3.585,2.065c-.149.091-.162.221,0,.3l3.422,1.981a.565.565,0,0,0,.494-.039Zm48.8-43.984-3.578,2.065c-.149.084-.162.221-.032.3l3.429,1.948a.585.585,0,0,0,.52,0l3.578-2.072c.149-.084.162-.221.032-.3l-3.429-1.948a.565.565,0,0,0-.552,0Zm-6.332,3.65-3.578,2.072c-.149.084-.162.221-.032.3l3.429,1.948a.584.584,0,0,0,.519,0l3.578-2.072c.149-.084.162-.221.032-.3l-3.429-1.948a.585.585,0,0,0-.552-.006Zm11.533-6.7-3.578,2.065c-.156.084-.169.221-.032.3l3.422,1.948a.584.584,0,0,0,.52,0l3.578-2.072c.156-.084.169-.221.032-.3l-3.422-1.948A.565.565,0,0,0,270.559,261.252Zm-28.911,26.872,3.578-2.065c.149-.084.162-.221.032-.3l-3.429-1.948a.584.584,0,0,0-.519,0l-3.578,2.072c-.149.084-.162.221-.032.3l3.429,1.948a.565.565,0,0,0,.52-.007Zm34.658-29.872a.584.584,0,0,0-.519,0l-3.578,2.072c-.149.084-.162.221-.032.3l3.429,1.948a.585.585,0,0,0,.52,0L279.7,260.5c.149-.084.162-.221.032-.3Zm-54.55,47.023,3.578-2.065c.149-.091.162-.221,0-.3l-3.422-1.981a.565.565,0,0,0-.52,0l-3.513,2.065c-.149.091-.169.221,0,.3l3.422,1.981a.578.578,0,0,0,.474-.019ZM285.9,268.259l3.578-2.065c.156-.084.169-.221.032-.3l-3.442-2.046a.585.585,0,0,0-.52,0l-3.578,2.065c-.156.091-.169.227-.032.305l3.422,1.948a.565.565,0,0,0,.546.052Zm-10.124.195,3.585-2.065c.149-.084.162-.221,0-.3l-3.422-1.948a.584.584,0,0,0-.519,0l-3.578,2.072c-.156.084-.169.221-.032.3l3.422,1.948a.565.565,0,0,0,.552-.065Zm5.416-7.358a.585.585,0,0,0-.52,0l-3.578,2.072c-.149.084-.162.221,0,.3l3.422,1.948a.565.565,0,0,0,.52,0l3.578-2.065c.149-.084.169-.221,0-.3Zm1.1-.649,8.312,4.8a.578.578,0,0,0,.526,0l3.578-2.065c.149-.084.162-.221,0-.3l-8.312-4.8a.584.584,0,0,0-.52,0l-3.578,2.065c-.13.058-.13.195,0,.273Zm-12.079,6.65-3.578,2.072c-.149.084-.162.221,0,.3l3.422,1.948a.565.565,0,0,0,.52,0l3.578-2.065c.149-.084.169-.221.032-.3l-3.422-1.948A.6.6,0,0,0,270.215,267.1Zm-39.347,22.729L227.29,291.9c-.149.084-.162.221,0,.3l3.429,1.948a.565.565,0,0,0,.519,0l3.526-2.046c.149-.084.162-.221.032-.3l-3.429-1.948A.584.584,0,0,0,230.868,289.825Zm49.309-18.579a.565.565,0,0,0,.52,0l3.578-2.065c.149-.084.162-.221,0-.3l-3.4-1.987a.585.585,0,0,0-.52,0l-3.578,2.065c-.149.091-.162.227-.032.305ZM236.1,286.831l-3.578,2.072c-.156.084-.169.221,0,.3l3.422,1.948a.565.565,0,0,0,.52,0l3.578-2.065c.156-.084.169-.221.032-.3l-3.422-1.948a.584.584,0,0,0-.591-.019Zm-41.016,33.516a.565.565,0,0,0,.52,0l3.578-2.065c.156-.084.169-.221,0-.3l-3.383-1.974a.584.584,0,0,0-.52,0l-3.578,2.065c-.156.091-.169.227-.032.305Zm-6.078-6.371-3.6,2.091c-.149.084-.162.221,0,.3l3.422,1.948a.565.565,0,0,0,.52,0l3.578-2.065c.156-.091.169-.227.032-.305L189.54,314a.565.565,0,0,0-.533.007Zm11.832,3.331,3.578-2.065c.149-.084.162-.221,0-.3L201,312.989a.585.585,0,0,0-.52,0l-3.578,2.065c-.149.091-.162.227,0,.305l3.429,1.948a.565.565,0,0,0,.513.026Zm5.228-3.02,3.578-2.065c.156-.091.169-.221.032-.3l-3.422-1.968a.585.585,0,0,0-.52,0l-3.578,2.065c-.156.091-.169.227,0,.305l3.422,1.948a.565.565,0,0,0,.487.039Zm5.234-3.02,3.578-2.065c.149-.091.162-.221,0-.3l-3.422-1.981a.584.584,0,0,0-.52,0l-3.578,2.065c-.149.091-.169.227-.032.3l3.429,1.948a.565.565,0,0,0,.546.058Zm-17.066-.312-3.578,2.065c-.149.084-.169.221-.032.3l3.422,1.948a.6.6,0,0,0,.526,0l3.578-2.065c.149-.091.162-.227,0-.305l-3.422-1.948a.565.565,0,0,0-.494.032Zm5.234-3.02L195.885,310c-.149.084-.162.221,0,.3l3.422,1.948a.584.584,0,0,0,.52,0l3.578-2.072c.149-.084.169-.221.032-.3l-3.422-1.948a.565.565,0,0,0-.545.032Zm20.917-12.079-3.578,2.065c-.149.084-.162.221,0,.3l3.422,1.948a.584.584,0,0,0,.52,0l3.578-2.072c.149-.084.162-.221.032-.3l-3.429-1.948a.565.565,0,0,0-.545.032Zm-5.228,3.059-3.578,2.065c-.156.084-.169.221-.032.3l3.422,1.948a.585.585,0,0,0,.52,0l3.578-2.072c.156-.084.169-.221,0-.3l-3.422-1.948a.565.565,0,0,0-.487.007Zm10.462-6.046-3.578,2.072c-.156.084-.169.221,0,.3l3.422,1.948a.584.584,0,0,0,.52,0l3.578-2.072c.156-.084.169-.221.032-.3l-3.422-1.948a.585.585,0,0,0-.552-.013ZM204.7,304.943l-3.578,2.065c-.156.084-.169.221-.032.3l3.422,1.948a.584.584,0,0,0,.52,0l3.585-2.072c.149-.084.162-.221,0-.3l-3.422-1.948A.565.565,0,0,0,204.7,304.943Zm5.228-3.02-3.578,2.065c-.149.084-.162.221,0,.3l3.422,1.948a.585.585,0,0,0,.52,0l3.578-2.072c.149-.084.169-.221.032-.3l-3.429-1.948A.565.565,0,0,0,209.925,301.923Zm-6.676,19.664,3.578-2.065c.156-.084.169-.221.032-.3l-3.422-1.948a.585.585,0,0,0-.52,0l-3.578,2.065c-.156.091-.169.227,0,.305l3.422,1.948a.565.565,0,0,0,.487-.007Zm-27.58-1.3-3.422-1.948a.565.565,0,0,0-.52,0l-3.578,2.065c-.156.091-.169.227,0,.305l3.422,1.948a.565.565,0,0,0,.52,0l3.578-2.065C175.792,320.5,175.805,320.347,175.669,320.288ZM182.488,322l-3.422-1.948a.565.565,0,0,0-.52,0l-5.474,3.169c-.156.091-.169.227,0,.305l3.422,1.948a.565.565,0,0,0,.52,0l5.507-3.176A.175.175,0,0,0,182.488,322Zm-11.929-5.611-3.422-1.948a.565.565,0,0,0-.52,0l-4.409,2.546c-.149.084-.162.221,0,.3l3.422,1.948a.585.585,0,0,0,.52,0l4.4-2.546C170.682,316.593,170.695,316.451,170.558,316.386Zm3.377-1.948a.565.565,0,0,0,.52,0l3.578-2.065c.156-.091.169-.227.032-.305l-3.422-1.948a.565.565,0,0,0-.52,0l-3.578,2.065c-.156.084-.169.221-.032.3Zm14.819,9.6-3.422-1.948a.584.584,0,0,0-.52,0l-6.884,3.974c-.149.091-.169.221,0,.3l3.422,1.948a.578.578,0,0,0,.526,0l6.877-3.974c.123-.091.136-.227,0-.305Zm2.416,4.254-3.429-1.948a.585.585,0,0,0-.52,0l-4.409,2.526c-.149.091-.162.221,0,.3l3.429,1.981a.591.591,0,0,0,.52,0l4.4-2.546c.123-.1.143-.24.006-.318Zm21.657-36.3a.565.565,0,0,0,.52,0l3.578-2.065c.149-.091.162-.221.032-.3l-3.429-1.948a.591.591,0,0,0-.52,0l-3.572,2.026c-.149.091-.162.221-.032.3Zm-10.462,6.039a.565.565,0,0,0,.52,0l3.578-2.065c.149-.084.169-.221.032-.3l-3.429-1.981a.591.591,0,0,0-.52,0l-3.578,2.065c-.149.091-.162.227,0,.305Zm-23.2,13.391a.6.6,0,0,0,.526,0l3.578-2.111c.149-.091.162-.227,0-.305l-3.422-1.948a.565.565,0,0,0-.52,0l-3.578,2.065c-.149.084-.169.221,0,.3Zm28.431-16.4a.565.565,0,0,0,.52,0l3.578-2.065c.156-.084.169-.221.032-.3l-3.422-1.981a.584.584,0,0,0-.52,0l-3.578,2.065c-.156.091-.169.227-.032.305Zm-10.462,6.039a.565.565,0,0,0,.52,0l3.578-2.065c.156-.084.169-.221,0-.3l-3.422-1.981a.585.585,0,0,0-.52,0l-3.578,2.065c-.156.091-.169.227-.032.305Zm-3.4,27.457a.584.584,0,0,0-.52,0l-5.507,3.182c-.149.084-.162.221,0,.3l3.422,1.948a.565.565,0,0,0,.52,0l5.507-3.182c.149-.084.162-.221,0-.3Zm-4.111-23.125a.584.584,0,0,0,.52,0l3.585-2.072c.149-.084.162-.221,0-.3l-3.422-1.948a.565.565,0,0,0-.52,0l-3.578,2.065c-.156.084-.169.221-.032.3Zm-5.228,3.02a.585.585,0,0,0,.52,0l3.578-2.072c.156-.084.169-.221.032-.3l-3.422-1.948a.565.565,0,0,0-.52,0L181,306.158c-.149.084-.162.221,0,.3Zm106.248-35.847a.565.565,0,0,0-.52,0l-8.812,5.085c-.149.091-.169.221-.032.3l3.429,1.981a.565.565,0,0,0,.519,0l8.806-5.085c.156-.091.169-.221.032-.3Zm-11.566,6.676a.565.565,0,0,0-.52,0l-3.578,2.065c-.149.091-.169.221-.032.3l3.422,1.981a.578.578,0,0,0,.526,0l3.578-2.065c.149-.091.162-.221,0-.3Zm-70.6,39.328,3.578-2.065c.149-.084.162-.221.032-.3l-3.429-1.948a.585.585,0,0,0-.52,0l-3.578,2.065c-.149.091-.162.227,0,.305l3.422,1.948A.565.565,0,0,0,208.483,318.568Zm60.134-33.288a.584.584,0,0,0-.519,0l-3.578,2.065c-.149.091-.169.221-.032.3l3.429,1.981a.565.565,0,0,0,.52,0l3.578-2.065c.149-.091.162-.221,0-.3Zm27.275-15.735a.565.565,0,0,0-.52,0l-3.6,2.1c-.149.091-.169.221-.032.3l3.422,1.948a.584.584,0,0,0,.52,0l3.585-2.065c.149-.091.162-.221,0-.3Zm8.656-1.039L296.23,263.7a.565.565,0,0,0-.519,0l-3.6,2.1c-.149.091-.162.221-.032.3L300.4,270.9a.584.584,0,0,0,.52,0l3.578-2.065c.149-.143.169-.273.032-.351Zm-55.5,28.041a.565.565,0,0,0-.519,0l-4.4,2.539c-.149.091-.169.227-.032.305l3.422,1.948a.578.578,0,0,0,.526,0l4.4-2.539c.149-.091.162-.227.032-.305Zm13.215-7.63a.565.565,0,0,0-.52,0l-5.507,3.176c-.149.091-.162.227-.032.305l3.429,1.948a.565.565,0,0,0,.52,0l5.507-3.176c.149-.091.162-.221,0-.3ZM236.94,303.54a.565.565,0,0,0-.52,0l-29.457,17.008c-.149.084-.169.221-.032.3l3.422,1.948a.565.565,0,0,0,.52,0l29.463-17c.149-.091.162-.227,0-.305ZM205.834,321.5a.584.584,0,0,0-.52,0l-4.409,2.546c-.149.091-.162.221,0,.3l3.422,1.981a.584.584,0,0,0,.52,0l4.4-2.546c.149-.084.169-.221.032-.3ZM243,300.073a.565.565,0,0,0-.52,0l-4.409,2.546c-.149.084-.162.221,0,.3l3.422,1.948a.565.565,0,0,0,.52,0l4.4-2.546c.156-.084.169-.221.032-.3Zm-43.224,24.95a.565.565,0,0,0-.52,0l-4.4,2.539c-.156.091-.169.227,0,.305l3.422,1.948a.565.565,0,0,0,.52,0l4.4-2.539c.156-.091.169-.221,0-.3Zm55.355-31.95a.585.585,0,0,0-.52,0l-4.4,2.546c-.156.084-.169.221,0,.3l3.422,1.981a.585.585,0,0,0,.52,0l4.4-2.546c.156-.084.169-.221.032-.3Zm18.722-10.812a.565.565,0,0,0-.52,0l-3.585,2.065c-.149.091-.162.221,0,.3l3.4,1.955a.565.565,0,0,0,.52,0l3.578-2.065c.156-.091.169-.221,0-.3Zm11.689-8.176,3.578-2.065c.149-.091.169-.221.032-.3l-3.429-1.948a.591.591,0,0,0-.52,0l-3.578,2.065c-.149.091-.162.221,0,.305l3.422,1.948a.565.565,0,0,0,.52-.026ZM264.2,275.11l3.578-2.065c.149-.084.169-.221.032-.3l-3.422-1.948a.6.6,0,0,0-.526,0l-3.578,2.072c-.149.084-.162.221,0,.3l3.422,1.948a.565.565,0,0,0,.52-.026Zm-13.845,19.3,10.455-6.039c.156-.091.169-.221.032-.3l-3.422-1.981a.584.584,0,0,0-.519,0l-10.462,6.039c-.149.091-.169.221-.032.3l3.422,1.948A.578.578,0,0,0,250.35,294.41ZM279.833,277.1a.565.565,0,0,0,.519,0l3.578-2.065c.156-.091.169-.221.032-.3l-3.422-1.981a.585.585,0,0,0-.52,0l-3.578,2.065c-.156.091-.169.227,0,.305Zm-4.39-2.864,3.578-2.065c.156-.084.169-.221.032-.3l-3.422-1.948a.585.585,0,0,0-.52,0l-3.578,2.065c-.156.091-.169.227-.032.305l3.422,1.948a.565.565,0,0,0,.52-.006ZM245.1,297.41l3.578-2.065c.156-.091.169-.221.032-.3l-3.422-1.974a.565.565,0,0,0-.52,0l-3.585,2.065c-.149.091-.162.221,0,.3l3.422,1.981a.565.565,0,0,0,.494.013Zm23.158-13.637a.565.565,0,0,0,.52,0l3.578-2.065c.149-.091.162-.221.032-.3l-3.429-1.948a.591.591,0,0,0-.52,0l-3.578,2.065c-.149.091-.162.221,0,.305Zm-49.309,28.781,3.578-2.065c.149-.084.162-.221,0-.3l-3.429-1.981a.591.591,0,0,0-.52,0L215,310.275c-.149.091-.162.227-.032.305l3.429,1.948a.565.565,0,0,0,.552.026Zm5.228-3.02,3.578-2.065c.156-.084.169-.221.032-.3l-3.409-2.007a.585.585,0,0,0-.52,0l-3.578,2.065c-.156.091-.169.227,0,.305l3.422,1.948a.565.565,0,0,0,.474.026Zm-10.462,6.039,3.578-2.065c.156-.084.169-.221,0-.3l-3.422-1.948a.584.584,0,0,0-.52,0l-3.578,2.065c-.156.091-.169.227-.032.305l3.422,1.948a.565.565,0,0,0,.552-.032Zm20.924-12.111,3.578-2.065c.156-.091.169-.221.032-.3l-3.422-1.981a.584.584,0,0,0-.519,0l-3.578,2.065c-.156.091-.169.221,0,.3l3.39,1.981a.565.565,0,0,0,.52,0Zm-5.228,3.02,3.578-2.065c.149-.084.162-.221.032-.3l-3.448-1.955a.584.584,0,0,0-.52,0l-3.578,2.065c-.149.091-.162.227-.032.305l3.429,1.948a.565.565,0,0,0,.539.007Zm10.462-6.039,3.578-2.065c.149-.091.162-.221,0-.3l-3.422-1.981a.565.565,0,0,0-.52,0l-3.578,2.065c-.149.091-.169.221-.032.3l3.429,1.981a.565.565,0,0,0,.545.007Zm28.541-42.01a.565.565,0,0,0,.52,0l3.578-2.065c.156-.091.169-.221.032-.3l-.909-.526a.585.585,0,0,0-.52,0l-3.585,2.072c-.149.084-.162.221,0,.3ZM242.434,274.9a.591.591,0,0,0,.52,0l3.578-2.065c.149-.091.162-.227,0-.305l-3.422-1.948a.565.565,0,0,0-.52,0l-3.578,2.065c-.149.084-.162.221-.032.3Zm10.462-6.039a.591.591,0,0,0,.52,0l3.578-2.065c.149-.091.162-.227,0-.305l-3.4-1.987a.565.565,0,0,0-.52,0l-3.578,2.065c-.149.084-.169.221-.032.3ZM236.044,278.6a.585.585,0,0,0,.52,0l3.578-2.072c.156-.084.169-.221.032-.3l-3.461-1.987a.565.565,0,0,0-.52,0l-3.578,2.065c-.156.084-.169.221-.032.3Zm11.618-6.7a.585.585,0,0,0,.52,0l3.578-2.065c.156-.091.169-.227.032-.305l-3.422-1.948a.565.565,0,0,0-.52,0l-3.578,2.065c-.156.084-.169.221-.032.3Zm-22.08,12.748a.61.61,0,0,0,.52,0l3.578-2.065c.156-.091.169-.227.032-.305l-3.422-1.948a.565.565,0,0,0-.52,0l-3.578,2.065c-.156.084-.169.221-.032.3Zm5.234-3.026a.584.584,0,0,0,.52,0l3.578-2.065c.149-.091.162-.227,0-.305l-3.422-1.948a.565.565,0,0,0-.52,0l-3.578,2.065c-.149.084-.162.221-.032.3ZM257.948,264.5a.565.565,0,0,0,.52,0l3.578-2.065c.156-.091.169-.221.032-.3l-.909-.526a.584.584,0,0,0-.52,0l-3.578,2.072c-.156.084-.169.221-.032.3Zm15.7-9.092a.565.565,0,0,0,.52,0l3.578-2.065c.149-.091.162-.221,0-.3l-.909-.526a.584.584,0,0,0-.52,0l-3.578,2.072c-.156.084-.169.221-.032.3Zm7.189,4.15a.585.585,0,0,0,.52,0l3.578-2.072c.156-.084.169-.221.032-.3l-3.422-1.948a.585.585,0,0,0-.52,0l-3.578,2.072c-.156.084-.169.221-.032.3Zm9.962,11.475,3.578-2.065c.156-.091.169-.221,0-.3l-3.422-1.981a.584.584,0,0,0-.519,0l-3.578,2.065c-.156.091-.169.221-.032.3l3.422,1.981a.565.565,0,0,0,.552.013Zm-27.612-9.585a.565.565,0,0,0,.52,0l3.578-2.065c.149-.091.162-.221,0-.3l-.909-.526a.584.584,0,0,0-.52,0l-3.578,2.072c-.149.084-.169.221,0,.3Zm-42.86,26.19a.591.591,0,0,0,.52,0l3.578-2.065c.149-.091.162-.227.032-.305l-3.429-1.948a.565.565,0,0,0-.52,0l-3.578,2.065c-.149.084-.162.221-.032.3Z" transform="translate(-134.288 -132.288)" fill="#455a64"/>
        <path id="Path_510" data-name="Path 510" d="M275.61,337.164l.734.422,19.495,11.248L330.5,328.825l.721-.416L311,316.74Z" transform="translate(-174.088 -154.826)" fill="#37474f"/>
        <path id="Path_511" data-name="Path 511" d="M276.74,338.034l19.495,11.248,34.658-20.008-19.5-11.254Z" transform="translate(-174.485 -155.275)" fill="#263238"/>
      </g>
    </g>
    <g id="freepik--mail-box--inject-69" transform="translate(35.646 157.327)">
      <g id="freepik--MailBox--inject-69">
        <path id="Path_512" data-name="Path 512" d="M101.782,210.63l-7.942-4.546c-.351-.208-.61-.26-.747-.175l-.968.558c-.169.1-.162.383.045.825l1.948,4-1.442,1.3a1.123,1.123,0,0,0,.208,1.909l7.942,4.585.968-.565Z" transform="translate(-58.578 -205.87)" fill="#fc0"/>
        <path id="Path_513" data-name="Path 513" d="M101.782,210.63l-7.942-4.546c-.351-.208-.61-.26-.747-.175l-.968.558c-.169.1-.162.383.045.825l1.948,4-1.442,1.3a1.123,1.123,0,0,0,.208,1.909l7.942,4.585.968-.565Z" transform="translate(-58.578 -205.87)" fill="#fff" opacity="0.5"/>
        <path id="Path_514" data-name="Path 514" d="M92.871,206.887c-.773-.448-1.091-.156-.7.649l1.948,4-1.442,1.3a1.123,1.123,0,0,0,.208,1.909l7.942,4.585v-7.851Z" transform="translate(-58.577 -206.153)" fill="#fc0"/>
        <path id="Path_515" data-name="Path 515" d="M106.5,236.9a.929.929,0,0,1-.935-.935V209.587a.935.935,0,0,1,1.864,0v26.379a.929.929,0,0,1-.929.935Z" transform="translate(-63.33 -206.873)" fill="#455a64"/>
        <path id="Path_516" data-name="Path 516" d="M54.39,357.021v-1.643h.4a6.494,6.494,0,0,1,2.669-2.6,16.412,16.412,0,0,1,14.858,0,6.436,6.436,0,0,1,2.669,2.6h.4v1.591c0,1.578-.987,3.163-3.072,4.364a16.412,16.412,0,0,1-14.858,0C55.435,360.144,54.377,358.579,54.39,357.021Z" transform="translate(-45.389 -256.754)" fill="#263238"/>
        <ellipse id="Ellipse_19" data-name="Ellipse 19" cx="10.507" cy="6.065" rx="10.507" ry="6.065" transform="translate(8.994 92.559)" fill="#455a64"/>
        <path id="Path_517" data-name="Path 517" d="M71.81,269.77v56.407a1.351,1.351,0,0,1-.792,1.1,4.221,4.221,0,0,1-3.825,0,1.338,1.338,0,0,1-.792-1.1V269.77Z" transform="translate(-49.6 -228.274)" fill="#37474f"/>
        <path id="Path_518" data-name="Path 518" d="M66.4,280.28v5.306l5.41,3.117V283.41Z" transform="translate(-49.6 -231.958)" fill="#263238"/>
        <path id="Path_519" data-name="Path 519" d="M92.305,259.977l10,5.78a.746.746,0,0,1-.195.208l-17.495,10.1c-.149.084-.266,0-.266-.162V263.3a19.71,19.71,0,0,1,1.461-7.065Z" transform="translate(-55.893 -223.527)" fill="#fc0"/>
        <path id="Path_520" data-name="Path 520" d="M92.305,259.977l10,5.78a.746.746,0,0,1-.195.208l-17.495,10.1c-.149.084-.266,0-.266-.162V263.3a19.71,19.71,0,0,1,1.461-7.065Z" transform="translate(-55.893 -223.527)" opacity="0.4"/>
        <path id="Path_521" data-name="Path 521" d="M103.173,245.562v14.124L86.6,250.1l.058-.136c1.773-4.442,4.747-8.2,7.994-10.072A7.585,7.585,0,0,1,98.4,238.73C101.348,238.73,103.173,241.347,103.173,245.562Z" transform="translate(-56.682 -217.391)" fill="#fc0"/>
        <path id="Path_522" data-name="Path 522" d="M103.173,245.562v14.124L86.6,250.1l.058-.136c1.773-4.442,4.747-8.2,7.994-10.072A7.585,7.585,0,0,1,98.4,238.73C101.348,238.73,103.173,241.347,103.173,245.562Z" transform="translate(-56.682 -217.391)" opacity="0.3"/>
        <path id="Path_523" data-name="Path 523" d="M119.891,287.986v-1.26h-.123v.182a5.463,5.463,0,0,0-.325-1.02,9.456,9.456,0,0,0-4.182-4.254L103.423,274.8a2.007,2.007,0,0,0-1.786,0L83.531,285.246a2.779,2.779,0,0,1-.571-.649v1.3h0a.649.649,0,0,0,.364.52l11.845,6.832a22.56,22.56,0,0,0,11.319,2.676,19.618,19.618,0,0,0,9.423-2.292c2.663-1.526,3.974-3.559,3.974-5.63Z" transform="translate(-55.406 -229.963)" fill="#fc0"/>
        <path id="Path_524" data-name="Path 524" d="M119.891,287.986v-1.26h-.123v.182a5.463,5.463,0,0,0-.325-1.02,9.456,9.456,0,0,0-4.182-4.254L103.423,274.8a2.007,2.007,0,0,0-1.786,0L83.531,285.246a2.779,2.779,0,0,1-.571-.649v1.3h0a.649.649,0,0,0,.364.52l11.845,6.832a22.56,22.56,0,0,0,11.319,2.676,19.618,19.618,0,0,0,9.423-2.292c2.663-1.526,3.974-3.559,3.974-5.63Z" transform="translate(-55.406 -229.963)" opacity="0.4"/>
        <path id="Path_525" data-name="Path 525" d="M119.752,285.9a9.456,9.456,0,0,0-4.182-4.254l-11.839-6.838a2.007,2.007,0,0,0-1.786,0L83.84,285.249l11.637,6.715a22.632,22.632,0,0,0,11.319,2.676,19.69,19.69,0,0,0,9.423-2.292c2.39-1.377,3.7-3.15,3.935-5a5.28,5.28,0,0,0-.4-1.448Z" transform="translate(-55.714 -229.966)" fill="#fc0"/>
        <path id="Path_526" data-name="Path 526" d="M119.752,285.9a9.456,9.456,0,0,0-4.182-4.254l-11.839-6.838a2.007,2.007,0,0,0-1.786,0L83.84,285.249l11.637,6.715a22.632,22.632,0,0,0,11.319,2.676,19.69,19.69,0,0,0,9.423-2.292c2.39-1.377,3.7-3.15,3.935-5a5.28,5.28,0,0,0-.4-1.448Z" transform="translate(-55.714 -229.966)" opacity="0.2"/>
        <path id="Path_527" data-name="Path 527" d="M119.843,286.676a5.279,5.279,0,0,0-.4-1.461,9.456,9.456,0,0,0-4.182-4.254l-11.839-6.838a2.007,2.007,0,0,0-1.786,0L83.528,284.572l-.208-.117a.545.545,0,0,1,0-1.033l18.313-10.54a1.948,1.948,0,0,1,1.786,0l11.839,6.838a9.524,9.524,0,0,1,4.182,4.254,5.254,5.254,0,0,1,.416,1.552,4.74,4.74,0,0,1-.013,1.149Z" transform="translate(-55.403 -229.289)" fill="#fc0"/>
        <path id="Path_528" data-name="Path 528" d="M119.843,286.676a5.279,5.279,0,0,0-.4-1.461,9.456,9.456,0,0,0-4.182-4.254l-11.839-6.838a2.007,2.007,0,0,0-1.786,0L83.528,284.572l-.208-.117a.545.545,0,0,1,0-1.033l18.313-10.54a1.948,1.948,0,0,1,1.786,0l11.839,6.838a9.524,9.524,0,0,1,4.182,4.254,5.254,5.254,0,0,1,.416,1.552,4.74,4.74,0,0,1-.013,1.149Z" transform="translate(-55.403 -229.289)" opacity="0.3"/>
        <path id="Path_529" data-name="Path 529" d="M84.14,282.737l18.307-10.572-.409-.955-17.495,10.1Z" transform="translate(-55.82 -228.779)" fill="#fc0"/>
        <path id="Path_530" data-name="Path 530" d="M84.14,282.737l18.307-10.572-.409-.955-17.495,10.1Z" transform="translate(-55.82 -228.779)" opacity="0.1"/>
        <g id="freepik--Letter--inject-69" transform="translate(20.352 13.601)">
          <path id="Path_531" data-name="Path 531" d="M96.391,240.579a.955.955,0,0,0-.435-.753L73.669,226.942a.935.935,0,0,0-.87,0l-.494.286a.955.955,0,0,0-.435.753v17.086a.968.968,0,0,0,.435.753l22.287,12.871a.993.993,0,0,0,.877,0l.487-.286a.968.968,0,0,0,.435-.753Z" transform="translate(-71.87 -226.822)" fill="#f5f5f5"/>
          <path id="Path_532" data-name="Path 532" d="M96.338,240.118l-1.24.714-23.028-13.3a.89.89,0,0,1,.305-.331l.494-.279a.935.935,0,0,1,.87,0l22.313,12.871A.838.838,0,0,1,96.338,240.118Z" transform="translate(-71.94 -226.815)" fill="#e0e0e0"/>
          <path id="Path_533" data-name="Path 533" d="M107.38,276Z" transform="translate(-84.32 -244.059)" fill="#fc0"/>
          <path id="Path_534" data-name="Path 534" d="M95.034,241.21l-.227.136a.377.377,0,0,1,.227.37V258.8a.3.3,0,0,1-.136.286.286.286,0,0,1-.208,0l-.091-.039L72.305,246.184a.974.974,0,0,1-.435-.753V228.345a.909.909,0,0,1,.13-.435Z" transform="translate(-71.87 -227.199)" fill="#ebebeb"/>
          <path id="Path_535" data-name="Path 535" d="M95.028,241.192l-10.319,3.851a1.669,1.669,0,0,1-1.994-.649l-1.669-2.546L71.915,227.84l8.812,14.1-8.858,3.468a.857.857,0,0,0,.136.435l8.747-3.864,1.948,3.085a1.682,1.682,0,0,0,2.1.649l1.37-.6,8.747,13.956a.312.312,0,0,0,.13-.286v-.318L86.2,245.088Z" transform="translate(-71.87 -227.174)" opacity="0.2"/>
        </g>
        <g id="freepik--letter--inject-69-2" data-name="freepik--letter--inject-69" transform="translate(15.073 16.627)">
          <path id="Path_536" data-name="Path 536" d="M88.268,245.2a.974.974,0,0,0-.435-.753L65.539,231.582a.935.935,0,0,0-.87,0l-.494.279a.974.974,0,0,0-.435.753V249.7a.994.994,0,0,0,.435.76l22.294,12.865a.935.935,0,0,0,.87,0l.494-.279a.974.974,0,0,0,.435-.753Z" transform="translate(-63.74 -231.475)" fill="#f5f5f5"/>
          <path id="Path_537" data-name="Path 537" d="M88.208,244.8l-1.234.714L63.94,232.186a.922.922,0,0,1,.305-.325l.494-.279a.935.935,0,0,1,.87,0L87.9,244.447A.922.922,0,0,1,88.208,244.8Z" transform="translate(-63.81 -231.475)" fill="#e0e0e0"/>
          <path id="Path_538" data-name="Path 538" d="M99.25,280.67Z" transform="translate(-76.19 -248.723)" fill="#fc0"/>
          <path id="Path_539" data-name="Path 539" d="M86.9,245.87l-.227.136a.377.377,0,0,1,.227.37v17.086a.3.3,0,0,1-.136.286.286.286,0,0,1-.208,0l-.091-.039L64.175,250.844a.974.974,0,0,1-.435-.753V233.005a.909.909,0,0,1,.13-.435Z" transform="translate(-63.74 -231.859)" fill="#ebebeb"/>
          <path id="Path_540" data-name="Path 540" d="M86.9,245.845l-10.325,3.864a1.675,1.675,0,0,1-1.987-.649l-1.662-2.539L63.785,232.5,72.6,246.6l-8.858,3.468a1.058,1.058,0,0,0,.136.435l8.747-3.9,1.948,3.085a1.682,1.682,0,0,0,2.1.649l1.377-.6,8.721,13.982a.3.3,0,0,0,.136-.286v-.286l-8.838-13.4Z" transform="translate(-63.74 -231.834)" opacity="0.2"/>
        </g>
        <g id="freepik--letter--inject-69-3" data-name="freepik--letter--inject-69" transform="translate(9.799 19.652)">
          <path id="Path_541" data-name="Path 541" d="M80.141,249.859a.955.955,0,0,0-.435-.753L57.419,236.235a.974.974,0,0,0-.87,0l-.494.286a.955.955,0,0,0-.435.753v17.086a.955.955,0,0,0,.435.753l22.287,12.871a.993.993,0,0,0,.877,0l.487-.286a.955.955,0,0,0,.435-.753Z" transform="translate(-55.62 -236.132)" fill="#f5f5f5"/>
          <path id="Path_542" data-name="Path 542" d="M80.088,249.43l-1.24.714-23.028-13.3a.87.87,0,0,1,.305-.325l.494-.286a.974.974,0,0,1,.87,0l22.287,12.871a.883.883,0,0,1,.312.325Z" transform="translate(-55.69 -236.132)" fill="#e0e0e0"/>
          <path id="Path_543" data-name="Path 543" d="M91.13,285.32a.176.176,0,0,0,.084,0h0A.084.084,0,0,1,91.13,285.32Z" transform="translate(-68.07 -253.377)" fill="#fc0"/>
          <path id="Path_544" data-name="Path 544" d="M78.784,250.523l-.227.136a.377.377,0,0,1,.227.37v17.092a.292.292,0,0,1-.136.279.286.286,0,0,1-.208,0l-.091-.032L56.055,255.5a.955.955,0,0,1-.435-.753V237.665a.909.909,0,0,1,.13-.435Z" transform="translate(-55.62 -236.517)" fill="#ebebeb"/>
          <path id="Path_545" data-name="Path 545" d="M78.778,250.505l-10.319,3.857a1.682,1.682,0,0,1-1.994-.649l-1.656-2.539L55.665,237.16l8.812,14.1-8.858,3.468a.857.857,0,0,0,.136.435L64.5,251.3l1.948,3.085a1.682,1.682,0,0,0,2.1.649l1.37-.61,8.747,13.956a.3.3,0,0,0,.13-.286v-.286l-8.832-13.4Z" transform="translate(-55.62 -236.492)" opacity="0.2"/>
        </g>
        <path id="Path_546" data-name="Path 546" d="M84.7,229.138c-1.773-.929-4.124-.766-6.7.727a20.337,20.337,0,0,0-7.319,8.117,25.554,25.554,0,0,0-1.143,2.461,20.709,20.709,0,0,0-1.591,7.578v14.43a1.877,1.877,0,0,1-.89-.214L41.42,247.419a1.994,1.994,0,0,1-.89-1.546V232.2c0-6.832,4.5-14.936,10.046-18.183,2.6-1.52,5.02-1.643,6.812-.649h0Z" transform="translate(-40.53 -208.273)" fill="#fc0"/>
        <path id="Path_547" data-name="Path 547" d="M84.7,229.138c-1.773-.929-4.124-.766-6.7.727a20.337,20.337,0,0,0-7.319,8.117,25.554,25.554,0,0,0-1.143,2.461,20.709,20.709,0,0,0-1.591,7.578v14.43a1.877,1.877,0,0,1-.89-.214L41.42,247.419a1.994,1.994,0,0,1-.89-1.546V232.2c0-6.832,4.5-14.936,10.046-18.183,2.6-1.52,5.02-1.643,6.812-.649h0Z" transform="translate(-40.53 -208.273)" opacity="0.2"/>
        <path id="Path_548" data-name="Path 548" d="M41.42,255.758,67.064,270.6a1.877,1.877,0,0,0,.89.214v-14.43a18.222,18.222,0,0,1,.481-4.033L41,236.51a18.541,18.541,0,0,0-.474,4.026v13.676a1.994,1.994,0,0,0,.89,1.546Z" transform="translate(-40.53 -216.613)" opacity="0.1"/>
        <path id="Path_549" data-name="Path 549" d="M84.176,249.715a20.709,20.709,0,0,0-1.591,7.579V271.7a1.772,1.772,0,0,1-.325-.039c0-.825,0-5.448,0-14.371,0-10.592,8.15-17.326,10.39-18.183a20.337,20.337,0,0,0-7.319,8.117,25.555,25.555,0,0,0-1.156,2.487Z" transform="translate(-55.161 -217.524)" fill="#fc0"/>
        <path id="Path_550" data-name="Path 550" d="M84.176,249.715a20.709,20.709,0,0,0-1.591,7.579V271.7a1.772,1.772,0,0,1-.325-.039c0-.825,0-5.448,0-14.371,0-10.592,8.15-17.326,10.39-18.183a20.337,20.337,0,0,0-7.319,8.117,25.555,25.555,0,0,0-1.156,2.487Z" transform="translate(-55.161 -217.524)" opacity="0.4"/>
        <path id="Path_551" data-name="Path 551" d="M84.034,269.372a.166.166,0,0,1-.266-.156v-12.6a19.651,19.651,0,0,1,1.461-7.066l.058-.136a23.735,23.735,0,0,1,1.221-2.6,19.105,19.105,0,0,1,6.773-7.475,7.585,7.585,0,0,1,3.747-1.162,4.111,4.111,0,0,1,1.948.474c1.753.935,2.779,3.2,2.779,6.358v13.8a.6.6,0,0,1-.266.461l.4.955.091-.052a1.948,1.948,0,0,0,.37-.357h0a1.948,1.948,0,0,0,.429-1.13V245.006c0-3.656-1.3-6.2-3.344-7.28-1.773-.935-4.124-.773-6.7.721a20.27,20.27,0,0,0-7.319,8.124,25.552,25.552,0,0,0-1.143,2.455,20.689,20.689,0,0,0-1.591,7.585v14.4h.2a1.785,1.785,0,0,0,.74-.208Z" transform="translate(-55.311 -216.836)" fill="#fc0"/>
        <path id="Path_552" data-name="Path 552" d="M84.034,269.372a.166.166,0,0,1-.266-.156v-12.6a19.651,19.651,0,0,1,1.461-7.066l.058-.136a23.735,23.735,0,0,1,1.221-2.6,19.105,19.105,0,0,1,6.773-7.475,7.585,7.585,0,0,1,3.747-1.162,4.111,4.111,0,0,1,1.948.474c1.753.935,2.779,3.2,2.779,6.358v13.8a.6.6,0,0,1-.266.461l.4.955.091-.052a1.948,1.948,0,0,0,.37-.357h0a1.948,1.948,0,0,0,.429-1.13V245.006c0-3.656-1.3-6.2-3.344-7.28-1.773-.935-4.124-.773-6.7.721a20.27,20.27,0,0,0-7.319,8.124,25.552,25.552,0,0,0-1.143,2.455,20.689,20.689,0,0,0-1.591,7.585v14.4h.2a1.785,1.785,0,0,0,.74-.208Z" transform="translate(-55.311 -216.836)" opacity="0.1"/>
      </g>
    </g>
    <g id="freepik--Envelopes--inject-69" transform="translate(125.53 121.532)">
      <g id="freepik--Envelope--inject-69">
        <g id="freepik--letter--inject-69-4" data-name="freepik--letter--inject-69">
          <path id="Path_553" data-name="Path 553" d="M178.94,202.14a3.708,3.708,0,0,1,1.688-2.922l83.234-48.056a3.728,3.728,0,0,1,3.377,0l1.9,1.1a3.728,3.728,0,0,1,1.682,2.922v66.161a3.747,3.747,0,0,1-1.682,2.922L185.9,272.353a3.753,3.753,0,0,1-3.37,0l-1.9-1.1a3.747,3.747,0,0,1-1.688-2.922Z" transform="translate(-178.94 -150.753)" fill="#fc0"/>
          <g id="Group_44" data-name="Group 44" transform="translate(0 0.005)" opacity="0.7">
            <path id="Path_554" data-name="Path 554" d="M178.94,202.14a3.708,3.708,0,0,1,1.688-2.922l83.234-48.056a3.728,3.728,0,0,1,3.377,0l1.9,1.1a3.728,3.728,0,0,1,1.682,2.922v66.161a3.747,3.747,0,0,1-1.682,2.922L185.9,272.353a3.753,3.753,0,0,1-3.37,0l-1.9-1.1a3.747,3.747,0,0,1-1.688-2.922Z" transform="translate(-178.94 -150.757)" fill="#fff"/>
          </g>
          <path id="Path_555" data-name="Path 555" d="M179.7,200.475l4.786,2.76L270.6,153.51a3.533,3.533,0,0,0-1.188-1.26l-1.909-1.091a3.663,3.663,0,0,0-3.364,0l-83.24,48.056a3.39,3.39,0,0,0-1.195,1.26Z" transform="translate(-179.206 -150.75)" fill="#fc0"/>
          <path id="Path_556" data-name="Path 556" d="M179.7,200.475l4.786,2.76L270.6,153.51a3.533,3.533,0,0,0-1.188-1.26l-1.909-1.091a3.663,3.663,0,0,0-3.364,0l-83.24,48.056a3.39,3.39,0,0,0-1.195,1.26Z" transform="translate(-179.206 -150.75)" fill="#fff" opacity="0.8"/>
          <path id="Path_557" data-name="Path 557" d="M178.94,228.976v66.161a3.708,3.708,0,0,0,1.688,2.922l1.9,1.1a3,3,0,0,0,.461.208,3.752,3.752,0,0,0,.695.156,4.163,4.163,0,0,0,1.331-.045l.331-.084.208-.071a1.007,1.007,0,0,1-.818-.032,1.156,1.156,0,0,1-.52-1.1V232.028a1.474,1.474,0,0,1,.877-1.435l-.877-.513-4.786-2.76A3.436,3.436,0,0,0,178.94,228.976Z" transform="translate(-178.94 -177.596)" fill="#fc0" opacity="0.1"/>
          <path id="Path_558" data-name="Path 558" d="M178.94,228.976v66.161a3.708,3.708,0,0,0,1.688,2.922l1.9,1.1a3,3,0,0,0,.461.208,3.752,3.752,0,0,0,.695.156,4.163,4.163,0,0,0,1.331-.045l.331-.084.208-.071a1.007,1.007,0,0,1-.818-.032,1.156,1.156,0,0,1-.52-1.1V232.028a1.474,1.474,0,0,1,.877-1.435l-.877-.513-4.786-2.76A3.436,3.436,0,0,0,178.94,228.976Z" transform="translate(-178.94 -177.596)" opacity="0.05"/>
          <path id="Path_559" data-name="Path 559" d="M187.059,204.725l39.971,14.936a6.494,6.494,0,0,0,7.715-2.539l6.416-9.838L273.169,155l-30.73,52.647,31.223,15.2a3.533,3.533,0,0,1-.526,1.688l-30.795-16.729-7.455,11.936a6.494,6.494,0,0,1-8.137,2.5l-5.319-2.344-33.866,54.037a1.156,1.156,0,0,1-.52-1.1v-1.1l34.217-51.9Z" transform="translate(-181.779 -152.24)" fill="#fc0" opacity="0.2"/>
          <path id="Path_560" data-name="Path 560" d="M187.059,204.725l39.971,14.936a6.494,6.494,0,0,0,7.715-2.539l6.416-9.838L273.169,155l-30.73,52.647,31.223,15.2a3.533,3.533,0,0,1-.526,1.688l-30.795-16.729-7.455,11.936a6.494,6.494,0,0,1-8.137,2.5l-5.319-2.344-33.866,54.037a1.156,1.156,0,0,1-.52-1.1v-1.1l34.217-51.9Z" transform="translate(-181.779 -152.24)" opacity="0.05"/>
        </g>
      </g>
      <g id="freepik--envelope--inject-69-2" data-name="freepik--envelope--inject-69" transform="translate(21.086 12.2)">
        <g id="freepik--letter--inject-69-5" data-name="freepik--letter--inject-69">
          <path id="Path_561" data-name="Path 561" d="M211.429,220.92A3.728,3.728,0,0,1,213.111,218l83.24-48.056a3.715,3.715,0,0,1,3.37,0l1.9,1.1a3.728,3.728,0,0,1,1.688,2.922v66.161a3.741,3.741,0,0,1-1.688,2.922L218.391,291.1a3.767,3.767,0,0,1-3.377,0l-1.922-1.123a3.76,3.76,0,0,1-1.682-2.922Z" transform="translate(-211.41 -169.537)" fill="#fc0"/>
          <g id="Group_45" data-name="Group 45" opacity="0.5">
            <path id="Path_562" data-name="Path 562" d="M211.429,220.92A3.728,3.728,0,0,1,213.111,218l83.24-48.056a3.715,3.715,0,0,1,3.37,0l1.9,1.1a3.728,3.728,0,0,1,1.688,2.922v66.161a3.741,3.741,0,0,1-1.688,2.922L218.391,291.1a3.767,3.767,0,0,1-3.377,0l-1.922-1.123a3.76,3.76,0,0,1-1.682-2.922Z" transform="translate(-211.41 -169.537)" fill="#fff"/>
          </g>
          <path id="Path_563" data-name="Path 563" d="M212.19,219.258l4.793,2.76,86.11-49.718a3.533,3.533,0,0,0-1.188-1.26L300,169.949a3.676,3.676,0,0,0-3.37,0L213.365,218A3.4,3.4,0,0,0,212.19,219.258Z" transform="translate(-211.683 -169.538)" fill="#fc0"/>
          <path id="Path_564" data-name="Path 564" d="M212.19,219.258l4.793,2.76,86.11-49.718a3.533,3.533,0,0,0-1.188-1.26L300,169.949a3.676,3.676,0,0,0-3.37,0L213.365,218A3.4,3.4,0,0,0,212.19,219.258Z" transform="translate(-211.683 -169.538)" fill="#fff" opacity="0.6"/>
          <path id="Path_565" data-name="Path 565" d="M211.43,247.756v66.161a3.714,3.714,0,0,0,1.669,2.9l1.9,1.1a3.082,3.082,0,0,0,.468.208,3.638,3.638,0,0,0,.695.156,4.169,4.169,0,0,0,1.331-.045l.325-.091a1.077,1.077,0,0,0,.2-.078,1.007,1.007,0,0,1-.805,0,1.176,1.176,0,0,1-.52-1.111V250.808a1.474,1.474,0,0,1,.877-1.435l-.877-.513L211.9,246.1A3.506,3.506,0,0,0,211.43,247.756Z" transform="translate(-211.417 -196.38)" opacity="0.1"/>
          <path id="Path_566" data-name="Path 566" d="M219.566,223.508l39.971,14.936a6.494,6.494,0,0,0,7.715-2.539l6.423-9.832,32.009-52.283-30.73,52.647,31.223,15.2a3.533,3.533,0,0,1-.526,1.688l-30.8-16.735-7.462,11.936a6.494,6.494,0,0,1-8.13,2.5l-5.312-2.344-33.86,54.043a1.175,1.175,0,0,1-.52-1.11v-1.1l34.217-51.9Z" transform="translate(-214.267 -171.028)" fill="#fc0" opacity="0.4"/>
          <path id="Path_567" data-name="Path 567" d="M219.566,223.508l39.971,14.936a6.494,6.494,0,0,0,7.715-2.539l6.423-9.832,32.009-52.283-30.73,52.647,31.223,15.2a3.533,3.533,0,0,1-.526,1.688l-30.8-16.735-7.462,11.936a6.494,6.494,0,0,1-8.13,2.5l-5.312-2.344-33.86,54.043a1.175,1.175,0,0,1-.52-1.11v-1.1l34.217-51.9Z" transform="translate(-214.267 -171.028)" opacity="0.05"/>
        </g>
      </g>
    </g>
    <g id="freepik--open-envelope--inject-69" transform="translate(167.909 124.366)">
      <g id="freepik--open-envelope--inject-69-2" data-name="freepik--open-envelope--inject-69" transform="translate(0 0)">
        <path id="Path_568" data-name="Path 568" d="M244.2,241.264l86.617-50,3.468,2a3.617,3.617,0,0,1,1.63,2.818v63.9a3.6,3.6,0,0,1-1.63,2.818l-83.357,48.121a3.6,3.6,0,0,1-3.247,0l-1.838-1.059a3.617,3.617,0,0,1-1.63-2.818Z" transform="translate(-244.2 -167.788)" fill="#fc0"/>
        <path id="Path_569" data-name="Path 569" d="M244.2,241.264l86.617-50,3.468,2a3.617,3.617,0,0,1,1.63,2.818v63.9a3.6,3.6,0,0,1-1.63,2.818l-83.357,48.121a3.6,3.6,0,0,1-3.247,0l-1.838-1.059a3.617,3.617,0,0,1-1.63-2.818Z" transform="translate(-244.2 -167.788)" opacity="0.2"/>
        <path id="Path_570" data-name="Path 570" d="M330.343,174.284l.351-.195-1.344-.779h0a1.986,1.986,0,0,0-.357-.169l-38.12-14.131a2.63,2.63,0,0,0-2.929.935L245.3,222.216a7.364,7.364,0,0,0-1.1,3.559v4.13l1.3.773L330.791,179.9v-4.137A2.792,2.792,0,0,0,330.343,174.284Z" transform="translate(-244.2 -156.435)" fill="#fc0"/>
        <path id="Path_571" data-name="Path 571" d="M289.889,160.6a2.156,2.156,0,0,0-.442.468L246.8,223.339a6.623,6.623,0,0,0-.792,1.779l-1.3-.766a8.511,8.511,0,0,1,.344-.942h0c.058-.13.117-.253.182-.377l.032-.058a3.4,3.4,0,0,1,.227-.377l42.64-62.271a2.072,2.072,0,0,1,.214-.26l.227-.208Z" transform="translate(-244.379 -156.779)" opacity="0.1"/>
        <path id="Path_572" data-name="Path 572" d="M354.549,174.083a2.079,2.079,0,0,0-.364-.175L316.06,159.777a2.6,2.6,0,0,0-2.481.468l-1.3-.766a2.643,2.643,0,0,1,2.487-.468l38.12,14.124a2.019,2.019,0,0,1,.357.175Z" transform="translate(-268.069 -156.436)" fill="#fff" opacity="0.35"/>
        <path id="Path_573" data-name="Path 573" d="M245.55,256.8a4.138,4.138,0,0,1,.227-.377A4.138,4.138,0,0,0,245.55,256.8Z" transform="translate(-244.673 -190.633)" fill="#fc0"/>
        <path id="Path_574" data-name="Path 574" d="M311.89,160.008l.227-.208Z" transform="translate(-267.932 -156.758)" fill="#fc0"/>
        <path id="Path_575" data-name="Path 575" d="M244.67,258.642a8.5,8.5,0,0,1,.344-.942A8.513,8.513,0,0,0,244.67,258.642Z" transform="translate(-244.365 -191.082)" fill="#fc0"/>
        <path id="Path_576" data-name="Path 576" d="M245.22,257.457c.058-.13.117-.253.182-.377C245.337,257.2,245.278,257.327,245.22,257.457Z" transform="translate(-244.558 -190.864)" fill="#fc0"/>
        <path id="Path_577" data-name="Path 577" d="M245.2,257.7Z" transform="translate(-244.551 -191.082)" opacity="0.2"/>
        <path id="Path_578" data-name="Path 578" d="M244.67,259.15Z" transform="translate(-244.365 -191.59)" opacity="0.2"/>
        <path id="Path_579" data-name="Path 579" d="M312.24,159.8Z" transform="translate(-268.055 -156.758)" opacity="0.2"/>
        <path id="Path_580" data-name="Path 580" d="M245.5,257.048a.267.267,0,0,1,.032-.058.268.268,0,0,0-.032.058Z" transform="translate(-244.656 -190.833)" opacity="0.2"/>
        <path id="Path_581" data-name="Path 581" d="M311.56,160.38a2.679,2.679,0,0,1,.214-.26A1.689,1.689,0,0,0,311.56,160.38Z" transform="translate(-267.816 -156.87)" opacity="0.2"/>
        <path id="Path_582" data-name="Path 582" d="M289.984,161.126,247.337,223.4a7.428,7.428,0,0,0-1.1,3.559v4.137l86.617-50v-4.13a3,3,0,0,0-1.825-2.6L292.906,160.2A2.6,2.6,0,0,0,289.984,161.126Z" transform="translate(-244.915 -156.85)" fill="#fc0"/>
        <path id="Path_583" data-name="Path 583" d="M332.86,185.275a2.825,2.825,0,0,0-.461-1.455l-85.851,49.686h0a6.363,6.363,0,0,0-.3,1.766v4.137l86.617-50Z" transform="translate(-244.919 -165.179)" opacity="0.05"/>
        <path id="Path_584" data-name="Path 584" d="M332.616,157.638a1.006,1.006,0,0,0-.4-.909l-2.65-1.526a.994.994,0,0,0-.994.1l-71.044,41.036a3.1,3.1,0,0,0-1.409,2.435v85.071a.981.981,0,0,0,.409.909l2.637,1.526a1.006,1.006,0,0,0,.994-.1l71.057-41.01a3.117,3.117,0,0,0,1.4-2.435Z" transform="translate(-248.376 -155.115)" fill="#d9d9d9"/>
        <path id="Path_585" data-name="Path 585" d="M261.593,287.039,332.644,246a3.117,3.117,0,0,0,1.4-2.435v-85.1c0-.9-.649-1.26-1.4-.812l-46.524,26.87-24.526,14.165a3.117,3.117,0,0,0-1.4,2.435v85.071C260.19,287.1,260.82,287.468,261.593,287.039Z" transform="translate(-249.806 -155.936)" fill="#f1f1f1"/>
        <path id="Path_586" data-name="Path 586" d="M321.542,225.769a12.512,12.512,0,0,1-.533,2.831,12.072,12.072,0,0,1-1.026,2.377,9.089,9.089,0,0,1-1.338,1.818,5.709,5.709,0,0,1-1.487,1.136,3.117,3.117,0,0,1-2.046.494,1.825,1.825,0,0,1-1.059-.649q-.234.507-.487,1.013a6.037,6.037,0,0,1-.649,1.02,6.117,6.117,0,0,1-.955.981,7.213,7.213,0,0,1-1.4.909,2.715,2.715,0,0,1-1.766.351,2.078,2.078,0,0,1-1.3-.916,5.345,5.345,0,0,1-.786-2.065,14.211,14.211,0,0,1-.175-3.1,20.06,20.06,0,0,1,.422-3.4,16.294,16.294,0,0,1,.929-2.942,9.744,9.744,0,0,1,1.39-2.312,5.683,5.683,0,0,1,1.8-1.494,2.1,2.1,0,0,1,1.611-.344,1.76,1.76,0,0,1,.831.773v-.351a1.948,1.948,0,0,1,.24-.844,1.351,1.351,0,0,1,.52-.578l1.39-.708a.39.39,0,0,1,.494.052.844.844,0,0,1,.188.649l-.312,8.254q-.039.935.351,1.227a.818.818,0,0,0,.929,0,2.318,2.318,0,0,0,.942-1,4.845,4.845,0,0,0,.513-2c.065-.721.11-1.461.143-2.227s.032-1.474,0-2.124a12.864,12.864,0,0,0-.52-3.442,3.734,3.734,0,0,0-1.3-1.994,3.033,3.033,0,0,0-2.175-.474,9.637,9.637,0,0,0-3.169,1.085,11.105,11.105,0,0,0-2.805,2.065,14.734,14.734,0,0,0-2.182,2.87,17.634,17.634,0,0,0-1.52,3.474,20.9,20.9,0,0,0-.838,3.831c-.045.357-.084.812-.117,1.377s-.058,1.149-.084,1.76-.045,1.2-.058,1.773,0,1.02,0,1.364a10.339,10.339,0,0,0,.559,3.078,4.474,4.474,0,0,0,1.3,1.987,3.1,3.1,0,0,0,2.039.714,5.987,5.987,0,0,0,2.747-.773,16.379,16.379,0,0,0,1.9-1.13,12.837,12.837,0,0,0,1.422-1.143,13.644,13.644,0,0,0,1.052-1.13c.292-.37.558-.727.8-1.078s.364-.539.487-.688a1.3,1.3,0,0,1,.474-.377l1.948-1.013a.422.422,0,0,1,.507,0c.143.117.2.344.169.695a1.6,1.6,0,0,1-.208.649c-.4.734-.844,1.513-1.338,2.325a17.679,17.679,0,0,1-1.753,2.39,19.841,19.841,0,0,1-2.4,2.292,18.262,18.262,0,0,1-3.247,2.078,8.208,8.208,0,0,1-4.046,1.1,4.429,4.429,0,0,1-2.87-1.169,6.76,6.76,0,0,1-1.747-2.961,14.994,14.994,0,0,1-.649-4.267q0-.526,0-1.442c0-.6.032-1.24.058-1.9s.058-1.3.091-1.9.065-1.078.1-1.422a25.976,25.976,0,0,1,1-5.078,24.617,24.617,0,0,1,2.065-4.935,21.169,21.169,0,0,1,3.117-4.286,14.872,14.872,0,0,1,4.137-3.13,10.572,10.572,0,0,1,4.578-1.39,4.312,4.312,0,0,1,3.007,1.059,6.04,6.04,0,0,1,1.656,3.013,19.269,19.269,0,0,1,.572,4.448c0,.649,0,1.435-.045,2.331S321.6,225.022,321.542,225.769Zm-12.2,4.754a5.2,5.2,0,0,0,.39,2.7.918.918,0,0,0,1.4.318,3.338,3.338,0,0,0,1.526-1.792,9.468,9.468,0,0,0,.61-3.247,5.481,5.481,0,0,0-.377-2.727c-.3-.545-.779-.649-1.435-.312a3.344,3.344,0,0,0-1.487,1.805,9.619,9.619,0,0,0-.623,3.227Z" transform="translate(-264.219 -175.191)" fill="#fc0"/>
        <path id="Path_587" data-name="Path 587" d="M258.754,308.224a1.059,1.059,0,0,0,.331.857l-2.552-1.468a.981.981,0,0,1-.416-.909V221.633a2.819,2.819,0,0,1,.416-1.383l2.637,1.52a2.838,2.838,0,0,0-.416,1.39Z" transform="translate(-248.376 -177.952)" fill="#d9d9d9"/>
        <path id="Path_588" data-name="Path 588" d="M336.1,291.566a.787.787,0,0,1-.091.13l-36.1-11.416a6.221,6.221,0,0,0-7.793,2.4l-38.594,57.342-1.429.825h0a1.162,1.162,0,0,1-1.1.123l39.685-59.1a6.247,6.247,0,0,1,7.793-2.409Z" transform="translate(-246.581 -198.53)" fill="#fc0"/>
        <path id="Path_589" data-name="Path 589" d="M288.558,292.857l.091-.078L253.523,344.6l-1.429.825h0a1.182,1.182,0,0,1-1.1.123L287.168,292Z" transform="translate(-246.581 -203.107)" fill="#fff" opacity="0.4"/>
        <path id="Path_590" data-name="Path 590" d="M357.533,291.559a.788.788,0,0,1-.091.13l-36.1-11.416a6.215,6.215,0,0,0-7.793,2.4l-1.429-.831a6.234,6.234,0,0,1,7.793-2.39Z" transform="translate(-268.013 -198.523)" fill="#fff" opacity="0.4"/>
        <path id="Path_591" data-name="Path 591" d="M339.083,196.108h0c-.078-.468-.325-.6-.649-.377a1.878,1.878,0,0,0-.416.429l-.182.253-35.62,54.147-5.319,7.41a3.033,3.033,0,0,1-2.929,1.1l-4.591-1.091-35.068-12.9a1.786,1.786,0,0,0-.714,0,1.3,1.3,0,0,0-.266.084l1.3-.766,33.6,12.339,4.422,1.578a3.02,3.02,0,0,0,2.929-1.1l5.319-7.4,35.795-54.4a1.428,1.428,0,0,1,.4-.37l-3.1-1.786,1.3-.747,2.143,1.234A3.715,3.715,0,0,1,339.083,196.108Z" transform="translate(-247.401 -168.226)" fill="#fc0"/>
        <path id="Path_592" data-name="Path 592" d="M321.679,281.511l-5.319,7.41a3.033,3.033,0,0,1-2.929,1.1l-4.591-1.091.091-.078.221-.351,3.007.714a3.02,3.02,0,0,0,2.929-1.1l5.267-7.325Z" transform="translate(-266.863 -199.177)" fill="#fff" opacity="0.4"/>
        <path id="Path_593" data-name="Path 593" d="M363.164,193.654l-2.143-1.234-1.3.747,3.1,1.786h0a1.363,1.363,0,0,0-.4.37l-35.795,54.4-.052.071h0l1.3.721,35.62-54.153.182-.253a1.876,1.876,0,0,1,.416-.429c.318-.221.565-.091.649.377h0A3.715,3.715,0,0,0,363.164,193.654Z" transform="translate(-273.079 -168.194)" opacity="0.1"/>
        <path id="Path_594" data-name="Path 594" d="M251.873,272.669l-7.643-4.409v65.778a3.617,3.617,0,0,0,1.63,2.818l1.838,1.059a3.6,3.6,0,0,0,3.247,0l.916-.526Z" transform="translate(-244.211 -194.784)" fill="#fc0"/>
        <path id="Path_595" data-name="Path 595" d="M251.873,272.669l-7.643-4.409v65.778a3.617,3.617,0,0,0,1.63,2.818l1.838,1.059a3.6,3.6,0,0,0,3.247,0l.916-.526Z" transform="translate(-244.211 -194.784)" opacity="0.15"/>
        <path id="Path_596" data-name="Path 596" d="M338.682,198.2V262.09a3.318,3.318,0,0,1-.507,1.649,3.559,3.559,0,0,1-.955,1.072l-.065.032a.99.99,0,0,1-.1.071l-83.357,48.121h0a1.162,1.162,0,0,1-1.11.13.987.987,0,0,1-.487-.779,2.075,2.075,0,0,1,0-.292v-63.9a1.416,1.416,0,0,1,1.831-1.442L289,259.649l4.591,1.091a3.033,3.033,0,0,0,2.929-1.1l5.319-7.41,35.62-54.147.182-.253C338.188,197,338.682,197.157,338.682,198.2Z" transform="translate(-246.967 -169.905)" fill="#fc0"/>
        <path id="Path_597" data-name="Path 597" d="M363.882,294.58l.11-.071.058-.039a3.454,3.454,0,0,0,.955-1.065,3.318,3.318,0,0,0,.507-1.623L328.62,281.91,353.3,300.671Z" transform="translate(-273.798 -199.57)" fill="#fc0"/>
        <path id="Path_598" data-name="Path 598" d="M363.882,294.58l.11-.071.058-.039a3.454,3.454,0,0,0,.955-1.065,3.318,3.318,0,0,0,.507-1.623L328.62,281.91,353.3,300.671Z" transform="translate(-273.798 -199.57)" opacity="0.2"/>
        <path id="Path_599" data-name="Path 599" d="M252.046,345.756a1.123,1.123,0,0,0,.507,1.072,1.156,1.156,0,0,0,1.11-.123h0l28.71-16.579,6.559-36.814-36.886,51.38Z" transform="translate(-246.948 -203.566)" fill="#fc0"/>
        <path id="Path_600" data-name="Path 600" d="M292.465,284.219l-39.912,59.147a1.124,1.124,0,0,1-.507-1.072v-1.059l38.964-57.8h0Z" transform="translate(-246.948 -200.106)" opacity="0.15"/>
        <path id="Path_601" data-name="Path 601" d="M338.441,292.765a3.455,3.455,0,0,1-.955,1.065l-.058.039L253.96,342.061h0a1.156,1.156,0,0,1-1.11.123l39.919-59.154a6.267,6.267,0,0,1,7.845-2.409Z" transform="translate(-247.233 -198.93)" fill="#fc0"/>
        <path id="Path_602" data-name="Path 602" d="M244.505,259.15l1.3.766a6.5,6.5,0,0,0-.305,1.779v4.13l-1.3-.766v-4.137A6.494,6.494,0,0,1,244.505,259.15Z" transform="translate(-244.2 -191.59)" opacity="0.15"/>
        <path id="Path_603" data-name="Path 603" d="M252.185,270.933l-1.325.766-1.338-.773-3.292-1.9,1.279-.76Z" transform="translate(-244.912 -194.787)" fill="#fc0"/>
        <path id="Path_604" data-name="Path 604" d="M252.233,270.958,247.5,268.27l-1.3.76,3.292,1.9,1.338.773h0l.253-.078a1.786,1.786,0,0,1,.714,0l2.714,1.02,30.593,11.267.481-.708Z" transform="translate(-244.901 -194.787)" opacity="0.1"/>
      </g>
    </g>
    <g id="freepik--Clouds--inject-69" transform="translate(43.842 70.284)">
      <g id="freepik--clouds--inject-69-2" data-name="freepik--clouds--inject-69">
        <g id="freepik--Cloud--inject-69" transform="translate(30.619 16.94)">
          <path id="Path_605" data-name="Path 605" d="M129.328,100.615l-4.948,2.857a5.639,5.639,0,0,0,.039-.649v-1.429c0-2.552-1.792-3.585-4-2.312a7.89,7.89,0,0,0-2.383,2.292c-.357-3.208-2.877-4.4-5.936-2.637a13.244,13.244,0,0,0-5.981,10.39v2.143a5.669,5.669,0,0,0,.507,2.487l-4.111,2.37a4.916,4.916,0,0,0-2.214,3.844c0,1.416.994,1.987,2.214,1.3l26.814-15.508a4.9,4.9,0,0,0,2.214-3.838C131.562,100.486,130.569,99.921,129.328,100.615Z" transform="translate(-100.3 -97.921)" fill="#b2b2b2"/>
        </g>
        <g id="freepik--cloud--inject-69-2" data-name="freepik--cloud--inject-69">
          <path id="Path_606" data-name="Path 606" d="M88.86,75.189,82.769,78.7a6.791,6.791,0,0,0,.052-.805V76.1c0-3.137-2.2-4.409-4.922-2.838a9.579,9.579,0,0,0-2.935,2.818c-.442-3.948-3.539-5.416-7.306-3.247A16.293,16.293,0,0,0,60.293,85.58v2.637a6.962,6.962,0,0,0,.649,3.059L55.884,94.2a6.039,6.039,0,0,0-2.734,4.728c0,1.747,1.227,2.448,2.734,1.578l33-19.053a6.02,6.02,0,0,0,2.734-4.728C91.594,74.994,90.374,74.293,88.86,75.189Z" transform="translate(-53.15 -71.835)" fill="#b2b2b2"/>
        </g>
      </g>
    </g>
    <g id="freepik--paper-plane--inject-69" transform="translate(239.833 74.45)">
      <g id="freepik--paper-plane--inject-69-2" data-name="freepik--paper-plane--inject-69" transform="translate(0 0)">
        <path id="Path_607" data-name="Path 607" d="M404.96,156.779l22.969-14.709,10.124,3.247Z" transform="translate(-372.486 -100.625)" fill="#fc0"/>
        <path id="Path_608" data-name="Path 608" d="M404.96,153.031l19.852-16.56L420.4,131.38Z" transform="translate(-372.486 -96.877)" fill="#fc0"/>
        <path id="Path_609" data-name="Path 609" d="M424.812,139.22v3.844L404.96,155.78Z" transform="translate(-372.486 -99.626)" fill="#fc0"/>
        <path id="Path_610" data-name="Path 610" d="M424.812,139.22v3.844L404.96,155.78Z" transform="translate(-372.486 -99.626)" opacity="0.25"/>
        <path id="Path_611" data-name="Path 611" d="M410.592,117.526a.487.487,0,0,1-.331-.844,16.929,16.929,0,0,0,1.877-2.046.487.487,0,1,1,.773.591,17.931,17.931,0,0,1-1.987,2.169A.506.506,0,0,1,410.592,117.526Zm3.656-4.851a.461.461,0,0,1-.221-.052.481.481,0,0,1-.214-.649,16.572,16.572,0,0,0,1.3-3.552.487.487,0,1,1,.948.227,17.13,17.13,0,0,1-1.364,3.76A.487.487,0,0,1,414.248,112.675Zm1.779-6.864h0a.487.487,0,0,1-.468-.507v-.786a17.92,17.92,0,0,0-.253-2.994.487.487,0,0,1,.4-.565.494.494,0,0,1,.565.4,19.171,19.171,0,0,1,.266,3.156v.825a.487.487,0,0,1-.507.468Zm-1.046-7.02a.487.487,0,0,1-.461-.331A20.86,20.86,0,0,0,412.943,95a.5.5,0,0,1,.182-.649.494.494,0,0,1,.649.182,21.527,21.527,0,0,1,1.643,3.624.487.487,0,0,1-.3.649.65.65,0,0,1-.143-.019Zm-3.416-6.241a.487.487,0,0,1-.383-.188,24.876,24.876,0,0,0-2.559-2.831.487.487,0,1,1,.649-.708,26.252,26.252,0,0,1,2.663,2.942.487.487,0,0,1-.091.649.48.48,0,0,1-.286.136Zm-5.085-4.987a.481.481,0,0,1-.292-.1,31.362,31.362,0,0,0-3.2-2.111.494.494,0,0,1-.175-.649.481.481,0,0,1,.649-.175,32.2,32.2,0,0,1,3.3,2.176.487.487,0,0,1-.292.877Zm-51.036-1.883a.487.487,0,0,1-.247-.909c1.13-.649,2.3-1.26,3.487-1.825a.487.487,0,0,1,.649.234.48.48,0,0,1-.234.649c-1.162.552-2.312,1.149-3.416,1.786a.481.481,0,0,1-.247.065Zm44.912-1.747a.461.461,0,0,1-.208-.045c-1.156-.558-2.344-1.072-3.539-1.533a.5.5,0,1,1,.37-.929c1.214.468,2.429.994,3.611,1.565a.487.487,0,0,1-.214.922Zm-38.49-1.3a.5.5,0,0,1-.455-.312.487.487,0,0,1,.279-.649c1.214-.474,2.468-.909,3.721-1.3a.488.488,0,0,1,.279.935c-1.227.364-2.455.792-3.643,1.253a.461.461,0,0,1-.182.032Zm31.821-1.3a.371.371,0,0,1-.143,0c-1.221-.37-2.474-.695-3.728-.968a.5.5,0,1,1,.234-.981c1.3.279,2.559.61,3.805.994a.487.487,0,0,1,.325.61.494.494,0,0,1-.468.344Zm-25-.851a.487.487,0,0,1-.474-.377.494.494,0,0,1,.37-.584c1.266-.292,2.565-.539,3.864-.727a.487.487,0,1,1,.143.961c-1.3.188-2.546.429-3.793.721Zm18.066-.747h-.071c-1.266-.188-2.559-.325-3.838-.409a.487.487,0,1,1,.065-.968q1.948.127,3.9.409a.487.487,0,0,1-.071.968Zm-10.988-.351a.487.487,0,1,1-.039-.974c1.3-.1,2.63-.162,3.935-.162h0a.487.487,0,0,1,0,.974c-1.3,0-2.6.058-3.857.162Z" transform="translate(-354.954 -78.25)" fill="#e0e0e0"/>
      </g>
    </g>
  </g>
</svg>
