<svg xmlns="http://www.w3.org/2000/svg" width="213.933" height="202.985" viewBox="0 0 213.933 202.985">
    <g id="Group_146" data-name="Group 146" transform="translate(-255 -2588)">
        <g id="Group_121" data-name="Group 121" transform="translate(0 1046)">
            <g id="freepik--background-simple--inject-1--inject-130" transform="translate(255 1542)">
                <path id="Path_699" data-name="Path 699"
                      d="M239.926,98.318q-4.978-2.132-10.076-3.926c-23.667-8.262-51.962-3.562-72.7,10.116-10.97,7.236-18.609,16.921-24.3,28.685-5.786,11.963-9.811,24.866-18.093,35.458-8.1,10.374-19.457,18.576-24.025,31.347-9.93,27.9,7.057,65.99,38.874,68.632,22.449,1.867,30.764,14.6,54.286,21.033s46.719,5.667,73.59-13.532c10.851-7.746,20.357-17.954,24.495-30.857,3.727-11.612.285-23.74.808-35.6.662-14.631,10.877-25.594,16.345-38.516,8.116-19.166-3.224-36.021-18.067-47.924A179.9,179.9,0,0,0,239.926,98.318Z"
                      transform="translate(-87.897 -90.303)" fill="#fadee1"/>
                <path id="Path_700" data-name="Path 700"
                      d="M239.926,98.318q-4.978-2.132-10.076-3.926c-23.667-8.262-51.962-3.562-72.7,10.116-10.97,7.236-18.609,16.921-24.3,28.685-5.786,11.963-9.811,24.866-18.093,35.458-8.1,10.374-19.457,18.576-24.025,31.347-9.93,27.9,7.057,65.99,38.874,68.632,22.449,1.867,30.764,14.6,54.286,21.033s46.719,5.667,73.59-13.532c10.851-7.746,20.357-17.954,24.495-30.857,3.727-11.612.285-23.74.808-35.6.662-14.631,10.877-25.594,16.345-38.516,8.116-19.166-3.224-36.021-18.067-47.924A179.9,179.9,0,0,0,239.926,98.318Z"
                      transform="translate(-87.897 -90.303)" fill="#fadee1" opacity="0.7"/>
            </g>
            <g id="Group_71" data-name="Group 71" transform="translate(294 1561)">
                <path id="Path_799" data-name="Path 799"
                      d="M425.457,692.929h-3.65a3.531,3.531,0,0,1-3.529-3.529v-.12a8.2,8.2,0,0,0-8.2-8.2h-.188a8.2,8.2,0,0,0-8.2,8.2v.12a3.531,3.531,0,0,1-3.529,3.529h-3.65a7.036,7.036,0,0,0-7.036,7.036v.14a7.036,7.036,0,0,0,7.036,7.036h30.942a7.036,7.036,0,0,0,7.036-7.036v-.14A7.036,7.036,0,0,0,425.457,692.929Z"
                      transform="translate(-356.683 -681.084)" fill="#f25c69"/>
                <path id="Path_800" data-name="Path 800" d="M397.806,689.885a3.555,3.555,0,1,1,3.552-3.555A3.554,3.554,0,0,1,397.806,689.885Z" transform="translate(-344.501 -678.04)" fill="#1637f2"/>
                <path id="Path_801" data-name="Path 801"
                      d="M445.6,819.676H385.95a9.474,9.474,0,0,1-9.474-9.474V696.483c0-5.234,4.243-9.474,7.106-9.474h19.2a12.049,12.049,0,0,0-.246,2.441,11.787,11.787,0,0,0,11.775,11.772H445.25a11.875,11.875,0,0,0,11.543-14.213h14.445c7.6,0,11.848,4.24,11.848,9.474v71.2c-.789-.05-1.57-.12-2.371-.12a37.822,37.822,0,0,0-9.477,1.245V713.066H388.321v94.765H442.93A37.669,37.669,0,0,0,445.6,819.676Z"
                      transform="translate(-376.476 -670.426)" fill="#1637f2"/>
                <path id="Path_802" data-name="Path 802" d="M433.514,718.327a30.8,30.8,0,1,0,30.8,30.8A30.8,30.8,0,0,0,433.514,718.327Z" transform="translate(-329.275 -614.088)" fill="#f25c69"/>
                <path id="Path_803" data-name="Path 803" d="M446.024,732.14l-18.951,21.322a4.74,4.74,0,0,1-6.5.552l-11.845-9.477a4.738,4.738,0,0,1,5.92-7.4l8.332,6.667,15.965-17.961a4.738,4.738,0,1,1,7.081,6.3Z"
                      transform="translate(-321.661 -603.431)" fill="#1637f2"/>
                <rect id="Rectangle_336" data-name="Rectangle 336" width="42.644" height="7.107" rx="0.846" transform="translate(42.643 75.809)" fill="#1637f2"/>
                <rect id="Rectangle_337" data-name="Rectangle 337" width="42.644" height="7.107" rx="0.846" transform="translate(42.643 54.487)" fill="#1637f2"/>
                <rect id="Rectangle_338" data-name="Rectangle 338" width="30.798" height="7.107" rx="0.846" transform="translate(42.643 94.762)" fill="#1637f2"/>
                <rect id="Rectangle_339" data-name="Rectangle 339" width="26.06" height="7.107" rx="0.846" transform="translate(42.643 116.084)" fill="#1637f2"/>
                <path id="Path_804" data-name="Path 804" d="M401.654,702.3l-8.724,9.816a2.185,2.185,0,0,1-2.995.252L384.483,708a2.181,2.181,0,1,1,2.726-3.406l3.834,3.068,7.35-8.268a2.182,2.182,0,1,1,3.261,2.9Z"
                      transform="translate(-363.547 -649.461)" fill="#f25c69"/>
                <path id="Path_805" data-name="Path 805" d="M401.654,709.827l-8.724,9.813a2.181,2.181,0,0,1-2.995.255l-5.452-4.363a2.18,2.18,0,1,1,2.726-3.4l3.834,3.067,7.35-8.268a2.182,2.182,0,1,1,3.261,2.9Z"
                      transform="translate(-363.547 -635.914)" fill="#f25c69"/>
                <path id="Path_806" data-name="Path 806" d="M401.654,717.026l-8.724,9.818a2.185,2.185,0,0,1-2.995.252l-5.452-4.364a2.181,2.181,0,1,1,2.726-3.406l3.834,3.07,7.35-8.268a2.181,2.181,0,0,1,3.261,2.9Z"
                      transform="translate(-363.547 -622.958)" fill="#f25c69"/>
                <path id="Path_807" data-name="Path 807" d="M401.654,724.279l-8.724,9.816a2.181,2.181,0,0,1-2.995.255l-5.452-4.363a2.181,2.181,0,1,1,2.726-3.406l3.834,3.07,7.35-8.268a2.181,2.181,0,0,1,3.261,2.9Z"
                      transform="translate(-363.547 -609.911)" fill="#f25c69"/>
            </g>
        </g>
    </g>
</svg>
