<svg xmlns="http://www.w3.org/2000/svg" width="456" height="399" viewBox="0 0 456 399">
    <path id="quote-left-solid"
          d="M413.25,231.5H342v-57a57.053,57.053,0,0,1,57-57h7.125A21.324,21.324,0,0,0,427.5,96.125V53.375A21.324,21.324,0,0,0,406.125,32H399A142.461,142.461,0,0,0,256.5,174.5V388.25A42.761,42.761,0,0,0,299.25,431h114A42.761,42.761,0,0,0,456,388.25v-114A42.761,42.761,0,0,0,413.25,231.5Zm-256.5,0H85.5v-57a57.053,57.053,0,0,1,57-57h7.125A21.324,21.324,0,0,0,171,96.125V53.375A21.324,21.324,0,0,0,149.625,32H142.5A142.461,142.461,0,0,0,0,174.5V388.25A42.761,42.761,0,0,0,42.75,431h114a42.761,42.761,0,0,0,42.75-42.75v-114A42.761,42.761,0,0,0,156.75,231.5Z"
          transform="translate(0 -32)" fill="#f1f1f1"/>
</svg>
