<svg xmlns="http://www.w3.org/2000/svg" width="39.011" height="39" viewBox="0 0 39.011 39">
  <g id="_002-united-states" data-name="002-united-states" transform="translate(0 0.212)">
    <circle id="Ellipse_29" data-name="Ellipse 29" cx="19.5" cy="19.5" r="19.5" transform="translate(0.011 -0.212)" fill="#f0f0f0"/>
    <g id="Group_80" data-name="Group 80" transform="translate(0.666 4.307)">
      <path id="Path_673" data-name="Path 673" d="M244.87,194.263h20.184a19.364,19.364,0,0,0-.666-5.046H244.87Z" transform="translate(-227.034 -179.125)" fill="#d80027"/>
      <path id="Path_674" data-name="Path 674" d="M244.87,60.7h17.345a19.445,19.445,0,0,0-4.463-5.046H244.87Z" transform="translate(-227.034 -55.652)" fill="#d80027"/>
      <path id="Path_675" data-name="Path 675" d="M108.685,460.553a19.26,19.26,0,0,0,12.041-4.2H96.644A19.26,19.26,0,0,0,108.685,460.553Z" transform="translate(-90.008 -426.072)" fill="#d80027"/>
      <path id="Path_676" data-name="Path 676" d="M10.992,327.828H44a19.228,19.228,0,0,0,2.173-5.046H8.819A19.228,19.228,0,0,0,10.992,327.828Z" transform="translate(-8.819 -302.598)" fill="#d80027"/>
    </g>
    <path id="Path_677" data-name="Path 677" d="M8.96,3.021h1.763L9.083,4.212l.626,1.927L8.07,4.948,6.43,6.139l.541-1.665A19.449,19.449,0,0,0,3.22,8.655h.565l-1.044.758q-.244.407-.468.826l.5,1.534-.93-.676q-.347.735-.633,1.5l.549,1.69H3.785l-1.64,1.191.626,1.927-1.64-1.191-.982.714A19.53,19.53,0,0,0,0,19.343H19.343V0A19.251,19.251,0,0,0,8.96,3.021Zm.749,14.388L8.07,16.218,6.43,17.409l.626-1.927L5.417,14.29H7.444l.626-1.927L8.7,14.29h2.027l-1.64,1.191ZM9.083,9.847l.626,1.927L8.07,10.583,6.43,11.774l.626-1.927L5.417,8.655H7.444L8.07,6.728,8.7,8.655h2.027Zm7.565,7.562-1.64-1.191-1.64,1.191.626-1.927-1.64-1.191h2.027l.626-1.927.626,1.927h2.027l-1.64,1.191Zm-.626-7.562.626,1.927-1.64-1.191-1.64,1.191.626-1.927-1.64-1.191h2.027l.626-1.927.626,1.927h2.027Zm0-5.635.626,1.927-1.64-1.191-1.64,1.191.626-1.927-1.64-1.191h2.027l.626-1.927.626,1.927h2.027Z" transform="translate(0 0.102)" fill="#0052b4"/>
  </g>
</svg>
