<svg id="Layer_1" height="512" viewBox="0 0 512 512" width="512" xmlns="http://www.w3.org/2000/svg" data-name="Layer 1"><path d="m101 116h263v368h-263z" fill="#fb6771"/><path d="m319.8 67.91v48.45h-79.25v-48.45a39.639 39.639 0 0 1 39.62-39.63c.69 0 1.37.02 2.05.05a39.631 39.631 0 0 1 37.58 39.58z" fill="#edc978"/><path d="m100.83 116.36v367.36h-.13l-39.6-36.84v-330.52z" fill="#fc8692"/><path d="m61.1 446.88 39.6 36.84h-79.2z" fill="#b54e64"/><path d="m61.1 116.36v330.52l-39.6 36.84h-.13v-367.36z" fill="#ce5166"/><path d="m175.06 400.72h102.86v34.49h-102.86z" fill="#81c83d"/><path d="m445.07 28h-163.07v.33c21 1.07 38 18.38 38 39.58v353.92l25.51-17.46 19.855 17.46 19.917-17.46 19.924 17.46 19.927-17.46 19.929 17.46 20.114-17.46 25.824 17.46v-347.99a46.12 46.12 0 0 0 -45.93-45.84z" fill="#e5cfa3"/><path d="m313 28.33v-.33h-31v.33c21 1.07 38 18.38 38 39.58v353.92l25.51-17.46 5.49 4.83v-341.29c0-21.2-17-38.51-38-39.58z" fill="#ffe6bb"/><path d="m101 116h30v368h-30z" fill="#dd5e6a"/><path d="m226.49 307.064a68.063 68.063 0 0 1 -67.99-67.986v-55.314h12v55.314a55.987 55.987 0 0 0 111.973 0v-55.314h12v55.314a68.063 68.063 0 0 1 -67.983 67.986z" fill="#ba2020"/><path d="m374.107 326.679a11.71 11.71 0 1 1 11.711-11.71 5.974 5.974 0 1 0 11.947 0 24 24 0 0 0 -17.765-22.939v-4.5a6 6 0 0 0 -12 0v4.5a23.718 23.718 0 0 0 6.081 46.649 11.707 11.707 0 0 1 .145 23.414c-.042 0-.08-.007-.122-.007s-.081.006-.123.007a11.718 11.718 0 0 1 -11.584-11.7 6.027 6.027 0 0 0 -12.053 0 23.906 23.906 0 0 0 17.656 22.935v5.308a6 6 0 0 0 12 0v-5.308a24 24 0 0 0 17.765-22.939 23.691 23.691 0 0 0 -23.658-23.71z" fill="#867af4"/><g fill="#baa379"><path d="m454.182 130.364h-99.082a6 6 0 0 1 0-12h99.08a6 6 0 0 1 0 12z"/><path d="m454.182 94.985h-99.082a6 6 0 0 1 0-12h99.08a6 6 0 0 1 0 12z"/><path d="m454.182 165.742h-99.082a6 6 0 0 1 0-12h99.08a6 6 0 0 1 0 12z"/><path d="m454.182 201.12h-99.082a6 6 0 0 1 0-12h99.08a6 6 0 0 1 0 12z"/><path d="m454.182 236.5h-99.082a6 6 0 0 1 0-12h99.08a6 6 0 0 1 0 12z"/><path d="m454.182 271.876h-99.082a6 6 0 0 1 0-12h99.08a6 6 0 0 1 0 12z"/></g><path d="m133.3 215.392a6 6 0 0 1 -6-6v-6.3a6 6 0 0 1 12 0v6.3a6 6 0 0 1 -6 6z" fill="#f4f8fc"/><path d="m133.3 320.392a6 6 0 0 1 -6-6v-86a6 6 0 0 1 12 0v86a6 6 0 0 1 -6 6z" fill="#f4f8fc"/><path d="m288.48 190.18c-.13.01-.26.01-.39.01a12.65 12.65 0 1 1 .39-.01z" fill="#d61d1d"/><path d="m164.5 190.18a1.62 1.62 0 0 1 -.22.01 13.01 13.01 0 1 1 .22-.01z" fill="#d61d1d"/></svg>