<svg id="Layer_1" height="512" viewBox="0 0 512 512" width="512" xmlns="http://www.w3.org/2000/svg" data-name="Layer 1"><path d="m249 329h1.488c-.494-.036-.989-.072-1.488-.09z" fill="#d4eef4"/><path d="m22 13v123h411v-123z" fill="#6d7486"/><path d="m81 52h290v48h-290z" fill="#4a5160"/><path d="m466 474.06v-99.9c0-25.01-20.67-45.16-45.68-45.16h-169.832a39.774 39.774 0 0 1 36.512 39.78v84.61a45.666 45.666 0 0 0 45.41 45.61h155.99c-12.76-1-22.4-11.94-22.4-24.94z" fill="#d4eef4"/><path d="m124 78v311.16a41.722 41.722 0 0 0 41.705 41.59 39.472 39.472 0 0 0 4.092-.21 41.473 41.473 0 0 0 37.203-41.38v-20.38a39.912 39.912 0 0 1 11.855-28.21 40.393 40.393 0 0 1 28.467-11.69c.481 0 .678.01 1.678.03v.09h90v-251z" fill="#cae6ee"/><path d="m287.13 368.78v61.78h-117.15v-.02a41.6 41.6 0 0 0 37.35-41.38v-20.38a39.912 39.912 0 0 1 39.9-39.9c.48 0 .95.01 1.42.03a39.9 39.9 0 0 1 38.48 39.87z" fill="#a5bfce"/><path d="m265.47 214.27a9.605 9.605 0 1 1 -9.61 9.61 9.6 9.6 0 0 1 9.61-9.61z" fill="#49bdff"/><path d="m213.84 214.27a9.605 9.605 0 1 1 -9.61 9.61 9.607 9.607 0 0 1 9.61-9.61z" fill="#49bdff"/><path d="m22 13h30v123h-30z" fill="#525866"/><path d="m317 453.39v-84.61a39.774 39.774 0 0 0 -36.512-39.78h-30a39.774 39.774 0 0 1 36.512 39.78v84.61a45.666 45.666 0 0 0 45.41 45.61h30a45.666 45.666 0 0 1 -45.41-45.61z" fill="#b9d6db"/><path d="m154 389.16v-311.16h-30v311.16a41.722 41.722 0 0 0 41.705 41.59 39.472 39.472 0 0 0 4.092-.21 41.2 41.2 0 0 0 10.827-2.615 41.731 41.731 0 0 1 -26.624-38.765z" fill="#aac8ce"/><path d="m277.322 328.88c-.991 0-1.974.049-2.952.12h4.63v-.09c-1-.02-1.2-.03-1.678-.03z" fill="#cae6ee"/><g fill="#8db2b7"><path d="m301.6 274.863h-99.646a6 6 0 0 1 0-12h99.646a6 6 0 0 1 0 12z"/><path d="m176.212 274.863h-14.463a6 6 0 1 1 0-12h14.463a6 6 0 0 1 0 12z"/><path d="m301.6 307.18h-99.646a6 6 0 0 1 0-12h99.646a6 6 0 0 1 0 12z"/><path d="m176.212 307.18h-14.463a6 6 0 1 1 0-12h14.463a6 6 0 0 1 0 12z"/></g><path d="m342.214 404.721a11.5 11.5 0 1 1 11.5-11.5 6 6 0 0 0 6 6 5.91 5.91 0 0 0 5.893-6 23.7 23.7 0 0 0 -17.607-22.711v-4.391a6 6 0 0 0 -12 0v4.391a23.511 23.511 0 0 0 6.161 46.211 11.492 11.492 0 0 1 .161 22.983c-.041 0-.074-.006-.114-.006s-.077 0-.118.006a11.5 11.5 0 0 1 -11.372-11.489 6 6 0 0 0 -6-6 6.093 6.093 0 0 0 -6.107 6 23.506 23.506 0 0 0 17.389 22.716v5.188a6 6 0 0 0 12 0v-5.188a23.7 23.7 0 0 0 17.6-22.716 23.43 23.43 0 0 0 -23.386-23.494z" fill="#50dd5a"/><path d="m424.18 452.119h-28.966a6 6 0 0 1 0-12h28.966a6 6 0 0 1 0 12z" fill="#8db2b7"/><path d="m424.18 417.119h-28.966a6 6 0 0 1 0-12h28.966a6 6 0 0 1 0 12z" fill="#8db2b7"/><path d="m424.18 382.119h-28.966a6 6 0 0 1 0-12h28.966a6 6 0 0 1 0 12z" fill="#8db2b7"/><g id="_Group_" data-name=" Group "><g id="_Group_2" data-name=" Group 2"><g id="_Group_3" data-name=" Group 3"><g id="_Group_4" data-name=" Group 4"><path d="m277.7 199h-68.232a6.671 6.671 0 0 1 -6.706-5.532l-1.63-9.468h64.608a15.929 15.929 0 0 0 15.24-11.015l9.97-30.985h-96.979l-2.8-16.415a18.692 18.692 0 0 0 -18.537-15.585h-9.156a6 6 0 0 0 0 12h9.156a6.65 6.65 0 0 1 6.707 5.508l11.59 68.056a18.563 18.563 0 0 0 18.537 15.436h68.232a6 6 0 0 0 0-12z" fill="#49bdff"/></g></g></g></g><path d="m149.667 153.058a6 6 0 0 1 -6-6v-6.295a6 6 0 0 1 12 0v6.295a6 6 0 0 1 -6 6z" fill="#f4f8fc"/><path d="m149.667 234.058a6 6 0 0 1 -6-6v-62a6 6 0 0 1 12 0v62a6 6 0 0 1 -6 6z" fill="#f4f8fc"/></svg>