<svg id="Layer_1" height="512" viewBox="0 0 512 512" width="512" xmlns="http://www.w3.org/2000/svg" data-name="Layer 1"><path d="m233.12 72.51a146.147 146.147 0 0 1 128.23 75.94h59.62c.18 0 .35 0 .53.01-27.88-73.74-101.81-126.46-188.38-126.46-110.4 0-200.24 85.73-200.24 191.43 0 148.56 200.24 276.57 200.24 276.57s96.81-61.9 155.81-149.56l-10.74-23.33h-36.96a146.191 146.191 0 1 1 -108.11-244.6z" fill="#b3d1e7"/><path d="m340 203v114h121.57a17.358 17.358 0 0 0 17.43-17.44v-96.56z" fill="#eadf53"/><path d="m433.9 153.94a17.658 17.658 0 0 0 -12.4-5.805c-.18-.01-.524-.135-.7-.135h-80.8v55h139.12z" fill="#6addc7"/><path d="m313.93 130.17v106.81h-62.34v-136.81h32.34a30 30 0 0 1 30 30z" fill="#e75163"/><path d="m251.59 100.23v136.75h-61.43v-136.75-.06h61.43z" fill="#fb6771"/><path d="m190.16 100.23v136.75h-58.57v-123.45a145.248 145.248 0 0 1 16.05-13.43l.05.07h42.47z" fill="#e75163"/><path d="m131.59 113.53v123.45h-43.16l-.37.04a149.687 149.687 0 0 1 -1.13-18.32 145.7 145.7 0 0 1 44.66-105.17z" fill="#fb6771"/><path d="m479.12 227.8v26.5h-21.79a3.508 3.508 0 0 1 -3.51-3.51v-19.48a3.515 3.515 0 0 1 3.51-3.51z" fill="#fb6771"/><path d="m95.44 268a149.856 149.856 0 0 0 29.73 49.245l.19-.245h214.64v-49z" fill="#4689d3"/><path d="m251.59 236.98h88.4v30.98h-244.55a145.935 145.935 0 0 1 -7.38-30.94l.37-.04z" fill="#5fa8ed"/><path d="m388.93 340.44a30.709 30.709 0 1 1 19.98 7.39 30.609 30.609 0 0 1 -19.98-7.39z" fill="#4a5160"/><path d="m181.79 286.4a30.715 30.715 0 1 1 -30.72 30.71 30.711 30.711 0 0 1 30.72-30.71z" fill="#4a5160"/><path d="m384.33 148.45h21.07v54.95h-21.07z" fill="#fff27d"/><path d="m370 203h-30v1 113h.45.78 28.77v-113z" fill="#fff655"/><path d="m62.88 213.43c0-100.861 81.8-183.535 185.215-190.893q-7.417-.526-14.975-.537c-110.4 0-200.24 85.73-200.24 191.43 0 148.56 200.24 276.57 200.24 276.57s5.635-3.605 15-10.291c-46.515-33.209-185.24-142.624-185.24-266.279z" fill="#8badc1"/><g fill="#f4f8fc"><path d="m365.667 236.058a6 6 0 0 1 -6-6v-6.295a6 6 0 1 1 12 0v6.295a6 6 0 0 1 -6 6z"/><path d="m365.667 292.058a6 6 0 0 1 -6-6v-37a6 6 0 1 1 12 0v37a6 6 0 0 1 -6 6z"/></g></svg>