<svg id="Layer_1" height="512" viewBox="0 0 512 512" width="512" xmlns="http://www.w3.org/2000/svg" data-name="Layer 1"><path d="m311.333 191-116.333 2.333-94.38 31.852 155.38 77.602 155.38-77.608z" fill="#775f58"/><path d="m408.01 227.81-152.01 74.99v194.16l152-73.64v-196.24z" fill="#8e7066"/><path d="m103.86 226.74.14.03v196.55l152 73.64v-194.16z" fill="#af8977"/><path d="m186.23 196.34a19.933 19.933 0 0 0 -6.36-5.08l-9.84-4.96a20 20 0 0 1 -10.95-18.95l.61-11.11a19.965 19.965 0 0 0 -3.27-12.11l-6.04-9.16a20.017 20.017 0 0 1 0-22.02l6.04-9.15a19.984 19.984 0 0 0 3.27-12.11l-.61-11.11a19.991 19.991 0 0 1 10.95-18.95l9.84-4.97a20 20 0 0 0 8.83-8.83l4.97-9.83a20.016 20.016 0 0 1 18.95-10.96l11.11.61a19.954 19.954 0 0 0 12.1-3.27l9.16-6.03a19.979 19.979 0 0 1 22.02 0l9.16 6.03a19.954 19.954 0 0 0 12.1 3.27l11.11-.61a20.016 20.016 0 0 1 18.95 10.96l4.97 9.83a20 20 0 0 0 8.83 8.83l9.84 4.97a19.991 19.991 0 0 1 10.95 18.95l-.61 11.11a19.984 19.984 0 0 0 3.27 12.11l6.04 9.15a20.017 20.017 0 0 1 0 22.02l-6.04 9.16a19.965 19.965 0 0 0 -3.27 12.11l.61 11.11a20 20 0 0 1 -10.95 18.95l-9.84 4.96a19.972 19.972 0 0 0 -8.83 8.84l-4.97 9.83a19.991 19.991 0 0 1 -18.95 10.95l-11.11-.61a19.954 19.954 0 0 0 -12.1 3.27l-9.16 6.04a20.017 20.017 0 0 1 -22.02 0l-9.16-6.04a19.954 19.954 0 0 0 -12.1-3.27l-11.11.61a19.991 19.991 0 0 1 -18.95-10.95l-4.97-9.83a19.685 19.685 0 0 0 -2.47-3.76z" fill="#fb6771"/><path d="m256 52.37a71.59 71.59 0 1 1 -71.59 71.59 71.588 71.588 0 0 1 71.59-71.59z" fill="#cae6ee"/><path d="m277.15 132.56a12.555 12.555 0 1 1 -12.55 12.56 12.556 12.556 0 0 1 12.55-12.56z" fill="#7fd695"/><path d="m234.85 90.26a12.55 12.55 0 1 1 -12.56 12.55 12.552 12.552 0 0 1 12.56-12.55z" fill="#7fd695"/><path d="m411.38 225.21-155.38 77.59 32.36 64.72 154.61-82.22z" fill="#af8977"/><path d="m214.41 123.96a71.6 71.6 0 0 1 56.59-70 71.59 71.59 0 1 0 0 140.008 71.6 71.6 0 0 1 -56.59-70.008z" fill="#a7c9d1"/><path d="m133.875 242.743-29.875-15.933v196.51l30 14.534v-195.044l-.14-.07z" fill="#ceaa9d"/><path d="m133.875 242.743.125.067v-.04z" fill="#ceaa9d"/><path d="m100.62 225.21-31.59 60.09 154.61 82.22 32.36-64.72z" fill="#e1b7a3"/><path d="m100.62 225.21-31.59 60.09 30.019 15.964 31.571-60.054z" fill="#ffd9ca"/><path d="m125 353.389a6 6 0 0 1 -6-6v-5.372a6 6 0 1 1 12 0v5.372a6 6 0 0 1 -6 6z" fill="#f4f8fc"/><path d="m125 413.184a6 6 0 0 1 -6-6v-40.548a6 6 0 1 1 12 0v40.548a6 6 0 0 1 -6 6z" fill="#f4f8fc"/><path d="m228.605 157.356a6 6 0 0 1 -4.242-10.242l54.789-54.788a6 6 0 1 1 8.485 8.485l-54.789 54.789a5.978 5.978 0 0 1 -4.243 1.756z" fill="#7fd695"/><g fill="#d4e1f4"><path d="m429.49 129.962h-28.571a6 6 0 0 1 0-12h28.571a6 6 0 1 1 0 12z"/><path d="m390.222 95.716a6 6 0 0 1 -3.6-10.8l28.571-21.4a6 6 0 0 1 7.2 9.6l-28.572 21.4a5.974 5.974 0 0 1 -3.599 1.2z"/><path d="m418.783 185.613a5.979 5.979 0 0 1 -3.593-1.2l-28.571-21.4a6 6 0 0 1 7.195-9.6l28.572 21.4a6 6 0 0 1 -3.6 10.8z"/><path d="m111.081 129.962h-28.571a6 6 0 0 1 0-12h28.571a6 6 0 1 1 0 12z"/><path d="m93.217 185.613a6 6 0 0 1 -3.6-10.8l28.572-21.4a6 6 0 0 1 7.195 9.6l-28.571 21.4a5.979 5.979 0 0 1 -3.596 1.2z"/><path d="m121.778 95.716a5.974 5.974 0 0 1 -3.592-1.2l-28.572-21.4a6 6 0 0 1 7.2-9.6l28.571 21.4a6 6 0 0 1 -3.6 10.8z"/></g></svg>