<svg id="Layer_1" height="512" viewBox="0 0 512 512" width="512" xmlns="http://www.w3.org/2000/svg" data-name="Layer 1">
    <path d="m292.1 17h-194.8a36.245 36.245 0 0 0 -36.3 35.99v362.01h267v-362.01a35.9 35.9 0 0 0 -35.9-35.99z" fill="#ececf7"/>
    <path d="m328.1 414.97v44.04a35.99 35.99 0 0 1 -36 36h-194.8a36 36 0 0 1 -36-36v-44.04z" fill="#6d7486"/>
    <path d="m328.1 52.99v30.7h-266.8v-30.7a36 36 0 0 1 36-36h194.8a35.99 35.99 0 0 1 36 36z" fill="#6d7486"/>
    <path d="m265.08 136.46v106.25l-22.53 22.54v-106.25z" fill="#8e7066"/>
    <path d="m265.08 136.46-22.53 22.54h-42.12-17l22.54-22.54z" fill="#c79a83"/>
    <path d="m124 159h119v106h-119z" fill="#af8977"/>
    <path d="m205.97 136.46-22.54 22.54h-16.86-42.25l22.54-22.54z" fill="#e1b7a3"/>
    <path d="m167 159v.11 20.89h33v-20.89-.11z" fill="#eadf53"/>
    <path d="m199.32 265.19v.06h-31.64v-.06-39.97l31.64 14.78z" fill="#eadf53"/>
    <path d="m359.84 210.14a90.784 90.784 0 1 1 -31.63 5.66 90.861 90.861 0 0 1 31.63-5.66z" fill="#49c160"/>
    <path d="m194.7 438.32a16.675 16.675 0 1 1 -16.67 16.67 16.674 16.674 0 0 1 16.67-16.67z" fill="#b0b5ca"/>
    <path d="m91 52.99a36.245 36.245 0 0 1 36.3-35.99h-30a36.245 36.245 0 0 0 -36.3 35.99v362.01h30z" fill="#cdcde0"/>
    <path d="m91.3 459.01v-44.04h-30v44.04a36 36 0 0 0 36 36h30a36 36 0 0 1 -36-36z" fill="#4a5160"/>
    <path d="m127.3 16.99h-30a36 36 0 0 0 -36 36v30.7h30v-30.7a36 36 0 0 1 36-36z" fill="#4a5160"/>
    <path d="m298.98 301a90.659 90.659 0 0 1 75.9-89.613 90.86 90.86 0 1 0 0 179.226 90.659 90.659 0 0 1 -75.9-89.613z" fill="#50dd5a"/>
    <g fill="#acacc1">
        <path d="m210.73 315.787h-86.409a6 6 0 1 1 0-12h86.409a6 6 0 0 1 0 12z"/>
        <path d="m242.546 342.3h-118.225a6 6 0 1 1 0-12h118.225a6 6 0 0 1 0 12z"/>
        <path d="m242.546 368.812h-118.225a6 6 0 0 1 0-12h118.225a6 6 0 0 1 0 12z"/>
    </g>
    <path d="m344.3 328.808a5.993 5.993 0 0 1 -4.566-2.1l-23.175-27.139a6 6 0 0 1 9.125-7.793l19.543 22.885 51.771-38.289a6 6 0 0 1 7.135 9.649l-56.273 41.611a5.977 5.977 0 0 1 -3.56 1.176z" fill="#eadf53"/>
    <path d="m91.667 124.058a6 6 0 0 1 -6-6v-6.3a6 6 0 0 1 12 0v6.3a6 6 0 0 1 -6 6z" fill="#b8b8cc"/>
    <path d="m91.667 209.058a6 6 0 0 1 -6-6v-66a6 6 0 0 1 12 0v66a6 6 0 0 1 -6 6z" fill="#b8b8cc"/>
</svg>
