<svg id="Layer_1" height="512" viewBox="0 0 512 512" width="512" xmlns="http://www.w3.org/2000/svg" data-name="Layer 1">
    <path d="m319.15 388.07-127.06.047c-72.7 7.81-124.67 28.6-124.67 53 0 31.09 84.43 56.3 188.58 56.3s188.58-25.2 188.58-56.286c0-24.485-52.34-45.311-125.43-53.061z" fill="#a0eaea"/>
    <path d="m289.51 417.84-.07-.07-67.58.15c-29.88 3.92-50.75 12.83-50.75 23.21 0 13.99 38 25.34 84.89 25.34s84.89-11.35 84.89-25.34c0-10.45-21.16-19.42-51.38-23.29z" fill="#88ced8"/>
    <path d="m192.09 388.15-64.27-64.27a187.776 187.776 0 0 1 -31.09-42.03c-36.99-68.92-26.9-156.33 31.09-214.32a180.971 180.971 0 1 1 255.51 256.35l-64.18 64.19-29.71 29.7-33.86 33.86-33.72-33.71z" fill="#5fa8ed"/>
    <path d="m255.58 70.26a119.98 119.98 0 1 1 -119.99 119.98 119.984 119.984 0 0 1 119.99-119.98z" fill="#ececf7"/>
    <path d="m322.37 126.25v100.18l-21.26 21.25v-100.18z" fill="#8e7066"/>
    <path d="m322.37 126.25-21.26 21.25h-39.71-16.03l21.26-21.25z" fill="#c79a83"/>
    <path d="m190 148h111v100h-111z" fill="#af8977"/>
    <path d="m266.63 126.25-21.26 21.25h-15.9-39.84l21.26-21.25z" fill="#e1b7a3"/>
    <path d="m229 148v-.4 19.4h32v-19.4.4z" fill="#9be147"/>
    <path d="m260.35 247.63v.05h-29.83v-.05-37.69l29.83 13.94z" fill="#9be147"/>
    <path
        d="m222.09 388.15-64.27-64.27a187.776 187.776 0 0 1 -31.09-42.03c-36.99-68.92-26.9-156.33 31.09-214.32a180.414 180.414 0 0 1 113.18-52.322q-7.487-.615-15-.628a180.713 180.713 0 0 0 -128.18 52.95c-57.99 57.99-68.08 145.4-31.09 214.32a187.776 187.776 0 0 0 31.09 42.03l64.27 64.27 29.77 29.77 33.72 33.71 15-15-18.72-18.71z"
        fill="#8dccff"/>
    <path d="m165.59 190.24a120 120 0 0 1 104.989-119.048 119.985 119.985 0 1 0 -15 239.028 121.118 121.118 0 0 0 15-.932 120 120 0 0 1 -104.989-119.048z" fill="#ccccdb"/>
    <g fill="#f4f8fc">
        <path d="m110.614 196.242a6 6 0 0 1 -6-6 150.736 150.736 0 0 1 38.186-100.357 6 6 0 1 1 8.962 7.98 138.749 138.749 0 0 0 -35.147 92.377 6 6 0 0 1 -6.001 6z"/>
        <path d="m163.808 84.021a6 6 0 0 1 -3.808-10.642c1.433-1.173 2.908-2.336 4.384-3.456a6 6 0 1 1 7.255 9.558c-1.359 1.032-2.717 2.1-4.036 3.183a5.976 5.976 0 0 1 -3.795 1.357z"/>
    </g>
</svg>
