<svg id="Layer_1" height="512" viewBox="0 0 512 512" width="512" xmlns="http://www.w3.org/2000/svg" data-name="Layer 1">
    <path d="m453.66 71.68 39.34 51.32h-79l-44.01-66.99h51.92a40 40 0 0 1 31.75 15.67z" fill="#d4e1f4"/>
    <path d="m98.439 122.73-.439.27v.575l1-.575z" fill="#b3d1e7"/>
    <path d="m452 146h-392v269.99a39.629 39.629 0 0 0 39.55 40.01h312.9a39.726 39.726 0 0 0 39.665-40.01z" fill="#80aaff"/>
    <path d="m369.99 56.01 44.01 66.99h-89.75l-.1.09a93.23 93.23 0 0 0 -22.51-17.74l-19.12-49.34z" fill="#fb6771"/>
    <path d="m282.52 56h-53.04l-19.12 49h91.28z" fill="#d4e1f4"/>
    <path d="m229.48 56.01-19.12 49.34a93.291 93.291 0 0 0 -22.42 17.65h-89.38l-.34-.27 52.82-66.72z" fill="#fb6771"/>
    <path d="m151.04 56.01-52.82 66.72-.22.27h-79l49.62-54.04a40.005 40.005 0 0 1 29.46-12.95z" fill="#d4e1f4"/>
    <path d="m187.5 343.99h137v112h-137z" fill="#9bbbce"/>
    <path d="m324.5 310.99v33h-137v-33a4 4 0 0 1 4-4h129a4 4 0 0 1 4 4z" fill="#fb6771"/>
    <path d="m351.5 308h74v61h-74z" fill="#7ce5e9"/>
    <path d="m86.5 308h74v61h-74z" fill="#7ce5e9"/>
    <path d="m452.45 176.49a39.262 39.262 0 0 1 -38.45-39.49v-14h79v14a39.253 39.253 0 0 1 -39.5 39.5c-.35 0-.7 0-1.05-.01z" fill="#fb6771"/>
    <path d="m324.25 123-.1.09 24.35 73.78.15.02a52.166 52.166 0 0 0 12.87 1.62 52.743 52.743 0 0 0 52.48-52.48v-23.03z" fill="#d4e1f4"/>
    <path d="m99 123v23.03a52.1 52.1 0 0 0 64.6 50.96l24.4-73.99z" fill="#d4e1f4"/>
    <path d="m256 93.41a93.075 93.075 0 1 1 -93.08 93.08 93.076 93.076 0 0 1 93.08-93.08z" fill="#eadf53"/>
    <path d="m289.43 223.42a8.4 8.4 0 1 1 -8.4 8.39 8.388 8.388 0 0 1 8.4-8.39z" fill="#5fa8ed"/>
    <path d="m244.31 223.42a8.4 8.4 0 1 1 -8.39 8.39 8.39 8.39 0 0 1 8.39-8.39z" fill="#5fa8ed"/>
    <path d="m90 415.99v-269.99h-30v269.99a39.629 39.629 0 0 0 39.55 40.01h30a39.629 39.629 0 0 1 -39.55-40.01z" fill="#658ec9"/>
    <path d="m128.08 56.01h-30a40.005 40.005 0 0 0 -29.46 12.95l-49.62 54.04h30l49.62-54.04a40.005 40.005 0 0 1 29.46-12.95z" fill="#b6c5d8"/>
    <path d="m192.92 186.49a93.094 93.094 0 0 1 78.08-91.871 93.075 93.075 0 1 0 0 183.732 93.091 93.091 0 0 1 -78.08-91.861z" fill="#cec149"/>
    <path d="m59.55 176.49c-.35.01-.7.01-1.05.01a39.266 39.266 0 0 1 -39.5-39.5v-14h79v14a39.25 39.25 0 0 1 -38.45 39.49z" fill="#fb6771"/>
    <path d="m49 137v-14h-30v14a39.266 39.266 0 0 0 39.5 39.5c.35 0 .7 0 1.05-.01a39.837 39.837 0 0 0 13.95-2.89 39.2 39.2 0 0 1 -24.5-36.6z" fill="#dd5b68"/>
    <g id="_Group_" data-name=" Group ">
        <g id="_Group_2" data-name=" Group 2">
            <g id="_Group_3" data-name=" Group 3">
                <g id="_Group_4" data-name=" Group 4">
                    <path
                        d="m300.114 210h-59.621a5.367 5.367 0 0 1 -5.115-4.532l-1.4-8.468h55.682a14.056 14.056 0 0 0 13.32-9.775l8.71-27.225h-83.971l-2.468-14.612a17.209 17.209 0 0 0 -16.944-14.388h-8a6 6 0 0 0 0 12h8a5.3 5.3 0 0 1 5.115 4.456l10.126 59.944a17.4 17.4 0 0 0 16.945 14.6h59.621a6 6 0 1 0 0-12z"
                        fill="#5fa8ed"/>
                </g>
            </g>
        </g>
    </g>
    <g fill="#f4f8fc">
        <path d="m93.3 216.392a6 6 0 0 1 -6-6v-6.3a6 6 0 0 1 12 0v6.3a6 6 0 0 1 -6 6z"/>
        <path d="m93.3 291.392a6 6 0 0 1 -6-6v-56a6 6 0 0 1 12 0v56a6 6 0 0 1 -6 6z"/>
    </g>
</svg>
