<svg id="Capa_1" enable-background="new 0 0 512 512" height="512" viewBox="0 0 512 512" width="512" xmlns="http://www.w3.org/2000/svg">
    <g>
        <g>
            <g>
                <g>
                    <path
                        d="m329.11 320.248-79.105-293.854c-1.565-5.813-6.124-10.004-11.568-11.397l-162.322 43.696c-8.395 2.26-13.369 10.898-11.109 19.293l77.363 287.382c2.26 8.395 10.898 13.369 19.293 11.109l167.282-45.032c1.06-3.247 1.062-7.867.166-11.197z"
                        fill="#f4e066"/>
                </g>
                <path
                    d="m388.775 299.036-77.362-287.382c-2.26-8.395-10.898-13.369-19.293-11.109l-56.258 15.145c6.118.934 11.411 5.364 13.123 11.724l79.105 293.854c.989 3.674.614 7.389-.8 10.623l50.377-13.562c8.395-2.26 13.368-10.898 11.108-19.293z"
                    fill="#efd133"/>
                <g>
                    <g>
                        <path
                            d="m320.762 388.686 65.542-300.136c1.15-5.265-.404-10.481-3.724-14.228-.746-.842-1.767-1.392-2.865-1.631l-117.271-25.609c-4.127-.901-8.443-.126-11.998 2.155l-60.139 38.581c-3.555 2.281-6.059 5.881-6.96 10.008l-53.463 244.821c-1.877 8.594 3.569 17.082 12.162 18.958l171.961 37.552c2.971-2.491 5.938-6.729 6.755-10.471z"
                            fill="#f7f4f7"/>
                    </g>
                    <path
                        d="m434.198 84.589-56.091-12.249c4.72 3.731 7.189 9.936 5.818 16.211l-65.542 300.135c-.923 4.229-3.424 7.697-6.741 9.954l51.519 11.25c8.594 1.877 17.082-3.569 18.958-12.162l64.242-294.181c1.877-8.593-3.569-17.081-12.163-18.958z"
                        fill="#edeaed"/>
                    <path
                        d="m186.154 91.682c.005.002.011.005.016.007l44.664 9.754c6.845 1.495 13.606-2.843 15.101-9.688l9.754-44.664c-.001-.006-.002-.011-.002-.017-1.845.398-3.622 1.124-5.241 2.163l-60.139 38.581c-1.62 1.039-3.021 2.352-4.153 3.864z"
                        fill="#c1bcc4"/>
                </g>
            </g>
            <g>
                <path d="m341.213 493.918 41.18-300.275h-312.952l41.18 300.275c1.014 7.391 7.329 12.9 14.79 12.9h201.013c7.46 0 13.775-5.508 14.789-12.9z" fill="#c1bcc4"/>
                <path d="m379.334 193.643-41.18 300.275c-1.014 7.391-7.329 12.9-14.79 12.9h63.225c7.461 0 13.776-5.508 14.79-12.9l41.18-300.275z" fill="#b2aab5"/>
                <g>
                    <path d="m50.059 193.643c0 9.551 7.742 17.293 17.293 17.293h316.085c9.55-.001 17.292-7.743 17.292-17.293v-17.293h-333.377c-9.551 0-17.293 7.742-17.293 17.293z" fill="#e0dde0"/>
                </g>
                <path d="m444.648 176.35h-46.979v17.293c0 9.551-7.742 17.293-17.293 17.293h64.272c9.551 0 17.293-7.742 17.293-17.293s-7.742-17.293-17.293-17.293z" fill="#d1ccd3"/>
                <path d="m341.893 512c9.551 0 17.293-7.742 17.293-17.293v-17.293h-250.534c-9.551 0-17.293 7.742-17.293 17.293 0 9.55 7.742 17.293 17.293 17.293z" fill="#e0dde0"/>
                <path d="m403.348 477.414h-47.221v17.293c0 9.551-7.742 17.293-17.293 17.293h64.514c9.551 0 17.293-7.742 17.293-17.293 0-9.551-7.742-17.293-17.293-17.293z" fill="#d1ccd3"/>
            </g>
            <g>
                <g>
                    <path
                        d="m395.703 120.06c-.541 0-1.088-.057-1.638-.178l-70.935-15.49c-4.127-.901-6.742-4.977-5.841-9.104.9-4.127 4.978-6.743 9.103-5.84l70.935 15.49c4.127.901 6.742 4.977 5.841 9.104-.781 3.577-3.947 6.018-7.465 6.018z"
                        fill="#665e66"/>
                </g>
                <g>
                    <path
                        d="m389.68 148.341c-.54 0-1.088-.058-1.639-.178l-70.935-15.49c-4.126-.901-6.741-4.977-5.84-9.104.9-4.126 4.967-6.74 9.104-5.84l70.935 15.491c4.126.901 6.741 4.977 5.84 9.104-.78 3.576-3.947 6.017-7.465 6.017z"
                        fill="#665e66"/>
                </g>
            </g>
        </g>
        <g>
            <g>
                <path
                    d="m176.889 439.897c-3.792 0-7.085-2.82-7.576-6.681l-21.843-171.224c-.535-4.19 2.429-8.02 6.618-8.554 4.187-.545 8.021 2.428 8.554 6.618l21.843 171.225c.535 4.19-2.429 8.02-6.618 8.555-.328.041-.655.061-.978.061z"
                    fill="#f7f4f7"/>
            </g>
            <g>
                <path d="m256 439.896c-4.224 0-7.648-3.424-7.648-7.648v-171.224c0-4.224 3.424-7.648 7.648-7.648s7.648 3.424 7.648 7.648v171.225c0 4.223-3.424 7.647-7.648 7.647z" fill="#f7f4f7"/>
            </g>
            <g>
                <path
                    d="m335.111 439.897c-.323 0-.649-.02-.978-.062-4.19-.535-7.153-4.365-6.618-8.555l21.843-171.225c.534-4.191 4.365-7.16 8.554-6.618 4.19.534 7.153 4.364 6.618 8.554l-21.843 171.225c-.492 3.861-3.784 6.681-7.576 6.681z"
                    fill="#f7f4f7"/>
            </g>
        </g>
    </g>
</svg>
