<svg id="Layer_1" height="512" viewBox="0 0 512 512" width="512" xmlns="http://www.w3.org/2000/svg" data-name="Layer 1">
    <path d="m341 238v129h138.25a19.7 19.7 0 0 0 19.75-19.9v-109.1z" fill="#ddcf50"/>
    <path d="m311.03 139.9v135.89h-61.03v-165.89h31.03a30 30 0 0 1 30 30z" fill="#fb6771"/>
    <path d="m250 109.97v165.82h-60v-165.82-.07h60z" fill="#e75163"/>
    <path d="m190 109.97v165.82h-60v-165.82-.07h60z" fill="#fb6771"/>
    <path d="m130 109.97v165.82h-60v-165.82-.07h60z" fill="#e75163"/>
    <path d="m70 109.97v165.82h-57.25v-135.89a30 30 0 0 1 30-30h27.25z" fill="#fb6771"/>
    <path d="m13 311v1.93 54.07h328v-56z" fill="#3090fc"/>
    <path d="m340.5 276h-327.5v35h328v-35z" fill="#49bdff"/>
    <circle cx="93.25" cy="367.1" fill="#6d7486" r="35"/>
    <path d="m447.668 181.675a20.045 20.045 0 0 0 -14.668-6.675h-92v63h158.125z" fill="#7ce5e9"/>
    <path d="m391.25 174.92h24v62.61h-24z" fill="#f9d438"/>
    <path d="m499.25 265.33v30.19h-24.83a4 4 0 0 1 -4-4v-22.19a4.005 4.005 0 0 1 4-4z" fill="#fb6771"/>
    <circle cx="419.25" cy="367.1" fill="#6d7486" r="35"/>
    <path d="m42.75 139.9a30 30 0 0 1 27.25-29.869v-.131h-27.25a30 30 0 0 0 -30 30v135.89h30z" fill="#ffa1aa"/>
    <path d="m43 311h-30v1.93 54.07h30v-54.07z" fill="#6cb9ff"/>
    <path d="m13 276h30v35h-30z" fill="#7dd7ff"/>
    <path d="m341 238v129h.25 29.75v-129z" fill="#fff655"/>
    <g fill="#f4f8fc">
        <path d="m368.3 272.392a6 6 0 0 1 -6-6v-6.3a6 6 0 0 1 12 0v6.3a6 6 0 0 1 -6 6z"/>
        <path d="m368.3 330.392a6 6 0 0 1 -6-6v-39a6 6 0 0 1 12 0v39a6 6 0 0 1 -6 6z"/>
    </g>
</svg>
