<svg id="Layer_1" height="512" viewBox="0 0 512 512" width="512" xmlns="http://www.w3.org/2000/svg" data-name="Layer 1">
    <path d="m178 16h229v213h-229z" fill="#58935e"/>
    <path d="m152 16v213.02-.02h26v.02-213.02z" fill="#61b257"/>
    <path d="m125 16v213.02-.02h27v.02-213.02z" fill="#58935e"/>
    <path d="m124.91 229.02v.01h-26.44a40.24 40.24 0 1 1 0-80.48h26.44z" fill="#c79a83"/>
    <path d="m349.91 45h-115.8c-.45 15-15.11 26.45-31.11 26.45v157.55l174 1v-158.55c-16 0-26.64-11.45-27.09-26.45z" fill="#7fd695"/>
    <path d="m292.46 71.27a18.15 18.15 0 1 1 -18.16 18.15 18.149 18.149 0 0 1 18.16-18.15z" fill="#61b257"/>
    <path d="m234.11 45c-.45 15-15.11 26.45-31.11 26.45v157.55h30v-157.55c16 0 30.66-11.45 31.11-26.45z" fill="#62b273"/>
    <path d="m377 230v.03h-22.56v-.01a61.985 61.985 0 1 0 -123.97 0v.01h-23.35v-.01a85.336 85.336 0 0 1 169.88-11.6z" fill="#61b257"/>
    <path d="m437 229h-338.53a40.462 40.462 0 0 1 -40.12-35.818l-.35.038v262.09c0 22.58 18.54 40.69 41.13 40.69h338.87z" fill="#c2684f"/>
    <path
        d="m437.5 315.46h12.72a3.559 3.559 0 0 1 3.56 3.55v93.87a3.559 3.559 0 0 1 -3.56 3.55h-52.93a38.162 38.162 0 0 1 -16.72-3.86l-25.34-12.37a38.116 38.116 0 0 1 -21.4-34.25v-.01a38.116 38.116 0 0 1 21.4-34.25l25.34-12.37a38.162 38.162 0 0 1 16.72-3.86z"
        fill="#d9b089"/>
    <path d="m378.26 350.44a15.505 15.505 0 1 1 -15.5 15.51 15.5 15.5 0 0 1 15.5-15.51z" fill="#6d7486"/>
    <path d="m88 455.31v-227.692a40.513 40.513 0 0 1 -29.65-34.436l-.35.038v262.09c0 22.58 18.54 40.69 41.13 40.69h30c-22.59 0-41.13-18.11-41.13-40.69z" fill="#ea8e7f"/>
    <g fill="#f4f8fc">
        <path d="m101.667 274.058a6 6 0 0 1 -6-6v-6.3a6 6 0 0 1 12 0v6.3a6 6 0 0 1 -6 6z"/>
        <path d="m101.667 389.058a6 6 0 0 1 -6-6v-96a6 6 0 0 1 12 0v96a6 6 0 0 1 -6 6z"/>
    </g>
</svg>
